<?xml version="1.0" encoding="utf-8"?>
<!-- Generator: Adobe Illustrator 19.0.0, SVG Export Plug-In . SVG Version: 6.00 Build 0)  -->
<svg version="1.1" id="Layer_1" xmlns="http://www.w3.org/2000/svg" xmlns:xlink="http://www.w3.org/1999/xlink" x="0px" y="0px"
	 viewBox="-318 533 162 216" style="enable-background:new -318 533 162 216;" xml:space="preserve">
<style type="text/css">
	.st0{fill:#FFFFFF;}
	.st1{fill:#91A8FF;}
	.st2{fill:#FC306B;}
	.st3{fill:#FFE0A8;}
</style>
<path class="st0" d="M-287.4,688.5c-2.2,0-4.4-0.7-5.9-1.8c-0.4-0.3-0.6-0.7-0.6-1.1c0-0.6,0.5-1,1-1c0.3,0,0.5,0.1,0.8,0.3
	c1.4,0.9,2.6,1.5,4.7,1.5c2.6,0,3.9-1.1,3.9-2.5c0-1.7-1.5-2.2-4.5-3.1c-4.4-1.3-5.8-2.7-5.8-5c0-3,2.6-4.5,6.4-4.5
	c1.3,0,2.6,0.2,3.8,0.7c0.8,0.3,2,0.9,2,1.7c0,0.6-0.3,1.1-1,1.1c-0.2,0-0.3,0-0.5-0.1c-1.2-0.7-2.6-1.2-4.3-1.2c-2.4,0-4,0.7-4,2.3
	c0,1.5,1.2,2,4.1,2.9c4,1.2,6.2,2.3,6.2,5.2C-281,686.4-283.2,688.5-287.4,688.5z"/>
<path class="st0" d="M-265.9,673.8h-4.7v13.4c0,0.7-0.5,1.2-1.2,1.2c-0.7,0-1.2-0.5-1.2-1.2v-13.4h-4.7c-0.6,0-1.1-0.5-1.1-1.1
	c0-0.7,0.5-1.2,1.1-1.2h11.8c0.6,0,1.1,0.5,1.1,1.2C-264.8,673.3-265.3,673.8-265.9,673.8z"/>
<path class="st0" d="M-250.1,686.8c0.1,0.2,0.1,0.3,0.1,0.5c0,0.6-0.4,1.1-1.1,1.1c-0.6,0-0.9-0.3-1.1-0.7l-1.7-3.7h-7.8l-1.7,3.7
	c-0.2,0.4-0.5,0.7-1.1,0.7c-0.7,0-1.1-0.5-1.1-1.1c0-0.2,0-0.3,0.1-0.5l6.6-14.7c0.2-0.5,0.6-0.7,1.1-0.7s0.9,0.2,1.1,0.7
	L-250.1,686.8z M-257.8,674.8l-3,7.1h6.1L-257.8,674.8z"/>
<path class="st0" d="M-237.8,673.8h-4.7v13.4c0,0.7-0.5,1.2-1.2,1.2s-1.2-0.5-1.2-1.2v-13.4h-4.7c-0.6,0-1.1-0.5-1.1-1.1
	c0-0.7,0.5-1.2,1.1-1.2h11.8c0.6,0,1.1,0.5,1.1,1.2C-236.7,673.3-237.2,673.8-237.8,673.8z"/>
<path class="st0" d="M-223,688.2h-9.6c-0.7,0-1.2-0.5-1.2-1.2v-14.2c0-0.7,0.5-1.2,1.2-1.2h9.2c0.6,0,1.1,0.5,1.1,1.1
	c0,0.6-0.5,1.1-1.1,1.1h-8v4.8h4.5c0.6,0,1.1,0.5,1.1,1.1c0,0.7-0.5,1.1-1.1,1.1h-4.5v5.2h8.4c0.6,0,1.1,0.4,1.1,1.1
	C-221.9,687.7-222.4,688.2-223,688.2z"/>
<path class="st0" d="M-203.6,688.5c-5.1,0-8.4-3.9-8.4-8.6c0-4.7,3.4-8.6,8.4-8.6s8.4,3.9,8.4,8.6
	C-195.2,684.6-198.6,688.5-203.6,688.5z M-203.6,673.4c-3.9,0-6,3-6,6.4c0,3.4,2.2,6.4,6,6.4s6-3,6-6.4
	C-197.6,676.4-199.8,673.4-203.6,673.4z"/>
<path class="st0" d="M-181,673.8h-8.1v4.7h4.6c0.6,0,1.1,0.5,1.1,1.1c0,0.7-0.5,1.1-1.1,1.1h-4.6v6.4c0,0.7-0.5,1.2-1.2,1.2
	s-1.2-0.5-1.2-1.2v-14.4c0-0.7,0.5-1.2,1.2-1.2h9.3c0.6,0,1.1,0.4,1.1,1.1C-179.9,673.3-180.4,673.8-181,673.8z"/>
<path class="st0" d="M-280.9,697.8h-4.6v13.4c0,0.7-0.5,1.2-1.2,1.2c-0.7,0-1.2-0.5-1.2-1.2v-13.4h-4.7c-0.6,0-1.1-0.5-1.1-1.1
	c0-0.7,0.5-1.2,1.1-1.2h11.8c0.6,0,1.1,0.5,1.1,1.2C-279.7,697.3-280.2,697.8-280.9,697.8z"/>
<path class="st0" d="M-263.8,712.4c-0.7,0-1.2-0.5-1.2-1.2v-6.4h-9v6.4c0,0.7-0.5,1.2-1.2,1.2c-0.7,0-1.2-0.5-1.2-1.2v-14.6
	c0-0.7,0.5-1.2,1.2-1.2c0.7,0,1.2,0.5,1.2,1.2v5.9h9v-5.9c0-0.7,0.5-1.2,1.2-1.2c0.7,0,1.2,0.5,1.2,1.2v14.6
	C-262.6,711.8-263.1,712.4-263.8,712.4z"/>
<path class="st0" d="M-246.9,712.2h-9.6c-0.7,0-1.2-0.5-1.2-1.2v-14.2c0-0.7,0.5-1.2,1.2-1.2h9.2c0.6,0,1.1,0.5,1.1,1.1
	c0,0.6-0.5,1.1-1.1,1.1h-8v4.8h4.5c0.6,0,1.1,0.5,1.1,1.1c0,0.7-0.5,1.1-1.1,1.1h-4.5v5.2h8.4c0.6,0,1.1,0.4,1.1,1.1
	C-245.8,711.7-246.3,712.2-246.9,712.2z"/>
<path class="st0" d="M-219.3,696.1c0.2-0.5,0.5-0.7,1.1-0.7c0.6,0,1.1,0.4,1.1,1.1v14.7c0,0.6-0.4,1.2-1.1,1.2s-1.1-0.5-1.1-1.2
	v-10.1l-5.2,10.6c-0.2,0.4-0.5,0.7-1,0.7s-0.9-0.3-1-0.7l-5.2-10.6v10.1c0,0.6-0.4,1.2-1.1,1.2s-1.1-0.5-1.1-1.2v-14.8
	c0-0.7,0.5-1.1,1.1-1.1c0.5,0,0.9,0.3,1.1,0.7l6.3,13L-219.3,696.1z"/>
<path class="st0" d="M-198.1,710.8c0.1,0.2,0.1,0.3,0.1,0.5c0,0.6-0.4,1.1-1.1,1.1c-0.6,0-0.9-0.3-1.1-0.7l-1.7-3.7h-7.8l-1.7,3.7
	c-0.2,0.4-0.5,0.7-1.1,0.7c-0.8,0-1.1-0.5-1.1-1.1c0-0.2,0-0.3,0.1-0.5l6.6-14.7c0.2-0.5,0.5-0.7,1.1-0.7s0.9,0.2,1.1,0.7
	L-198.1,710.8z M-205.7,698.8l-3,7.1h6.1L-205.7,698.8z"/>
<path class="st0" d="M-193.4,712.4c-0.7,0-1.2-0.5-1.2-1.2v-14.4c0-0.7,0.5-1.2,1.2-1.2h6.3c3.8,0,5.7,2.1,5.7,4.9
	c0,2.9-1.9,4.9-5.7,4.9h-5.2v5.8C-192.2,711.8-192.7,712.4-193.4,712.4z M-192.2,697.7v5.4h5.6c1.8,0,2.8-1.2,2.8-2.7
	s-0.9-2.8-2.8-2.8h-5.6V697.7z"/>
<path class="st1" d="M-290.9,721.9c1.4,0,2.4,0.6,2.4,1.9c0,0.8-0.5,1.4-1.1,1.6c0.7,0.1,1.6,0.5,1.6,1.7c0,1.6-1.2,2.2-2.7,2.2
	h-2.1c-0.3,0-0.4-0.1-0.4-0.4v-6.6c0-0.3,0.1-0.4,0.4-0.4H-290.9z M-292.3,725.1h1.5c1,0,1.4-0.4,1.4-1.2c0-0.9-0.6-1.2-1.5-1.2
	h-1.4V725.1z M-292.3,728.6h1.6c0.9,0,1.8-0.2,1.8-1.4c0-1-0.8-1.3-1.7-1.3h-1.7V728.6z"/>
<path class="st1" d="M-286.2,724c0.3,0,0.4,0.1,0.4,0.4v0.6c0.2-0.5,0.8-1.1,1.5-1.1c0.6,0,0.9,0.3,0.9,0.6c0,0.2-0.1,0.4-0.2,0.4
	c-0.1-0.1-0.3-0.3-0.7-0.3c-0.9,0-1.5,0.9-1.5,1.9v2.4c0,0.3-0.1,0.4-0.4,0.4h-0.1c-0.3,0-0.4-0.1-0.4-0.4v-4.6
	C-286.7,724.1-286.6,724-286.2,724L-286.2,724z"/>
<path class="st1" d="M-281.9,724c0.3,0,0.4,0.1,0.4,0.4v2.8c0,1.1,0.5,1.5,1.3,1.5c1.1,0,1.5-1,1.5-1.9v-2.5c0-0.3,0.1-0.4,0.4-0.4
	h0.1c0.3,0,0.4,0.1,0.4,0.4v4.6c0,0.3-0.1,0.4-0.4,0.4h-0.1c-0.3,0-0.4-0.1-0.4-0.4v-0.6c-0.2,0.4-0.9,1-1.7,1c-1.2,0-2-0.5-2-2.2
	v-2.9C-282.4,724.1-282.3,724-281.9,724L-281.9,724z"/>
<path class="st1" d="M-272.6,724.7c0,0.2-0.2,0.3-0.4,0.4c-0.1-0.2-0.6-0.5-1.2-0.5c-0.7,0-1.2,0.3-1.2,0.7c0,0.4,0.2,0.6,1.2,0.9
	c1.4,0.3,2,0.8,2,1.7c0,1-1,1.6-2.3,1.6c-1.2,0-2-0.3-2-0.9c0-0.3,0.2-0.5,0.4-0.6c0.2,0.4,0.7,0.7,1.7,0.7c0.8,0,1.3-0.4,1.3-0.8
	c0-0.5-0.3-0.7-1.5-1c-1.3-0.3-1.8-0.8-1.8-1.5c0-1.1,1.1-1.6,2.1-1.6C-273.1,723.9-272.6,724.2-272.6,724.7z"/>
<path class="st1" d="M-267.5,724.7c0,0.2-0.2,0.3-0.4,0.4c-0.1-0.2-0.6-0.5-1.2-0.5c-0.7,0-1.2,0.3-1.2,0.7c0,0.4,0.2,0.6,1.2,0.9
	c1.4,0.3,2,0.8,2,1.7c0,1-1,1.6-2.3,1.6c-1.2,0-2-0.3-2-0.9c0-0.3,0.2-0.5,0.4-0.6c0.2,0.4,0.7,0.7,1.7,0.7c0.8,0,1.3-0.4,1.3-0.8
	c0-0.5-0.3-0.7-1.5-1c-1.3-0.3-1.8-0.8-1.8-1.5c0-1.1,1.1-1.6,2.1-1.6C-268.1,723.9-267.5,724.2-267.5,724.7z"/>
<path class="st1" d="M-261.5,725.7c0,1-0.9,1.6-2.1,1.6c-0.7,0-1.4-0.2-1.7-0.3c0,1.1,0.9,1.8,1.9,1.8c0.9,0,1.4-0.4,1.5-0.8
	c0.2,0,0.5,0.1,0.5,0.4c0,0.5-0.8,1.1-2,1.1c-1.4,0-2.7-0.8-2.7-2.8c0-1.9,1.3-2.8,2.6-2.8C-262.3,723.9-261.5,724.7-261.5,725.7z
	 M-265.4,726.3c0.3,0.1,0.9,0.3,1.6,0.3c0.9,0,1.4-0.3,1.4-0.9c0-0.5-0.5-1-1.3-1C-264.7,724.6-265.4,725.5-265.4,726.3z"/>
<path class="st1" d="M-259.7,721.7c0.3,0,0.4,0.1,0.4,0.4v6.9c0,0.3-0.1,0.4-0.4,0.4h-0.1c-0.3,0-0.4-0.1-0.4-0.4v-6.9
	C-260.2,721.8-260.1,721.7-259.7,721.7L-259.7,721.7z"/>
<path class="st1" d="M-254.1,724.7c0,0.2-0.2,0.3-0.4,0.4c-0.1-0.2-0.6-0.5-1.2-0.5c-0.7,0-1.2,0.3-1.2,0.7c0,0.4,0.2,0.6,1.2,0.9
	c1.4,0.3,2,0.8,2,1.7c0,1-1,1.6-2.3,1.6c-1.2,0-2-0.3-2-0.9c0-0.3,0.2-0.5,0.4-0.6c0.2,0.4,0.7,0.7,1.7,0.7c0.8,0,1.3-0.4,1.3-0.8
	c0-0.5-0.3-0.7-1.5-1c-1.3-0.3-1.8-0.8-1.8-1.5c0-1.1,1.1-1.6,2.1-1.6C-254.6,723.9-254.1,724.2-254.1,724.7z"/>
<path class="st1" d="M-243.7,721.9c1.4,0,2.4,0.6,2.4,1.9c0,0.8-0.5,1.4-1.1,1.6c0.7,0.1,1.6,0.5,1.6,1.7c0,1.6-1.2,2.2-2.7,2.2
	h-2.1c-0.3,0-0.4-0.1-0.4-0.4v-6.6c0-0.3,0.1-0.4,0.4-0.4H-243.7z M-245.1,725.1h1.5c1,0,1.4-0.4,1.4-1.2c0-0.9-0.6-1.2-1.5-1.2
	h-1.4V725.1z M-245.1,728.6h1.6c0.9,0,1.8-0.2,1.8-1.4c0-1-0.8-1.3-1.7-1.3h-1.7L-245.1,728.6z"/>
<path class="st1" d="M-235.2,725.7c0,1-0.9,1.6-2.1,1.6c-0.7,0-1.4-0.2-1.7-0.3c0,1.1,0.9,1.8,1.9,1.8c0.9,0,1.4-0.4,1.5-0.8
	c0.2,0,0.5,0.1,0.5,0.4c0,0.5-0.8,1.1-2,1.1c-1.4,0-2.7-0.8-2.7-2.8c0-1.9,1.3-2.8,2.6-2.8C-236,723.9-235.2,724.7-235.2,725.7z
	 M-239,726.3c0.3,0.1,0.9,0.3,1.6,0.3c0.9,0,1.4-0.3,1.4-0.9c0-0.5-0.5-1-1.3-1C-238.3,724.6-239,725.5-239,726.3z"/>
<path class="st1" d="M-233.3,721.7c0.3,0,0.4,0.1,0.4,0.4v6.9c0,0.3-0.1,0.4-0.4,0.4h-0.1c-0.3,0-0.4-0.1-0.4-0.4v-6.9
	C-233.8,721.8-233.7,721.7-233.3,721.7L-233.3,721.7z"/>
<path class="st1" d="M-226.6,724.1c0,0.5-0.5,0.7-0.8,0.8c0.1,0.2,0.2,0.6,0.2,1c0,1.3-1,1.9-2.1,1.9c-0.2,0-0.3,0-0.5,0
	c-0.4,0-0.6,0.2-0.6,0.4c0,0.3,0.3,0.4,0.7,0.4h0.8c1.5,0,2.3,0.4,2.3,1.4s-1.1,1.7-2.6,1.7h-0.3c-1.3,0-2.3-0.6-2.3-1.3
	c0-0.3,0.2-0.5,0.4-0.5c0.1,0.2,0.2,0.3,0.4,0.5c0.4,0.3,0.9,0.5,1.6,0.5h0.1c1.1,0,1.8-0.4,1.8-0.9s-0.6-0.7-1.7-0.7
	c-1.5,0-2.2-0.2-2.2-0.9c0-0.5,0.3-0.7,0.8-0.9c-0.6-0.3-1-0.8-1-1.7c0-1.3,1-2,2.2-2c0.7,0,1.3,0.4,1.5,0.6c0.3-0.2,0.4-0.6,0.4-1
	C-226.9,723.5-226.6,723.8-226.6,724.1z M-230.6,725.9c0,0.9,0.6,1.3,1.3,1.3s1.3-0.4,1.3-1.3c0-0.9-0.6-1.3-1.3-1.3
	C-230,724.6-230.6,724.9-230.6,725.9z"/>
<path class="st1" d="M-224.2,722.4c0,0.3-0.3,0.6-0.6,0.6s-0.6-0.3-0.6-0.6c0-0.3,0.3-0.6,0.6-0.6
	C-224.5,721.8-224.2,722.1-224.2,722.4z M-224.8,724c0.3,0,0.4,0.1,0.4,0.4v4.6c0,0.3-0.1,0.4-0.4,0.4h-0.1c-0.3,0-0.4-0.1-0.4-0.4
	v-4.6C-225.2,724.1-225.1,724-224.8,724L-224.8,724z"/>
<path class="st1" d="M-222.2,724c0.3,0,0.4,0.1,0.4,0.4v2.8c0,1.1,0.5,1.5,1.3,1.5c1.1,0,1.5-1,1.5-1.9v-2.5c0-0.3,0.1-0.4,0.4-0.4
	h0.1c0.3,0,0.4,0.1,0.4,0.4v4.6c0,0.3-0.1,0.4-0.4,0.4l0,0c-0.3,0-0.4-0.1-0.4-0.4v-0.6c-0.2,0.4-0.9,1-1.7,1c-1.2,0-2-0.5-2-2.2
	v-2.9C-222.7,724.1-222.6,724-222.2,724L-222.2,724z"/>
<path class="st1" d="M-215.9,724c0.3,0,0.4,0.1,0.4,0.4v0.5c0.3-0.6,0.8-1,1.6-1c0.9,0,1.5,0.5,1.7,1.4c0.2-0.9,0.9-1.4,1.7-1.4
	c1.1,0,1.9,0.6,1.9,2.2v2.9c0,0.3-0.1,0.4-0.4,0.4h-0.1c-0.3,0-0.4-0.1-0.4-0.4v-2.8c0-1.1-0.5-1.5-1.1-1.5c-1.2,0-1.4,1-1.4,2.2
	v2.2c0,0.3-0.1,0.4-0.4,0.4h-0.1c-0.3,0-0.4-0.1-0.4-0.4v-2.9c0-1.1-0.5-1.5-1.2-1.5c-1.2,0-1.4,1.2-1.4,2.1v2.2
	c0,0.3-0.1,0.4-0.4,0.4h-0.1c-0.3,0-0.4-0.1-0.4-0.4v-4.6C-216.4,724.1-216.3,724-215.9,724L-215.9,724z"/>
<path class="st1" d="M-199.3,723.9c0,1.2-0.9,2-3.6,4.7h3.4c0.3,0,0.5,0.1,0.5,0.4s-0.1,0.4-0.5,0.4h-4.1c-0.3,0-0.5-0.2-0.5-0.5
	s0.2-0.5,0.4-0.7c2.8-2.6,3.6-3.5,3.6-4.3s-0.6-1.3-1.6-1.3c-1.1,0-1.5,0.8-1.6,1.4c-0.3,0-0.6-0.1-0.6-0.5c0-0.8,0.8-1.7,2.3-1.7
	C-200,721.8-199.3,722.8-199.3,723.9z"/>
<path class="st1" d="M-191.7,725.6c0,2.5-1.4,3.8-3.1,3.8c-1.7,0-3.1-1.3-3.1-3.8c0-2.6,1.4-3.8,3.1-3.8
	C-193.1,721.8-191.7,723.1-191.7,725.6z M-196.9,725.6c0,1.9,0.8,3,2.1,3s2.1-1.1,2.1-3c0-1.9-1-3-2.1-3
	C-196,722.7-196.9,723.7-196.9,725.6z"/>
<path class="st1" d="M-188.8,721.9c0.3,0,0.5,0.1,0.5,0.4v6.7c0,0.3-0.1,0.4-0.5,0.4h-0.1c-0.3,0-0.5-0.1-0.5-0.4v-6.2h-0.6
	c-0.3,0-0.5-0.1-0.5-0.4s0.1-0.4,0.5-0.4h1.2V721.9z"/>
<path class="st1" d="M-181.6,723c0,0.3-0.3,0.4-0.5,0.5c-0.2-0.3-0.5-0.8-1.6-0.8c-1.7,0-2.3,1.7-2.3,3.1c0.4-0.6,1.3-1,2.2-1
	c1.8,0,2.5,1,2.5,2.3c0,1.3-0.8,2.5-2.7,2.5c-2,0-2.9-1.4-2.9-3.4c0-1.9,0.8-4.2,3.3-4.2C-182.3,721.8-181.6,722.5-181.6,723z
	 M-185.9,726.9c0,0.7,0.5,1.8,1.9,1.8s1.8-0.8,1.8-1.7c0-0.9-0.5-1.6-1.8-1.6C-185.1,725.4-185.9,726.1-185.9,726.9z"/>
<path class="st2" d="M-259.3,605c0.1-0.3,0-0.7-0.1-0.7c0,0,0,0-0.1,0c-1.9-0.6-3.9,0.4-4.6,2.3c-0.6,1.9,0.4,3.9,2.3,4.6
	c0.2,0.1,0.2,0.1,0.2,0.1c0.2,0,0.4-0.2,0.5-0.5L-259.3,605z"/>
<circle class="st2" cx="-219.5" cy="594.3" r="4"/>
<g>
	<path class="st1" d="M-215.2,636.5c2.9-1.7,4.4-3.5,4.4-3.5c0.3-0.4,0.2-0.8-0.3-1l-5.3-1.8c-0.5-0.2-1,0.1-1.2,0.6l-2.1,6.3
		c-0.2,0.5,0.1,0.9,0.6,0.9C-219,638-217.8,638-215.2,636.5z"/>
	<path class="st1" d="M-258.6,580.1c0.6,0.2,1.5,0.2,2.1-0.1l1.7-0.8c0.6-0.3,0.7-0.9,0.2-1.3l-2-1.9c-0.5-0.4-1.2-0.5-1.7-0.1
		l-2.9,2.2c-0.5,0.4-0.4,0.9,0.2,1.1L-258.6,580.1z"/>
	<path class="st1" d="M-253.2,555.3c0.6,0.3,1.5,0.2,2-0.2l3.2-2.4c0.5-0.4,0.4-0.8-0.2-0.9c0,0-2.4-0.5-4.4-0.2s-3.5,1.4-3.5,1.4
		c-0.5,0.4-0.5,0.9,0.1,1.1L-253.2,555.3z"/>
	<path class="st1" d="M-248,556.6c-0.5,0.4-0.4,0.9,0.1,1.2l2.5,1.1c0.6,0.3,1.2,0,1.4-0.6l1.7-5.2c0.2-0.6-0.1-0.8-0.6-0.4
		L-248,556.6z"/>
	<path class="st1" d="M-266.9,592.2c-0.1-0.6-0.7-1.3-1.3-1.5l-0.7-0.2c-0.6-0.2-1.3,0.1-1.6,0.6l-7.5,13.5c-0.3,0.6,0,1,0.6,0.9
		l9.4-1c0.6-0.1,1.3-0.4,1.5-0.7c0.2-0.3,0.8-1.6,0.7-2.2L-266.9,592.2z"/>
	<path class="st1" d="M-196.7,611c0.6,0.2,1.2-0.1,1.3-0.8l0.1-0.4c0.1-0.6-0.3-1.2-0.9-1.2c0,0-3-0.2-2.8-3.3s3.4-2,3.4-2
		c0.6,0.2,1.2-0.1,1.3-0.8l0.1-0.6c0.1-0.6-0.3-1.3-0.9-1.5l-3.9-1.3c-0.6-0.2-1.3,0.1-1.4,0.7l-2.6,7.9c-0.2,0.6,0.1,1.3,0.7,1.5
		L-196.7,611z"/>
	<path class="st1" d="M-272.7,581.2c0.5,0.4,1.3,0.5,1.8,0.1l10.3-7.6c0.5-0.4,0.5-1,0.1-1.5l-2.8-2.7c-0.5-0.4-1.2-0.5-1.7-0.1
		l-10.4,7.8c-0.5,0.4-0.5,1-0.1,1.5L-272.7,581.2z"/>
	<path class="st1" d="M-279.7,574.9c0.5,0.4,1.3,0.5,1.8,0.1l10.5-7.8c0.5-0.4,0.6-1,0.1-1.5l-3.5-3.3c-0.5-0.4-0.9-0.3-0.9,0.4
		c0,0-0.2,3.6-2.8,5.9c-2.6,2.3-6.3,3.8-6.3,3.8c-0.6,0.2-0.7,0.8-0.2,1.2L-279.7,574.9z"/>
	<path class="st1" d="M-203,620.3c5.5,2.9,7-4.8,7-4.8c0.1-0.5-0.2-1-0.7-1.2l-6.7-2.2c-0.5-0.2-1,0.1-1.2,0.6l-4.4,13.4
		c-0.2,0.5,0.1,1,0.6,1.2c0,0,2.5,0.9,2.5-3.9C-206,622-205.5,619-203,620.3z"/>
	<path class="st1" d="M-258.2,570.1c0.5,0.4,1.2,0.5,1.8,0.1l8.6-6.2c0.5-0.4,1.3-0.9,1.8-1.2s0.4-0.8-0.2-1l-4.4-2
		c-0.6-0.3-1.5-0.2-2,0.2l-8.1,6.1c-0.5,0.4-0.5,1-0.1,1.5L-258.2,570.1z"/>
	<path class="st1" d="M-272.8,586c0.6,0.2,0.7,0,0.2-0.4l-10.2-9.4c-0.5-0.4-0.8-0.3-0.7,0.4c0,0,0.2,1.1-0.7,2.4
		c-1.1,1.7-1.6,1.9-1.6,1.9c-0.6,0.2-0.6,0.5,0,0.7L-272.8,586z"/>
	<path class="st1" d="M-264.7,563.9c0.5,0.4,1.2,0.5,1.7,0.1l7.1-5.4c0.5-0.4,0.4-0.9-0.1-1.2l-2.7-1.2c-0.6-0.3-1.2,0-1.4,0.6
		c0,0-0.6,2-2.1,2.8c-2.9,1.6-6.4,0-6.4,0c-0.6-0.3-0.7-0.1-0.2,0.3L-264.7,563.9z"/>
	<path class="st1" d="M-269.8,633.2c0.5,0.4,1,0.2,1.2-0.4l3.9-11.7c0.2-0.6-0.1-1.3-0.7-1.4l-8.1-2.7c-0.6-0.2-1.3,0.1-1.4,0.7
		l-2.6,8c-0.2,0.6,0.2,1.1,0.8,1c0,0,2-0.1,3.8-2.8c1.8-2.7,5.3-0.9,3.4,2.4C-272.3,631.1-269.8,633.2-269.8,633.2z"/>
	<path class="st1" d="M-283.9,606.8c0.6-0.1,1.4-0.7,1.7-1.3l8.6-15.4c0.3-0.6,0.1-1.2-0.5-1.4l-11.6-3.8c-0.6-0.2-0.6-0.2,0,0.1
		c0,0,6.6,2.8,4.8,9.2c-1.3,4.5-6.1,2.4-7.4,5.3c-1.8,3.9,0.7,7,0.7,7c0.4,0.5,1.2,0.8,1.8,0.6L-283.9,606.8z"/>
	<path class="st1" d="M-287,612.6l8.4,2.8c0.6,0.2,0.9,0.8,0.7,1.4l-2.6,7.4c-0.2,0.6-0.5,0.6-0.6,0c0,0-0.4-2-2-5.3
		C-284.7,615.6-287.6,613.6-287,612.6z"/>
	<path class="st1" d="M-203.4,598.9c0.2-0.6-0.1-1.3-0.7-1.5l-6.7-2.2c-0.6-0.2-1.2,0.1-1.3,0.8c0,0,0,0-0.2,0.6
		c-0.4,1.2-1.2,2.2-1.2,2.2c-0.4,0.5-0.4,1.3,0.1,1.7l6.3,6.5c0.4,0.5,1,0.3,1.2-0.3L-203.4,598.9z"/>
	<path class="st1" d="M-199.4,586.8c0.2-0.6-0.1-1.3-0.7-1.5l-28.5-9.4c-0.6-0.2-1.3,0.1-1.5,0.7l-2.3,6.9c-0.2,0.6,0.1,1.3,0.7,1.5
		l7.3,2.4c0.6,0.2,1.6,0.2,2.2,0c0,0,3.1-1.1,5.3-0.4s3.9,3.4,3.9,3.4c0.3,0.5,1.1,1.1,1.7,1.3l8.1,2.7c0.6,0.2,1.3-0.1,1.5-0.7
		L-199.4,586.8z"/>
	<path class="st1" d="M-226.2,568c-0.6,0.2-0.9-0.1-0.7-0.7l3.7-11.2c0.2-0.6,0.4-0.6,0.5,0c0,0,0.5,3.4,4.8,5.5
		c2.9,1.5,5.2,0.3,5.6,1.1C-211.9,563.4-226.2,568-226.2,568z"/>
	<path class="st1" d="M-227.7,573c-0.6-0.2-0.6-0.5,0-0.8l16.7-6.2c0.6-0.2,1.6-0.4,2.2-0.5c0,0,2.1-0.1,2.8,1.9
		c1.5,4.2-4.3,2-4.3,5.6c0,4.7,9.6,1.4,9.6,5.8c0,2-1.5,2.1-1.5,2.1c-0.6,0.1-1.6-0.1-2.2-0.3L-227.7,573z"/>
</g>
<g>
	<path class="st0" d="M-267,609.3c-0.2-0.6-1-1-1.6-0.9l-13.9,2.1c-0.6,0.1-0.6,0.3,0,0.5l18,5.9c0.6,0.2,1.3-0.1,1.5-0.7l0.5-1.4
		c0.2-0.6,0.1-1.1-0.2-1.2c0,0,0,0-0.3-0.1C-265.6,612.7-267,609.3-267,609.3z"/>
	<path class="st0" d="M-215.9,602c-0.4-0.5-1.3-0.7-1.9-0.5c-0.6,0.2-2.4,0.6-2.6,1.2l-6.5,19.6c-0.2,0.6,0.1,1.3,0.7,1.5l12.1,4
		c0.6,0.2,1.3-0.1,1.5-0.7l5-15.1c0.2-0.6,0-1.5-0.4-1.9L-215.9,602z"/>
	<path class="st0" d="M-248.7,579.2c0.5,0.4,1,0.3,1.2-0.3l3.3-10.1c0.2-0.6,0-1.4-0.5-1.8c-0.5-0.4-1.3-0.4-1.8-0.1l-7.6,5.6
		c-0.5,0.4-0.5,1-0.1,1.5L-248.7,579.2z"/>
	<path class="st0" d="M-235.3,582.7c-0.2,0.6-0.9,0.9-1.5,0.7l-6.7-2.2c-0.6-0.2-0.9-0.9-0.7-1.5l4.2-12.8c0.2-0.6-0.1-1.2-0.7-1.4
		l-1-0.3c-0.6-0.2-0.9-0.8-0.7-1.4l2.2-6.7c0.2-0.6,0.6-0.7,1-0.1c0,0,1.4,2.1,3.7,1.7c3.6-0.5,1.6-6.3,4.2-5.7
		c1.4,0.3,4.2,1.3,4.2,1.3c0.6,0.2,0.9,0.9,0.7,1.5L-235.3,582.7z"/>
	<path class="st3" d="M-266.2,581.6c0.5-0.4,1.4-0.5,2-0.3l6.4,2.4c0.6,0.2,1.5,0.2,2.1-0.1l3-1.4c0.6-0.3,1.5-0.3,2.1-0.1l12.8,4.2
		c0.6,0.2,0.9,0.9,0.7,1.5l-2.6,7.8c-0.2,0.6-0.9,0.9-1.5,0.7l-22.3-7.3c-0.6-0.2-1.5-0.7-1.9-1.1l-3.4-3.1
		c-0.5-0.4-0.4-1.1,0.1-1.5L-266.2,581.6z"/>
	<path class="st0" d="M-240.1,650.8c-0.3-0.3-0.3-0.4-0.4-0.4c-0.1,0-0.2,0.2-0.4,0.4c-0.3,0.3-1.7,1.6-1.7,3c0,1.2,1,2.2,2.2,2.2
		s2.2-1,2.2-2.2C-238.3,652.4-239.8,651.1-240.1,650.8z"/>
	<path class="st0" d="M-259,601.4c0.2,0.1,0.2,0.1,0.2,0.1c0.2,0.1,0.5-0.3,0.8-0.9l1.6-4.5c0.2-0.6-0.1-1.3-0.7-1.5l-5.1-1.8
		c-0.6-0.2-1,0.1-0.9,0.8l0.9,6.5c0.1,0.6,0.7,1.1,1.3,1.1C-261,601.1-260.1,601-259,601.4z"/>
	<path class="st3" d="M-242,599.4c0.6,0.2,0.9,0.9,0.7,1.5l-4.9,15.1c-0.2,0.6-0.8,0.9-1.4,0.7l-9.9-3.3c-0.6-0.2-0.9-0.9-0.7-1.5
		l5-15.1c0.2-0.6,0.9-0.9,1.4-0.7L-242,599.4z"/>
	<path class="st0" d="M-225.2,598.8c-0.4-0.5-1.2-0.8-1.8-0.7l-9.8,2.1c-0.6,0.1-1.3,0.7-1.5,1.3l-5.1,15.4
		c-0.2,0.6,0.1,1.3,0.7,1.5l11.3,3.7c0.6,0.2,1.3-0.1,1.4-0.7l6.5-19.6c0.2-0.6,0-1.4-0.5-1.8L-225.2,598.8z"/>
	<path class="st0" d="M-236,636.2c0.6,0.2,1.3-0.1,1.5-0.7l2.9-8.9c0.2-0.6-0.1-1.3-0.7-1.5l-11.3-3.7c-0.6-0.2-1.3,0.1-1.5,0.7
		l-2.9,8.9c-0.2,0.6,0.1,1.3,0.7,1.5L-236,636.2z"/>
	<path class="st0" d="M-243.7,643.1c2.1,1.4,2.9,4.4,2.9,4.4c0.2,0.6,0.3,0.6,0.4,0c0,0,0.2-1.6,1.6-2.4c1.2-0.7,1.7-1.6,1.7-1.6
		c0.3-0.5,0.6-1.4,0.8-2l0.2-1c0.1-0.6-0.2-1.2-0.8-1.4l-11.4-3.7c-0.6-0.2-1.2,0.1-1.4,0.7l-1.1,3.3c-0.2,0.6,0.1,0.9,0.7,0.8
		C-249.9,640.2-248.3,639.9-243.7,643.1z"/>
	<path class="st0" d="M-252.4,630.8c0.6,0.2,1.3-0.1,1.5-0.7l2.9-8.9c0.2-0.6-0.1-1.3-0.7-1.5l-9.9-3.3c-0.6-0.2-1.3,0.1-1.4,0.7
		l-2.9,9c-0.2,0.6,0.1,1.3,0.7,1.4L-252.4,630.8z"/>
	<path class="st0" d="M-254.6,638.6c0.3,0.6,0.7,0.5,0.9-0.1l1.1-3.4c0.2-0.6-0.1-1.3-0.7-1.5l-9.9-3.3c-0.6-0.1-1.3,0.3-1.5,0.9
		l-1.1,3.3c-0.2,0.6,0.1,0.9,0.7,0.6c0,0,2.6-1.3,5.8-0.3C-256.1,635.8-254.6,638.6-254.6,638.6z"/>
	<path class="st3" d="M-226.4,591.8c0.2-0.5,0.2-0.5,0.2-0.5c0.3-0.5,0-1.1-0.6-1.3l-5.8-1.9c-0.6-0.2-1.2,0.1-1.4,0.7l-2.3,7.1
		c-0.2,0.6,0.1,1,0.8,0.9l7.8-1.4c0.6-0.1,1.1-0.7,1.1-1.3C-226.8,594-226.8,592.9-226.4,591.8z"/>
	<path class="st0" d="M-226.4,627c-1-0.3-2.2,0.2-2.5,1.3c0,0-5.4,17.9-5.4,19.9c0,1.5,0.9,3.1,3.1,3.1s2.8-2.1,2.9-3.7
		c0-2.5-1.7-8-0.8-10.6c1.4-4.1,4.6-1,4.6-1c0.8,0.8,1.7,0.5,2.1-0.5l1.5-4.6c0.3-1-0.2-2.2-1.3-2.5L-226.4,627z"/>
	<path class="st0" d="M-265.7,637.2c-0.2-0.2-0.3-0.3-0.3-0.3c-0.1,0-0.2,0.1-0.3,0.3c-0.3,0.2-1.3,1.2-1.3,2.3
		c0,0.9,0.7,1.6,1.6,1.6c0.9,0,1.6-0.7,1.6-1.6C-264.4,638.4-265.5,637.4-265.7,637.2z"/>
</g>
</svg>
