<?xml version="1.0" encoding="utf-8"?>
<!-- Generator: Adobe Illustrator 19.0.0, SVG Export Plug-In . SVG Version: 6.00 Build 0)  -->
<svg version="1.1" id="Layer_1" xmlns="http://www.w3.org/2000/svg" xmlns:xlink="http://www.w3.org/1999/xlink" x="0px" y="0px"
	 viewBox="0 0 186 188" style="enable-background:new 0 0 186 188;" xml:space="preserve">
<style type="text/css">
	.st0{fill:#FFFFFF;}
	.st1{fill:#FC306B;}
	.st2{fill:#91A8FF;}
	.st3{fill:#FFE0A8;}
</style>
<path class="st0" d="M45.6,142.5c-2.2,0-4.4-0.7-5.9-1.8c-0.4-0.3-0.6-0.7-0.6-1.1c0-0.6,0.5-1,1-1c0.3,0,0.5,0.1,0.8,0.3
	c1.4,0.9,2.6,1.5,4.7,1.5c2.6,0,3.9-1.1,3.9-2.5c0-1.7-1.5-2.2-4.5-3.1c-4.4-1.3-5.8-2.7-5.8-5c0-3,2.6-4.5,6.4-4.5
	c1.3,0,2.6,0.2,3.8,0.7c0.8,0.3,2,0.9,2,1.7c0,0.6-0.3,1.1-1,1.1c-0.2,0-0.3,0-0.5-0.1c-1.2-0.7-2.6-1.2-4.3-1.2c-2.4,0-4,0.7-4,2.3
	c0,1.5,1.2,2,4.1,2.9c4,1.2,6.2,2.3,6.2,5.2C52,140.4,49.8,142.5,45.6,142.5z"/>
<path class="st0" d="M67.1,127.8h-4.7v13.4c0,0.7-0.5,1.2-1.2,1.2c-0.7,0-1.2-0.5-1.2-1.2v-13.4h-4.7c-0.6,0-1.1-0.5-1.1-1.1
	c0-0.7,0.5-1.2,1.1-1.2h11.8c0.6,0,1.1,0.5,1.1,1.2C68.2,127.3,67.7,127.8,67.1,127.8z"/>
<path class="st0" d="M82.9,140.8c0.1,0.2,0.1,0.3,0.1,0.5c0,0.6-0.4,1.1-1.1,1.1c-0.6,0-0.9-0.3-1.1-0.7l-1.7-3.7h-7.8l-1.7,3.7
	c-0.2,0.4-0.5,0.7-1.1,0.7c-0.7,0-1.1-0.5-1.1-1.1c0-0.2,0-0.3,0.1-0.5l6.6-14.7c0.2-0.5,0.6-0.7,1.1-0.7s0.9,0.2,1.1,0.7
	L82.9,140.8z M75.2,128.8l-3,7.1h6.1L75.2,128.8z"/>
<path class="st0" d="M95.2,127.8h-4.7v13.4c0,0.7-0.5,1.2-1.2,1.2s-1.2-0.5-1.2-1.2v-13.4h-4.7c-0.6,0-1.1-0.5-1.1-1.1
	c0-0.7,0.5-1.2,1.1-1.2h11.8c0.6,0,1.1,0.5,1.1,1.2C96.3,127.3,95.8,127.8,95.2,127.8z"/>
<path class="st0" d="M110,142.2h-9.6c-0.7,0-1.2-0.5-1.2-1.2v-14.2c0-0.7,0.5-1.2,1.2-1.2h9.2c0.6,0,1.1,0.5,1.1,1.1
	s-0.5,1.1-1.1,1.1h-8v4.8h4.5c0.6,0,1.1,0.5,1.1,1.1c0,0.7-0.5,1.1-1.1,1.1h-4.5v5.2h8.4c0.6,0,1.1,0.4,1.1,1.1
	C111.1,141.7,110.6,142.2,110,142.2z"/>
<path class="st0" d="M129.4,142.5c-5.1,0-8.4-3.9-8.4-8.6c0-4.7,3.4-8.6,8.4-8.6c5,0,8.4,3.9,8.4,8.6
	C137.8,138.6,134.4,142.5,129.4,142.5z M129.4,127.4c-3.9,0-6,3-6,6.4s2.2,6.4,6,6.4c3.8,0,6-3,6-6.4S133.2,127.4,129.4,127.4z"/>
<path class="st0" d="M152,127.8h-8.1v4.7h4.6c0.6,0,1.1,0.5,1.1,1.1c0,0.7-0.5,1.1-1.1,1.1h-4.6v6.4c0,0.7-0.5,1.2-1.2,1.2
	s-1.2-0.5-1.2-1.2v-14.4c0-0.7,0.5-1.2,1.2-1.2h9.3c0.6,0,1.1,0.4,1.1,1.1C153.1,127.3,152.6,127.8,152,127.8z"/>
<path class="st0" d="M52.1,151.8h-4.6v13.4c0,0.7-0.5,1.2-1.2,1.2s-1.2-0.5-1.2-1.2v-13.4h-4.7c-0.6,0-1.1-0.5-1.1-1.1
	c0-0.7,0.5-1.2,1.1-1.2h11.8c0.6,0,1.1,0.5,1.1,1.2C53.3,151.3,52.8,151.8,52.1,151.8z"/>
<path class="st0" d="M69.2,166.4c-0.7,0-1.2-0.5-1.2-1.2v-6.4h-9v6.4c0,0.7-0.5,1.2-1.2,1.2c-0.7,0-1.2-0.5-1.2-1.2v-14.6
	c0-0.7,0.5-1.2,1.2-1.2c0.7,0,1.2,0.5,1.2,1.2v5.9h9v-5.9c0-0.7,0.5-1.2,1.2-1.2s1.2,0.5,1.2,1.2v14.6
	C70.4,165.8,69.9,166.4,69.2,166.4z"/>
<path class="st0" d="M86.1,166.2h-9.6c-0.7,0-1.2-0.5-1.2-1.2v-14.2c0-0.7,0.5-1.2,1.2-1.2h9.2c0.6,0,1.1,0.5,1.1,1.1
	s-0.5,1.1-1.1,1.1h-8v4.8h4.5c0.6,0,1.1,0.5,1.1,1.1c0,0.7-0.5,1.1-1.1,1.1h-4.5v5.2h8.4c0.6,0,1.1,0.4,1.1,1.1
	C87.2,165.7,86.7,166.2,86.1,166.2z"/>
<path class="st0" d="M113.7,150.1c0.2-0.5,0.5-0.7,1.1-0.7s1.1,0.4,1.1,1.1v14.7c0,0.6-0.4,1.2-1.1,1.2s-1.1-0.5-1.1-1.2v-10.1
	l-5.2,10.6c-0.2,0.4-0.5,0.7-1,0.7s-0.9-0.3-1-0.7l-5.2-10.6v10.1c0,0.6-0.4,1.2-1.1,1.2s-1.1-0.5-1.1-1.2v-14.8
	c0-0.7,0.5-1.1,1.1-1.1c0.5,0,0.9,0.3,1.1,0.7l6.3,13L113.7,150.1z"/>
<path class="st0" d="M134.9,164.8c0.1,0.2,0.1,0.3,0.1,0.5c0,0.6-0.4,1.1-1.1,1.1c-0.6,0-0.9-0.3-1.1-0.7l-1.7-3.7h-7.8l-1.7,3.7
	c-0.2,0.4-0.5,0.7-1.1,0.7c-0.8,0-1.1-0.5-1.1-1.1c0-0.2,0-0.3,0.1-0.5l6.6-14.7c0.2-0.5,0.5-0.7,1.1-0.7s0.9,0.2,1.1,0.7
	L134.9,164.8z M127.3,152.8l-3,7.1h6.1L127.3,152.8z"/>
<path class="st0" d="M139.6,166.4c-0.7,0-1.2-0.5-1.2-1.2v-14.4c0-0.7,0.5-1.2,1.2-1.2h6.3c3.8,0,5.7,2.1,5.7,4.9
	c0,2.9-1.9,4.9-5.7,4.9h-5.2v5.8C140.8,165.8,140.3,166.4,139.6,166.4z M140.8,151.7v5.4h5.6c1.8,0,2.8-1.2,2.8-2.7
	s-0.9-2.8-2.8-2.8h-5.6V151.7z"/>
<path class="st1" d="M73.7,59c0.1-0.3,0-0.7-0.1-0.7c0,0,0,0-0.1,0c-1.9-0.6-3.9,0.4-4.6,2.3c-0.6,1.9,0.4,3.9,2.3,4.6
	c0.2,0.1,0.2,0.1,0.2,0.1c0.2,0,0.4-0.2,0.5-0.5L73.7,59z"/>
<circle class="st1" cx="113.5" cy="48.3" r="4"/>
<g>
	<path class="st2" d="M117.8,90.5c2.9-1.7,4.4-3.5,4.4-3.5c0.3-0.4,0.2-0.8-0.3-1l-5.3-1.8c-0.5-0.2-1,0.1-1.2,0.6l-2.1,6.3
		c-0.2,0.5,0.1,0.9,0.6,0.9C114,92,115.2,92,117.8,90.5z"/>
	<path class="st2" d="M74.4,34.1c0.6,0.2,1.5,0.2,2.1-0.1l1.7-0.8c0.6-0.3,0.7-0.9,0.2-1.3l-2-1.9c-0.5-0.4-1.2-0.5-1.7-0.1
		l-2.9,2.2c-0.5,0.4-0.4,0.9,0.2,1.1L74.4,34.1z"/>
	<path class="st2" d="M79.8,9.3c0.6,0.3,1.5,0.2,2-0.2L85,6.7c0.5-0.4,0.4-0.8-0.2-0.9c0,0-2.4-0.5-4.4-0.2S76.9,7,76.9,7
		c-0.5,0.4-0.5,0.9,0.1,1.1L79.8,9.3z"/>
	<path class="st2" d="M85,10.6c-0.5,0.4-0.4,0.9,0.1,1.2l2.5,1.1c0.6,0.3,1.2,0,1.4-0.6l1.7-5.2c0.2-0.6-0.1-0.8-0.6-0.4L85,10.6z"
		/>
	<path class="st2" d="M66.1,46.2c-0.1-0.6-0.7-1.3-1.3-1.5l-0.7-0.2c-0.6-0.2-1.3,0.1-1.6,0.6L55,58.6c-0.3,0.6,0,1,0.6,0.9l9.4-1
		c0.6-0.1,1.3-0.4,1.5-0.7c0.2-0.3,0.8-1.6,0.7-2.2L66.1,46.2z"/>
	<path class="st2" d="M136.3,65c0.6,0.2,1.2-0.1,1.3-0.8l0.1-0.4c0.1-0.6-0.3-1.2-0.9-1.2c0,0-3-0.2-2.8-3.3c0.2-3.1,3.4-2,3.4-2
		c0.6,0.2,1.2-0.1,1.3-0.8l0.1-0.6c0.1-0.6-0.3-1.3-0.9-1.5l-3.9-1.3c-0.6-0.2-1.3,0.1-1.4,0.7l-2.6,7.9c-0.2,0.6,0.1,1.3,0.7,1.5
		L136.3,65z"/>
	<path class="st2" d="M60.3,35.2c0.5,0.4,1.3,0.5,1.8,0.1l10.3-7.6c0.5-0.4,0.5-1,0.1-1.5l-2.8-2.7c-0.5-0.4-1.2-0.5-1.7-0.1
		l-10.4,7.8c-0.5,0.4-0.5,1-0.1,1.5L60.3,35.2z"/>
	<path class="st2" d="M53.3,28.9c0.5,0.4,1.3,0.5,1.8,0.1l10.5-7.8c0.5-0.4,0.6-1,0.1-1.5l-3.5-3.3c-0.5-0.4-0.9-0.3-0.9,0.4
		c0,0-0.2,3.6-2.8,5.9c-2.6,2.3-6.3,3.8-6.3,3.8c-0.6,0.2-0.7,0.8-0.2,1.2L53.3,28.9z"/>
	<path class="st2" d="M130,74.3c5.5,2.9,7-4.8,7-4.8c0.1-0.5-0.2-1-0.7-1.2l-6.7-2.2c-0.5-0.2-1,0.1-1.2,0.6L124,80.1
		c-0.2,0.5,0.1,1,0.6,1.2c0,0,2.5,0.9,2.5-3.9C127,76,127.5,73,130,74.3z"/>
	<path class="st2" d="M74.8,24.1c0.5,0.4,1.2,0.5,1.8,0.1l8.6-6.2c0.5-0.4,1.3-0.9,1.8-1.2c0.5-0.3,0.4-0.8-0.2-1l-4.4-2
		c-0.6-0.3-1.5-0.2-2,0.2l-8.1,6.1c-0.5,0.4-0.5,1-0.1,1.5L74.8,24.1z"/>
	<path class="st2" d="M60.2,40c0.6,0.2,0.7,0,0.2-0.4l-10.2-9.4c-0.5-0.4-0.8-0.3-0.7,0.4c0,0,0.2,1.1-0.7,2.4
		c-1.1,1.7-1.6,1.9-1.6,1.9c-0.6,0.2-0.6,0.5,0,0.7L60.2,40z"/>
	<path class="st2" d="M68.3,17.9c0.5,0.4,1.2,0.5,1.7,0.1l7.1-5.4c0.5-0.4,0.4-0.9-0.1-1.2l-2.7-1.2c-0.6-0.3-1.2,0-1.4,0.6
		c0,0-0.6,2-2.1,2.8c-2.9,1.6-6.4,0-6.4,0c-0.6-0.3-0.7-0.1-0.2,0.3L68.3,17.9z"/>
	<path class="st2" d="M63.2,87.2c0.5,0.4,1,0.2,1.2-0.4l3.9-11.7c0.2-0.6-0.1-1.3-0.7-1.4L59.5,71c-0.6-0.2-1.3,0.1-1.4,0.7l-2.6,8
		c-0.2,0.6,0.2,1.1,0.8,1c0,0,2-0.1,3.8-2.8c1.8-2.7,5.3-0.9,3.4,2.4C60.7,85.1,63.2,87.2,63.2,87.2z"/>
	<path class="st2" d="M49.1,60.8c0.6-0.1,1.4-0.7,1.7-1.3l8.6-15.4c0.3-0.6,0.1-1.2-0.5-1.4l-11.6-3.8c-0.6-0.2-0.6-0.2,0,0.1
		c0,0,6.6,2.8,4.8,9.2c-1.3,4.5-6.1,2.4-7.4,5.3c-1.8,3.9,0.7,7,0.7,7c0.4,0.5,1.2,0.8,1.8,0.6L49.1,60.8z"/>
	<path class="st2" d="M46,66.6l8.4,2.8c0.6,0.2,0.9,0.8,0.7,1.4l-2.6,7.4c-0.2,0.6-0.5,0.6-0.6,0c0,0-0.4-2-2-5.3
		C48.3,69.6,45.4,67.6,46,66.6z"/>
	<path class="st2" d="M129.6,52.9c0.2-0.6-0.1-1.3-0.7-1.5l-6.7-2.2c-0.6-0.2-1.2,0.1-1.3,0.8c0,0,0,0-0.2,0.6
		c-0.4,1.2-1.2,2.2-1.2,2.2c-0.4,0.5-0.4,1.3,0.1,1.7l6.3,6.5c0.4,0.5,1,0.3,1.2-0.3L129.6,52.9z"/>
	<path class="st2" d="M133.6,40.8c0.2-0.6-0.1-1.3-0.7-1.5l-28.5-9.4c-0.6-0.2-1.3,0.1-1.5,0.7l-2.3,6.9c-0.2,0.6,0.1,1.3,0.7,1.5
		l7.3,2.4c0.6,0.2,1.6,0.2,2.2,0c0,0,3.1-1.1,5.3-0.4c2.2,0.7,3.9,3.4,3.9,3.4c0.3,0.5,1.1,1.1,1.7,1.3l8.1,2.7
		c0.6,0.2,1.3-0.1,1.5-0.7L133.6,40.8z"/>
	<path class="st2" d="M106.8,22c-0.6,0.2-0.9-0.1-0.7-0.7l3.7-11.2c0.2-0.6,0.4-0.6,0.5,0c0,0,0.5,3.4,4.8,5.5
		c2.9,1.5,5.2,0.3,5.6,1.1C121.1,17.4,106.8,22,106.8,22z"/>
	<path class="st2" d="M105.3,27c-0.6-0.2-0.6-0.5,0-0.8L122,20c0.6-0.2,1.6-0.4,2.2-0.5c0,0,2.1-0.1,2.8,1.9c1.5,4.2-4.3,2-4.3,5.6
		c0,4.7,9.6,1.4,9.6,5.8c0,2-1.5,2.1-1.5,2.1c-0.6,0.1-1.6-0.1-2.2-0.3L105.3,27z"/>
</g>
<g>
	<path class="st0" d="M66,63.3c-0.2-0.6-1-1-1.6-0.9l-13.9,2.1c-0.6,0.1-0.6,0.3,0,0.5l18,5.9c0.6,0.2,1.3-0.1,1.5-0.7l0.5-1.4
		c0.2-0.6,0.1-1.1-0.2-1.2c0,0,0,0-0.3-0.1C67.4,66.7,66,63.3,66,63.3z"/>
	<path class="st0" d="M117.1,56c-0.4-0.5-1.3-0.7-1.9-0.5c-0.6,0.2-2.4,0.6-2.6,1.2l-6.5,19.6c-0.2,0.6,0.1,1.3,0.7,1.5l12.1,4
		c0.6,0.2,1.3-0.1,1.5-0.7l5-15.1c0.2-0.6,0-1.5-0.4-1.9L117.1,56z"/>
	<path class="st0" d="M84.3,33.2c0.5,0.4,1,0.3,1.2-0.3l3.3-10.1c0.2-0.6,0-1.4-0.5-1.8s-1.3-0.4-1.8-0.1l-7.6,5.6
		c-0.5,0.4-0.5,1-0.1,1.5L84.3,33.2z"/>
	<path class="st0" d="M97.7,36.7c-0.2,0.6-0.9,0.9-1.5,0.7l-6.7-2.2c-0.6-0.2-0.9-0.9-0.7-1.5L93,20.9c0.2-0.6-0.1-1.2-0.7-1.4
		l-1-0.3c-0.6-0.2-0.9-0.8-0.7-1.4l2.2-6.7c0.2-0.6,0.6-0.7,1-0.1c0,0,1.4,2.1,3.7,1.7c3.6-0.5,1.6-6.3,4.2-5.7
		c1.4,0.3,4.2,1.3,4.2,1.3c0.6,0.2,0.9,0.9,0.7,1.5L97.7,36.7z"/>
	<path class="st3" d="M66.8,35.6c0.5-0.4,1.4-0.5,2-0.3l6.4,2.4c0.6,0.2,1.5,0.2,2.1-0.1l3-1.4c0.6-0.3,1.5-0.3,2.1-0.1l12.8,4.2
		c0.6,0.2,0.9,0.9,0.7,1.5l-2.6,7.8c-0.2,0.6-0.9,0.9-1.5,0.7L69.5,43c-0.6-0.2-1.5-0.7-1.9-1.1l-3.4-3.1c-0.5-0.4-0.4-1.1,0.1-1.5
		L66.8,35.6z"/>
	<path class="st0" d="M92.9,104.8c-0.3-0.3-0.3-0.4-0.4-0.4s-0.2,0.2-0.4,0.4c-0.3,0.3-1.7,1.6-1.7,3c0,1.2,1,2.2,2.2,2.2
		s2.2-1,2.2-2.2C94.7,106.4,93.2,105.1,92.9,104.8z"/>
	<path class="st0" d="M74,55.4c0.2,0.1,0.2,0.1,0.2,0.1c0.2,0.1,0.5-0.3,0.8-0.9l1.6-4.5c0.2-0.6-0.1-1.3-0.7-1.5l-5.1-1.8
		c-0.6-0.2-1,0.1-0.9,0.8l0.9,6.5c0.1,0.6,0.7,1.1,1.3,1.1C72,55.1,72.9,55,74,55.4z"/>
	<path class="st3" d="M91,53.4c0.6,0.2,0.9,0.9,0.7,1.5L86.8,70c-0.2,0.6-0.8,0.9-1.4,0.7l-9.9-3.3c-0.6-0.2-0.9-0.9-0.7-1.5l5-15.1
		c0.2-0.6,0.9-0.9,1.4-0.7L91,53.4z"/>
	<path class="st0" d="M107.8,52.8c-0.4-0.5-1.2-0.8-1.8-0.7l-9.8,2.1c-0.6,0.1-1.3,0.7-1.5,1.3l-5.1,15.4c-0.2,0.6,0.1,1.3,0.7,1.5
		l11.3,3.7c0.6,0.2,1.3-0.1,1.4-0.7l6.5-19.6c0.2-0.6,0-1.4-0.5-1.8L107.8,52.8z"/>
	<path class="st0" d="M97,90.2c0.6,0.2,1.3-0.1,1.5-0.7l2.9-8.9c0.2-0.6-0.1-1.3-0.7-1.5l-11.3-3.7c-0.6-0.2-1.3,0.1-1.5,0.7L85,85
		c-0.2,0.6,0.1,1.3,0.7,1.5L97,90.2z"/>
	<path class="st0" d="M89.3,97.1c2.1,1.4,2.9,4.4,2.9,4.4c0.2,0.6,0.3,0.6,0.4,0c0,0,0.2-1.6,1.6-2.4c1.2-0.7,1.7-1.6,1.7-1.6
		c0.3-0.5,0.6-1.4,0.8-2l0.2-1c0.1-0.6-0.2-1.2-0.8-1.4l-11.4-3.7c-0.6-0.2-1.2,0.1-1.4,0.7l-1.1,3.3c-0.2,0.6,0.1,0.9,0.7,0.8
		C83.1,94.2,84.7,93.9,89.3,97.1z"/>
	<path class="st0" d="M80.6,84.8c0.6,0.2,1.3-0.1,1.5-0.7l2.9-8.9c0.2-0.6-0.1-1.3-0.7-1.5l-9.9-3.3c-0.6-0.2-1.3,0.1-1.4,0.7
		l-2.9,9c-0.2,0.6,0.1,1.3,0.7,1.4L80.6,84.8z"/>
	<path class="st0" d="M78.4,92.6c0.3,0.6,0.7,0.5,0.9-0.1l1.1-3.4c0.2-0.6-0.1-1.3-0.7-1.5l-9.9-3.3c-0.6-0.1-1.3,0.3-1.5,0.9
		l-1.1,3.3c-0.2,0.6,0.1,0.9,0.7,0.6c0,0,2.6-1.3,5.8-0.3C76.9,89.8,78.4,92.6,78.4,92.6z"/>
	<path class="st3" d="M106.6,45.8c0.2-0.5,0.2-0.5,0.2-0.5c0.3-0.5,0-1.1-0.6-1.3l-5.8-1.9c-0.6-0.2-1.2,0.1-1.4,0.7l-2.3,7.1
		c-0.2,0.6,0.1,1,0.8,0.9l7.8-1.4c0.6-0.1,1.1-0.7,1.1-1.3C106.2,48,106.2,46.9,106.6,45.8z"/>
	<path class="st0" d="M106.6,81c-1-0.3-2.2,0.2-2.5,1.3c0,0-5.4,17.9-5.4,19.9c0,1.5,0.9,3.1,3.1,3.1s2.8-2.1,2.9-3.7
		c0-2.5-1.7-8-0.8-10.6c1.4-4.1,4.6-1,4.6-1c0.8,0.8,1.7,0.5,2.1-0.5l1.5-4.6c0.3-1-0.2-2.2-1.3-2.5L106.6,81z"/>
	<path class="st0" d="M67.3,91.2C67.1,91,67,90.9,67,90.9c-0.1,0-0.2,0.1-0.3,0.3c-0.3,0.2-1.3,1.2-1.3,2.3c0,0.9,0.7,1.6,1.6,1.6
		s1.6-0.7,1.6-1.6C68.6,92.4,67.5,91.4,67.3,91.2z"/>
</g>
</svg>
