<?xml version="1.0" encoding="utf-8"?>
<!-- Generator: Adobe Illustrator 19.0.0, SVG Export Plug-In . SVG Version: 6.00 Build 0)  -->
<svg version="1.1" id="Layer_1" xmlns="http://www.w3.org/2000/svg" xmlns:xlink="http://www.w3.org/1999/xlink" x="0px" y="0px"
	 viewBox="0 0 149.7 216.7" style="enable-background:new 0 0 149.7 216.7;" xml:space="preserve">
<style type="text/css">
	.st0{fill:#FC306B;}
	.st1{fill:#F3A61F;}
	.st2{fill:#794125;}
</style>
<path id="XMLID_97_" class="st0" d="M58.5,71.7c0.1-0.3,0-0.7-0.1-0.7c0,0,0,0-0.1,0c-1.9-0.6-3.9,0.4-4.6,2.3
	c-0.6,1.9,0.4,3.9,2.3,4.6c0.2,0.1,0.2,0.1,0.2,0.1c0.2,0,0.4-0.2,0.5-0.5L58.5,71.7z"/>
<circle id="XMLID_96_" class="st0" cx="98.3" cy="61" r="4"/>
<path id="XMLID_95_" class="st1" d="M102.6,103.2c2.9-1.7,4.4-3.5,4.4-3.5c0.3-0.4,0.2-0.8-0.3-1l-5.3-1.8c-0.5-0.2-1,0.1-1.2,0.6
	l-2.1,6.3c-0.2,0.5,0.1,0.9,0.6,0.9C98.8,104.7,100,104.7,102.6,103.2z"/>
<path id="XMLID_94_" class="st1" d="M59.2,46.8c0.6,0.2,1.5,0.2,2.1-0.1l1.7-0.8c0.6-0.3,0.7-0.9,0.2-1.3l-2-1.9
	c-0.5-0.4-1.2-0.5-1.7-0.1l-2.9,2.2c-0.5,0.4-0.4,0.9,0.2,1.1L59.2,46.8z"/>
<path id="XMLID_93_" class="st1" d="M64.6,22c0.6,0.3,1.5,0.2,2-0.2l3.2-2.4c0.5-0.4,0.4-0.8-0.2-0.9c0,0-2.4-0.5-4.4-0.2
	c-2,0.3-3.5,1.4-3.5,1.4c-0.5,0.4-0.5,0.9,0.1,1.1L64.6,22z"/>
<path id="XMLID_92_" class="st1" d="M69.8,23.3c-0.5,0.4-0.4,0.9,0.1,1.2l2.5,1.1c0.6,0.3,1.2,0,1.4-0.6l1.7-5.2
	c0.2-0.6-0.1-0.8-0.6-0.4L69.8,23.3z"/>
<path id="XMLID_91_" class="st1" d="M50.9,58.9c-0.1-0.6-0.7-1.3-1.3-1.5l-0.7-0.2c-0.6-0.2-1.3,0.1-1.6,0.6l-7.5,13.5
	c-0.3,0.6,0,1,0.6,0.9l9.4-1c0.6-0.1,1.3-0.4,1.5-0.7c0.2-0.3,0.8-1.6,0.7-2.2L50.9,58.9z"/>
<path id="XMLID_90_" class="st1" d="M121.1,77.7c0.6,0.2,1.2-0.1,1.3-0.8l0.1-0.4c0.1-0.6-0.3-1.2-0.9-1.2c0,0-3-0.2-2.8-3.3
	c0.2-3.1,3.4-2,3.4-2c0.6,0.2,1.2-0.1,1.3-0.8l0.1-0.6c0.1-0.6-0.3-1.3-0.9-1.5l-3.9-1.3c-0.6-0.2-1.3,0.1-1.4,0.7l-2.6,7.9
	c-0.2,0.6,0.1,1.3,0.7,1.5L121.1,77.7z"/>
<path id="XMLID_89_" class="st1" d="M45.1,47.9c0.5,0.4,1.3,0.5,1.8,0.1l10.3-7.6c0.5-0.4,0.5-1,0.1-1.5l-2.8-2.7
	c-0.5-0.4-1.2-0.5-1.7-0.1l-10.4,7.8c-0.5,0.4-0.5,1-0.1,1.5L45.1,47.9z"/>
<path id="XMLID_88_" class="st1" d="M38.1,41.6c0.5,0.4,1.3,0.5,1.8,0.1l10.5-7.8c0.5-0.4,0.6-1,0.1-1.5L47,29.1
	c-0.5-0.4-0.9-0.3-0.9,0.4c0,0-0.2,3.6-2.8,5.9c-2.6,2.3-6.3,3.8-6.3,3.8c-0.6,0.2-0.7,0.8-0.2,1.2L38.1,41.6z"/>
<path id="XMLID_87_" class="st1" d="M114.8,87c5.5,2.9,7-4.8,7-4.8c0.1-0.5-0.2-1-0.7-1.2l-6.7-2.2c-0.5-0.2-1,0.1-1.2,0.6
	l-4.4,13.4c-0.2,0.5,0.1,1,0.6,1.2c0,0,2.5,0.9,2.5-3.9C111.8,88.7,112.3,85.7,114.8,87z"/>
<path id="XMLID_86_" class="st1" d="M59.6,36.8c0.5,0.4,1.2,0.5,1.8,0.1l8.6-6.2c0.5-0.4,1.3-0.9,1.8-1.2s0.4-0.8-0.2-1l-4.4-2
	c-0.6-0.3-1.5-0.2-2,0.2l-8.1,6.1c-0.5,0.4-0.5,1-0.1,1.5L59.6,36.8z"/>
<path id="XMLID_85_" class="st1" d="M45,52.7c0.6,0.2,0.7,0,0.2-0.4L35,42.9c-0.5-0.4-0.8-0.3-0.7,0.4c0,0,0.2,1.1-0.7,2.4
	c-1.1,1.7-1.6,1.9-1.6,1.9c-0.6,0.2-0.6,0.5,0,0.7L45,52.7z"/>
<path id="XMLID_84_" class="st1" d="M53.1,30.6c0.5,0.4,1.2,0.5,1.7,0.1l7.1-5.4c0.5-0.4,0.4-0.9-0.1-1.2l-2.7-1.2
	c-0.6-0.3-1.2,0-1.4,0.6c0,0-0.6,2-2.1,2.8c-2.9,1.6-6.4,0-6.4,0c-0.6-0.3-0.7-0.1-0.2,0.3L53.1,30.6z"/>
<path id="XMLID_83_" class="st1" d="M48,99.9c0.5,0.4,1,0.2,1.2-0.4l3.9-11.7c0.2-0.6-0.1-1.3-0.7-1.4l-8.1-2.7
	c-0.6-0.2-1.3,0.1-1.4,0.7l-2.6,8c-0.2,0.6,0.2,1.1,0.8,1c0,0,2-0.1,3.8-2.8s5.3-0.9,3.4,2.4C45.5,97.8,48,99.9,48,99.9z"/>
<path id="XMLID_82_" class="st1" d="M33.9,73.5c0.6-0.1,1.4-0.7,1.7-1.3l8.6-15.4c0.3-0.6,0.1-1.2-0.5-1.4l-11.6-3.8
	c-0.6-0.2-0.6-0.2,0,0.1c0,0,6.6,2.8,4.8,9.2c-1.3,4.5-6.1,2.4-7.4,5.3c-1.8,3.9,0.7,7,0.7,7c0.4,0.5,1.2,0.8,1.8,0.6L33.9,73.5z"/>
<path id="XMLID_81_" class="st1" d="M30.8,79.3l8.4,2.8c0.6,0.2,0.9,0.8,0.7,1.4l-2.6,7.4c-0.2,0.6-0.5,0.6-0.6,0c0,0-0.4-2-2-5.3
	C33.1,82.3,30.2,80.3,30.8,79.3z"/>
<path id="XMLID_80_" class="st1" d="M114.4,65.6c0.2-0.6-0.1-1.3-0.7-1.5l-6.7-2.2c-0.6-0.2-1.2,0.1-1.3,0.8c0,0,0,0-0.2,0.6
	c-0.4,1.2-1.2,2.2-1.2,2.2c-0.4,0.5-0.4,1.3,0.1,1.7l6.3,6.5c0.4,0.5,1,0.3,1.2-0.3L114.4,65.6z"/>
<path id="XMLID_79_" class="st1" d="M118.4,53.5c0.2-0.6-0.1-1.3-0.7-1.5l-28.5-9.4c-0.6-0.2-1.3,0.1-1.5,0.7l-2.3,6.9
	c-0.2,0.6,0.1,1.3,0.7,1.5l7.3,2.4c0.6,0.2,1.6,0.2,2.2,0c0,0,3.1-1.1,5.3-0.4c2.2,0.7,3.9,3.4,3.9,3.4c0.3,0.5,1.1,1.1,1.7,1.3
	l8.1,2.7c0.6,0.2,1.3-0.1,1.5-0.7L118.4,53.5z"/>
<path id="XMLID_78_" class="st1" d="M91.6,34.7c-0.6,0.2-0.9-0.1-0.7-0.7l3.7-11.2c0.2-0.6,0.4-0.6,0.5,0c0,0,0.5,3.4,4.8,5.5
	c2.9,1.5,5.2,0.3,5.6,1.1C105.9,30.1,91.6,34.7,91.6,34.7z"/>
<path id="XMLID_77_" class="st1" d="M90.1,39.7c-0.6-0.2-0.6-0.5,0-0.8l16.7-6.2c0.6-0.2,1.6-0.4,2.2-0.5c0,0,2.1-0.1,2.8,1.9
	c1.5,4.2-4.3,2-4.3,5.6c0,4.7,9.6,1.4,9.6,5.8c0,2-1.5,2.1-1.5,2.1c-0.6,0.1-1.6-0.1-2.2-0.3L90.1,39.7z"/>
<path id="XMLID_76_" class="st2" d="M50.8,76c-0.2-0.6-1-1-1.6-0.9l-13.9,2.1c-0.6,0.1-0.6,0.3,0,0.5l18,5.9
	c0.6,0.2,1.3-0.1,1.5-0.7l0.5-1.4c0.2-0.6,0.1-1.1-0.2-1.2c0,0,0,0-0.3-0.1C52.2,79.4,50.8,76,50.8,76z"/>
<path id="XMLID_75_" class="st2" d="M101.9,68.7c-0.4-0.5-1.3-0.7-1.9-0.5c-0.6,0.2-2.4,0.6-2.6,1.2L90.9,89
	c-0.2,0.6,0.1,1.3,0.7,1.5l12.1,4c0.6,0.2,1.3-0.1,1.5-0.7l5-15.1c0.2-0.6,0-1.5-0.4-1.9L101.9,68.7z"/>
<path id="XMLID_74_" class="st2" d="M69.1,45.9c0.5,0.4,1,0.3,1.2-0.3l3.3-10.1c0.2-0.6,0-1.4-0.5-1.8s-1.3-0.4-1.8-0.1l-7.6,5.6
	c-0.5,0.4-0.5,1-0.1,1.5L69.1,45.9z"/>
<path id="XMLID_73_" class="st2" d="M82.5,49.4c-0.2,0.6-0.9,0.9-1.5,0.7l-6.7-2.2c-0.6-0.2-0.9-0.9-0.7-1.5l4.2-12.8
	c0.2-0.6-0.1-1.2-0.7-1.4l-1-0.3c-0.6-0.2-0.9-0.8-0.7-1.4l2.2-6.7c0.2-0.6,0.6-0.7,1-0.1c0,0,1.4,2.1,3.7,1.7
	c3.6-0.5,1.6-6.3,4.2-5.7c1.4,0.3,4.2,1.3,4.2,1.3c0.6,0.2,0.9,0.9,0.7,1.5L82.5,49.4z"/>
<path id="XMLID_72_" class="st2" d="M51.6,48.3c0.5-0.4,1.4-0.5,2-0.3l6.4,2.4c0.6,0.2,1.5,0.2,2.1-0.1l3-1.4
	c0.6-0.3,1.5-0.3,2.1-0.1L80,53c0.6,0.2,0.9,0.9,0.7,1.5l-2.6,7.8c-0.2,0.6-0.9,0.9-1.5,0.7l-22.3-7.3c-0.6-0.2-1.5-0.7-1.9-1.1
	L49,51.5c-0.5-0.4-0.4-1.1,0.1-1.5L51.6,48.3z"/>
<path id="XMLID_71_" class="st2" d="M77.7,117.5c-0.3-0.3-0.3-0.4-0.4-0.4s-0.2,0.2-0.4,0.4c-0.3,0.3-1.7,1.6-1.7,3
	c0,1.2,1,2.2,2.2,2.2s2.2-1,2.2-2.2C79.5,119.1,78,117.8,77.7,117.5z"/>
<path id="XMLID_70_" class="st2" d="M58.8,68.1c0.2,0.1,0.2,0.1,0.2,0.1c0.2,0.1,0.5-0.3,0.8-0.9l1.6-4.5c0.2-0.6-0.1-1.3-0.7-1.5
	l-5.1-1.8c-0.6-0.2-1,0.1-0.9,0.8l0.9,6.5c0.1,0.6,0.7,1.1,1.3,1.1C56.8,67.8,57.7,67.7,58.8,68.1z"/>
<path id="XMLID_69_" class="st2" d="M75.8,66.1c0.6,0.2,0.9,0.9,0.7,1.5l-4.9,15.1c-0.2,0.6-0.8,0.9-1.4,0.7l-9.9-3.3
	c-0.6-0.2-0.9-0.9-0.7-1.5l5-15.1c0.2-0.6,0.9-0.9,1.4-0.7L75.8,66.1z"/>
<path id="XMLID_68_" class="st2" d="M92.6,65.5c-0.4-0.5-1.2-0.8-1.8-0.7L81,66.9c-0.6,0.1-1.3,0.7-1.5,1.3l-5.1,15.4
	c-0.2,0.6,0.1,1.3,0.7,1.5l11.3,3.7c0.6,0.2,1.3-0.1,1.4-0.7l6.5-19.6c0.2-0.6,0-1.4-0.5-1.8L92.6,65.5z"/>
<path id="XMLID_67_" class="st2" d="M81.8,102.9c0.6,0.2,1.3-0.1,1.5-0.7l2.9-8.9c0.2-0.6-0.1-1.3-0.7-1.5l-11.3-3.7
	c-0.6-0.2-1.3,0.1-1.5,0.7l-2.9,8.9c-0.2,0.6,0.1,1.3,0.7,1.5L81.8,102.9z"/>
<path id="XMLID_66_" class="st2" d="M74.1,109.8c2.1,1.4,2.9,4.4,2.9,4.4c0.2,0.6,0.3,0.6,0.4,0c0,0,0.2-1.6,1.6-2.4
	c1.2-0.7,1.7-1.6,1.7-1.6c0.3-0.5,0.6-1.4,0.8-2l0.2-1c0.1-0.6-0.2-1.2-0.8-1.4l-11.4-3.7c-0.6-0.2-1.2,0.1-1.4,0.7l-1.1,3.3
	c-0.2,0.6,0.1,0.9,0.7,0.8C67.9,106.9,69.5,106.6,74.1,109.8z"/>
<path id="XMLID_65_" class="st2" d="M65.4,97.5c0.6,0.2,1.3-0.1,1.5-0.7l2.9-8.9c0.2-0.6-0.1-1.3-0.7-1.5l-9.9-3.3
	c-0.6-0.2-1.3,0.1-1.4,0.7l-2.9,9c-0.2,0.6,0.1,1.3,0.7,1.4L65.4,97.5z"/>
<path id="XMLID_64_" class="st2" d="M63.2,105.3c0.3,0.6,0.7,0.5,0.9-0.1l1.1-3.4c0.2-0.6-0.1-1.3-0.7-1.5L54.6,97
	c-0.6-0.1-1.3,0.3-1.5,0.9l-1.1,3.3c-0.2,0.6,0.1,0.9,0.7,0.6c0,0,2.6-1.3,5.8-0.3C61.7,102.5,63.2,105.3,63.2,105.3z"/>
<path id="XMLID_63_" class="st2" d="M91.4,58.5c0.2-0.5,0.2-0.5,0.2-0.5c0.3-0.5,0-1.1-0.6-1.3l-5.8-1.9c-0.6-0.2-1.2,0.1-1.4,0.7
	l-2.3,7.1c-0.2,0.6,0.1,1,0.8,0.9l7.8-1.4c0.6-0.1,1.1-0.7,1.1-1.3C91,60.7,91,59.6,91.4,58.5z"/>
<path id="XMLID_62_" class="st2" d="M91.4,93.7c-1-0.3-2.2,0.2-2.5,1.3c0,0-5.4,17.9-5.4,19.9c0,1.5,0.9,3.1,3.1,3.1
	s2.8-2.1,2.9-3.7c0-2.5-1.7-8-0.8-10.6c1.4-4.1,4.6-1,4.6-1c0.8,0.8,1.7,0.5,2.1-0.5l1.5-4.6c0.3-1-0.2-2.2-1.3-2.5L91.4,93.7z"/>
<path id="XMLID_61_" class="st2" d="M52.1,103.9c-0.2-0.2-0.3-0.3-0.3-0.3c-0.1,0-0.2,0.1-0.3,0.3c-0.3,0.2-1.3,1.2-1.3,2.3
	c0,0.9,0.7,1.6,1.6,1.6s1.6-0.7,1.6-1.6C53.4,105.1,52.3,104.1,52.1,103.9z"/>
<path id="XMLID_60_" class="st2" d="M26.4,156.2c-2.2,0-4.4-0.7-5.9-1.8c-0.4-0.3-0.6-0.7-0.6-1.1c0-0.6,0.5-1,1-1
	c0.3,0,0.5,0.1,0.8,0.3c1.4,0.9,2.6,1.5,4.7,1.5c2.6,0,3.9-1.1,3.9-2.5c0-1.7-1.5-2.2-4.5-3.1c-4.4-1.3-5.8-2.7-5.8-5
	c0-3,2.6-4.5,6.4-4.5c1.3,0,2.6,0.2,3.8,0.7c0.8,0.3,2,0.9,2,1.7c0,0.6-0.3,1.1-1,1.1c-0.2,0-0.3,0-0.5-0.1
	c-1.2-0.7-2.6-1.2-4.3-1.2c-2.4,0-4,0.7-4,2.3c0,1.5,1.2,2,4.1,2.9c4,1.2,6.2,2.3,6.2,5.2C32.8,154.1,30.6,156.2,26.4,156.2z"/>
<path id="XMLID_59_" class="st2" d="M47.9,141.5h-4.7v13.4c0,0.7-0.5,1.2-1.2,1.2s-1.2-0.5-1.2-1.2v-13.4h-4.7
	c-0.6,0-1.1-0.5-1.1-1.1c0-0.7,0.5-1.2,1.1-1.2h11.8c0.6,0,1.1,0.5,1.1,1.2C49,141,48.5,141.5,47.9,141.5z"/>
<path id="XMLID_56_" class="st2" d="M63.7,154.5c0.1,0.2,0.1,0.3,0.1,0.5c0,0.6-0.4,1.1-1.1,1.1c-0.6,0-0.9-0.3-1.1-0.7l-1.7-3.7
	h-7.8l-1.7,3.7c-0.2,0.4-0.5,0.7-1.1,0.7c-0.7,0-1.1-0.5-1.1-1.1c0-0.2,0-0.3,0.1-0.5l6.6-14.7c0.2-0.5,0.6-0.7,1.1-0.7
	s0.9,0.2,1.1,0.7L63.7,154.5z M56,142.5l-3,7.1h6.1L56,142.5z"/>
<path id="XMLID_55_" class="st2" d="M76,141.5h-4.7v13.4c0,0.7-0.5,1.2-1.2,1.2s-1.2-0.5-1.2-1.2v-13.4h-4.7c-0.6,0-1.1-0.5-1.1-1.1
	c0-0.7,0.5-1.2,1.1-1.2H76c0.6,0,1.1,0.5,1.1,1.2C77.1,141,76.6,141.5,76,141.5z"/>
<path id="XMLID_54_" class="st2" d="M90.8,155.9h-9.6c-0.7,0-1.2-0.5-1.2-1.2v-14.2c0-0.7,0.5-1.2,1.2-1.2h9.2
	c0.6,0,1.1,0.5,1.1,1.1s-0.5,1.1-1.1,1.1h-8v4.8h4.5c0.6,0,1.1,0.5,1.1,1.1c0,0.7-0.5,1.1-1.1,1.1h-4.5v5.2h8.4
	c0.6,0,1.1,0.4,1.1,1.1C91.9,155.4,91.4,155.9,90.8,155.9z"/>
<path id="XMLID_51_" class="st2" d="M110.2,156.2c-5.1,0-8.4-3.9-8.4-8.6c0-4.7,3.4-8.6,8.4-8.6s8.4,3.9,8.4,8.6
	C118.6,152.3,115.2,156.2,110.2,156.2z M110.2,141.1c-3.9,0-6,3-6,6.4s2.2,6.4,6,6.4s6-3,6-6.4S114,141.1,110.2,141.1z"/>
<path id="XMLID_50_" class="st2" d="M132.8,141.5h-8.1v4.7h4.6c0.6,0,1.1,0.5,1.1,1.1c0,0.7-0.5,1.1-1.1,1.1h-4.6v6.4
	c0,0.7-0.5,1.2-1.2,1.2s-1.2-0.5-1.2-1.2v-14.4c0-0.7,0.5-1.2,1.2-1.2h9.3c0.6,0,1.1,0.4,1.1,1.1C133.9,141,133.4,141.5,132.8,141.5
	z"/>
<path id="XMLID_49_" class="st2" d="M32.9,165.5h-4.6v13.4c0,0.7-0.5,1.2-1.2,1.2s-1.2-0.5-1.2-1.2v-13.4h-4.7
	c-0.6,0-1.1-0.5-1.1-1.1c0-0.7,0.5-1.2,1.1-1.2H33c0.6,0,1.1,0.5,1.1,1.2C34.1,165,33.6,165.5,32.9,165.5z"/>
<path id="XMLID_48_" class="st2" d="M50,180.1c-0.7,0-1.2-0.5-1.2-1.2v-6.4h-9v6.4c0,0.7-0.5,1.2-1.2,1.2s-1.2-0.5-1.2-1.2v-14.6
	c0-0.7,0.5-1.2,1.2-1.2s1.2,0.5,1.2,1.2v5.9h9v-5.9c0-0.7,0.5-1.2,1.2-1.2s1.2,0.5,1.2,1.2v14.6C51.2,179.5,50.7,180.1,50,180.1z"/>
<path id="XMLID_47_" class="st2" d="M66.9,179.9h-9.6c-0.7,0-1.2-0.5-1.2-1.2v-14.2c0-0.7,0.5-1.2,1.2-1.2h9.2
	c0.6,0,1.1,0.5,1.1,1.1s-0.5,1.1-1.1,1.1h-8v4.8H63c0.6,0,1.1,0.5,1.1,1.1c0,0.7-0.5,1.1-1.1,1.1h-4.5v5.2h8.4
	c0.6,0,1.1,0.4,1.1,1.1C68,179.4,67.5,179.9,66.9,179.9z"/>
<path id="XMLID_46_" class="st2" d="M94.5,163.8c0.2-0.5,0.5-0.7,1.1-0.7s1.1,0.4,1.1,1.1v14.7c0,0.6-0.4,1.2-1.1,1.2
	s-1.1-0.5-1.1-1.2v-10.1l-5.2,10.6c-0.2,0.4-0.5,0.7-1,0.7s-0.9-0.3-1-0.7l-5.2-10.6v10.1c0,0.6-0.4,1.2-1.1,1.2s-1.1-0.5-1.1-1.2
	v-14.8c0-0.7,0.5-1.1,1.1-1.1c0.5,0,0.9,0.3,1.1,0.7l6.3,13L94.5,163.8z"/>
<path id="XMLID_43_" class="st2" d="M115.7,178.5c0.1,0.2,0.1,0.3,0.1,0.5c0,0.6-0.4,1.1-1.1,1.1c-0.6,0-0.9-0.3-1.1-0.7l-1.7-3.7
	h-7.8l-1.7,3.7c-0.2,0.4-0.5,0.7-1.1,0.7c-0.8,0-1.1-0.5-1.1-1.1c0-0.2,0-0.3,0.1-0.5l6.6-14.7c0.2-0.5,0.5-0.7,1.1-0.7
	s0.9,0.2,1.1,0.7L115.7,178.5z M108.1,166.5l-3,7.1h6.1L108.1,166.5z"/>
<path id="XMLID_40_" class="st2" d="M120.4,180.1c-0.7,0-1.2-0.5-1.2-1.2v-14.4c0-0.7,0.5-1.2,1.2-1.2h6.3c3.8,0,5.7,2.1,5.7,4.9
	c0,2.9-1.9,4.9-5.7,4.9h-5.2v5.8C121.6,179.5,121.1,180.1,120.4,180.1z M121.6,165.4v5.4h5.6c1.8,0,2.8-1.2,2.8-2.7
	s-0.9-2.8-2.8-2.8h-5.6V165.4z"/>
<path id="XMLID_36_" class="st2" d="M22.9,189.6c1.4,0,2.4,0.6,2.4,1.9c0,0.8-0.5,1.4-1.1,1.6c0.7,0.1,1.6,0.5,1.6,1.7
	c0,1.6-1.2,2.2-2.7,2.2H21c-0.3,0-0.4-0.1-0.4-0.4V190c0-0.3,0.1-0.4,0.4-0.4H22.9z M21.5,192.8H23c1,0,1.4-0.4,1.4-1.2
	c0-0.9-0.6-1.2-1.5-1.2h-1.4V192.8z M21.5,196.3h1.6c0.9,0,1.8-0.2,1.8-1.4c0-1-0.8-1.3-1.7-1.3h-1.7
	C21.5,193.6,21.5,196.3,21.5,196.3z"/>
<path id="XMLID_35_" class="st2" d="M27.6,191.7c0.3,0,0.4,0.1,0.4,0.4v0.6c0.2-0.5,0.8-1.1,1.5-1.1c0.6,0,0.9,0.3,0.9,0.6
	c0,0.2-0.1,0.4-0.2,0.4c-0.1-0.1-0.3-0.3-0.7-0.3c-0.9,0-1.5,0.9-1.5,1.9v2.4c0,0.3-0.1,0.4-0.4,0.4h-0.1c-0.3,0-0.4-0.1-0.4-0.4
	V192C27.1,191.8,27.2,191.7,27.6,191.7L27.6,191.7z"/>
<path id="XMLID_34_" class="st2" d="M31.9,191.7c0.3,0,0.4,0.1,0.4,0.4v2.8c0,1.1,0.5,1.5,1.3,1.5c1.1,0,1.5-1,1.5-1.9V192
	c0-0.3,0.1-0.4,0.4-0.4h0.1c0.3,0,0.4,0.1,0.4,0.4v4.6c0,0.3-0.1,0.4-0.4,0.4h-0.1c-0.3,0-0.4-0.1-0.4-0.4V196c-0.2,0.4-0.9,1-1.7,1
	c-1.2,0-2-0.5-2-2.2v-2.9C31.4,191.8,31.5,191.7,31.9,191.7L31.9,191.7z"/>
<path id="XMLID_33_" class="st2" d="M41.2,192.4c0,0.2-0.2,0.3-0.4,0.4c-0.1-0.2-0.6-0.5-1.2-0.5c-0.7,0-1.2,0.3-1.2,0.7
	s0.2,0.6,1.2,0.9c1.4,0.3,2,0.8,2,1.7c0,1-1,1.6-2.3,1.6c-1.2,0-2-0.3-2-0.9c0-0.3,0.2-0.5,0.4-0.6c0.2,0.4,0.7,0.7,1.7,0.7
	c0.8,0,1.3-0.4,1.3-0.8c0-0.5-0.3-0.7-1.5-1c-1.3-0.3-1.8-0.8-1.8-1.5c0-1.1,1.1-1.6,2.1-1.6C40.7,191.6,41.2,191.9,41.2,192.4z"/>
<path id="XMLID_32_" class="st2" d="M46.3,192.4c0,0.2-0.2,0.3-0.4,0.4c-0.1-0.2-0.6-0.5-1.2-0.5c-0.7,0-1.2,0.3-1.2,0.7
	s0.2,0.6,1.2,0.9c1.4,0.3,2,0.8,2,1.7c0,1-1,1.6-2.3,1.6c-1.2,0-2-0.3-2-0.9c0-0.3,0.2-0.5,0.4-0.6c0.2,0.4,0.7,0.7,1.7,0.7
	c0.8,0,1.3-0.4,1.3-0.8c0-0.5-0.3-0.7-1.5-1c-1.3-0.3-1.8-0.8-1.8-1.5c0-1.1,1.1-1.6,2.1-1.6C45.7,191.6,46.3,191.9,46.3,192.4z"/>
<path id="XMLID_29_" class="st2" d="M52.3,193.4c0,1-0.9,1.6-2.1,1.6c-0.7,0-1.4-0.2-1.7-0.3c0,1.1,0.9,1.8,1.9,1.8
	c0.9,0,1.4-0.4,1.5-0.8c0.2,0,0.5,0.1,0.5,0.4c0,0.5-0.8,1.1-2,1.1c-1.4,0-2.7-0.8-2.7-2.8c0-1.9,1.3-2.8,2.6-2.8
	C51.5,191.6,52.3,192.4,52.3,193.4z M48.4,194c0.3,0.1,0.9,0.3,1.6,0.3c0.9,0,1.4-0.3,1.4-0.9c0-0.5-0.5-1-1.3-1
	C49.1,192.3,48.4,193.2,48.4,194z"/>
<path id="XMLID_28_" class="st2" d="M54.1,189.4c0.3,0,0.4,0.1,0.4,0.4v6.9c0,0.3-0.1,0.4-0.4,0.4H54c-0.3,0-0.4-0.1-0.4-0.4v-6.9
	C53.6,189.5,53.7,189.4,54.1,189.4L54.1,189.4z"/>
<path id="XMLID_27_" class="st2" d="M59.7,192.4c0,0.2-0.2,0.3-0.4,0.4c-0.1-0.2-0.6-0.5-1.2-0.5c-0.7,0-1.2,0.3-1.2,0.7
	s0.2,0.6,1.2,0.9c1.4,0.3,2,0.8,2,1.7c0,1-1,1.6-2.3,1.6c-1.2,0-2-0.3-2-0.9c0-0.3,0.2-0.5,0.4-0.6c0.2,0.4,0.7,0.7,1.7,0.7
	c0.8,0,1.3-0.4,1.3-0.8c0-0.5-0.3-0.7-1.5-1c-1.3-0.3-1.8-0.8-1.8-1.5c0-1.1,1.1-1.6,2.1-1.6C59.2,191.6,59.7,191.9,59.7,192.4z"/>
<path id="XMLID_26_" class="st2" d="M61.9,195.8c0.4,0,0.8,0.3,0.8,0.9c0,0.9-0.6,1.7-1.2,1.7c-0.2,0-0.4-0.1-0.4-0.3
	c0.5-0.1,0.8-0.5,0.8-1.1c0,0-0.1,0-0.3,0c-0.3,0-0.5-0.3-0.5-0.6C61.2,196.1,61.5,195.8,61.9,195.8z"/>
<path id="XMLID_22_" class="st2" d="M70.1,189.6c1.4,0,2.4,0.6,2.4,1.9c0,0.8-0.5,1.4-1.1,1.6c0.7,0.1,1.6,0.5,1.6,1.7
	c0,1.6-1.2,2.2-2.7,2.2h-2.1c-0.3,0-0.4-0.1-0.4-0.4V190c0-0.3,0.1-0.4,0.4-0.4H70.1z M68.7,192.8h1.5c1,0,1.4-0.4,1.4-1.2
	c0-0.9-0.6-1.2-1.5-1.2h-1.4V192.8z M68.7,196.3h1.6c0.9,0,1.8-0.2,1.8-1.4c0-1-0.8-1.3-1.7-1.3h-1.7
	C68.7,193.6,68.7,196.3,68.7,196.3z"/>
<path id="XMLID_19_" class="st2" d="M78.6,193.4c0,1-0.9,1.6-2.1,1.6c-0.7,0-1.4-0.2-1.7-0.3c0,1.1,0.9,1.8,1.9,1.8
	c0.9,0,1.4-0.4,1.5-0.8c0.2,0,0.5,0.1,0.5,0.4c0,0.5-0.8,1.1-2,1.1c-1.4,0-2.7-0.8-2.7-2.8c0-1.9,1.3-2.8,2.6-2.8
	C77.8,191.6,78.6,192.4,78.6,193.4z M74.8,194c0.3,0.1,0.9,0.3,1.6,0.3c0.9,0,1.4-0.3,1.4-0.9c0-0.5-0.5-1-1.3-1
	C75.5,192.3,74.8,193.2,74.8,194z"/>
<path id="XMLID_18_" class="st2" d="M80.5,189.4c0.3,0,0.4,0.1,0.4,0.4v6.9c0,0.3-0.1,0.4-0.4,0.4h-0.1c-0.3,0-0.4-0.1-0.4-0.4v-6.9
	C80,189.5,80.1,189.4,80.5,189.4L80.5,189.4z"/>
<path id="XMLID_15_" class="st2" d="M87.2,191.8c0,0.5-0.5,0.7-0.8,0.8c0.1,0.2,0.2,0.6,0.2,1c0,1.3-1,1.9-2.1,1.9
	c-0.2,0-0.3,0-0.5,0c-0.4,0-0.6,0.2-0.6,0.4c0,0.3,0.3,0.4,0.7,0.4h0.8c1.5,0,2.3,0.4,2.3,1.4s-1.1,1.7-2.6,1.7h-0.3
	c-1.3,0-2.3-0.6-2.3-1.3c0-0.3,0.2-0.5,0.4-0.5c0.1,0.2,0.2,0.3,0.4,0.5c0.4,0.3,0.9,0.5,1.6,0.5h0.1c1.1,0,1.8-0.4,1.8-0.9
	s-0.6-0.7-1.7-0.7c-1.5,0-2.2-0.2-2.2-0.9c0-0.5,0.3-0.7,0.8-0.9c-0.6-0.3-1-0.8-1-1.7c0-1.3,1-2,2.2-2c0.7,0,1.3,0.4,1.5,0.6
	c0.3-0.2,0.4-0.6,0.4-1C86.9,191.2,87.2,191.5,87.2,191.8z M83.2,193.6c0,0.9,0.6,1.3,1.3,1.3c0.7,0,1.3-0.4,1.3-1.3
	s-0.6-1.3-1.3-1.3S83.2,192.6,83.2,193.6z"/>
<path id="XMLID_12_" class="st2" d="M89.6,190.1c0,0.3-0.3,0.6-0.6,0.6c-0.3,0-0.6-0.3-0.6-0.6s0.3-0.6,0.6-0.6
	C89.3,189.5,89.6,189.8,89.6,190.1z M89,191.7c0.3,0,0.4,0.1,0.4,0.4v4.6c0,0.3-0.1,0.4-0.4,0.4h-0.1c-0.3,0-0.4-0.1-0.4-0.4v-4.6
	C88.6,191.8,88.7,191.7,89,191.7L89,191.7z"/>
<path id="XMLID_11_" class="st2" d="M91.6,191.7c0.3,0,0.4,0.1,0.4,0.4v2.8c0,1.1,0.5,1.5,1.3,1.5c1.1,0,1.5-1,1.5-1.9V192
	c0-0.3,0.1-0.4,0.4-0.4h0.1c0.3,0,0.4,0.1,0.4,0.4v4.6c0,0.3-0.1,0.4-0.4,0.4h0c-0.3,0-0.4-0.1-0.4-0.4V196c-0.2,0.4-0.9,1-1.7,1
	c-1.2,0-2-0.5-2-2.2v-2.9C91.1,191.8,91.2,191.7,91.6,191.7L91.6,191.7z"/>
<path id="XMLID_10_" class="st2" d="M97.9,191.7c0.3,0,0.4,0.1,0.4,0.4v0.5c0.3-0.6,0.8-1,1.6-1c0.9,0,1.5,0.5,1.7,1.4
	c0.2-0.9,0.9-1.4,1.7-1.4c1.1,0,1.9,0.6,1.9,2.2v2.9c0,0.3-0.1,0.4-0.4,0.4h-0.1c-0.3,0-0.4-0.1-0.4-0.4v-2.8c0-1.1-0.5-1.5-1.1-1.5
	c-1.2,0-1.4,1-1.4,2.2v2.2c0,0.3-0.1,0.4-0.4,0.4h-0.1c-0.3,0-0.4-0.1-0.4-0.4v-2.9c0-1.1-0.5-1.5-1.2-1.5c-1.2,0-1.4,1.2-1.4,2.1
	v2.2c0,0.3-0.1,0.4-0.4,0.4h-0.1c-0.3,0-0.4-0.1-0.4-0.4v-4.6C97.4,191.8,97.5,191.7,97.9,191.7L97.9,191.7z"/>
<path id="XMLID_9_" class="st2" d="M114.5,191.6c0,1.2-0.9,2-3.6,4.7h3.4c0.3,0,0.5,0.1,0.5,0.4c0,0.3-0.1,0.4-0.5,0.4h-4.1
	c-0.3,0-0.5-0.2-0.5-0.5s0.2-0.5,0.4-0.7c2.8-2.6,3.6-3.5,3.6-4.3s-0.6-1.3-1.6-1.3c-1.1,0-1.5,0.8-1.6,1.4c-0.3,0-0.6-0.1-0.6-0.5
	c0-0.8,0.8-1.7,2.3-1.7C113.8,189.5,114.5,190.5,114.5,191.6z"/>
<path id="XMLID_6_" class="st2" d="M122.1,193.3c0,2.5-1.4,3.8-3.1,3.8c-1.7,0-3.1-1.3-3.1-3.8c0-2.6,1.4-3.8,3.1-3.8
	C120.7,189.5,122.1,190.8,122.1,193.3z M116.9,193.3c0,1.9,0.8,3,2.1,3s2.1-1.1,2.1-3s-1-3-2.1-3
	C117.8,190.4,116.9,191.4,116.9,193.3z"/>
<path id="XMLID_5_" class="st2" d="M125,189.6c0.3,0,0.5,0.1,0.5,0.4v6.7c0,0.3-0.1,0.4-0.5,0.4h-0.1c-0.3,0-0.5-0.1-0.5-0.4v-6.2
	h-0.6c-0.3,0-0.5-0.1-0.5-0.4c0-0.3,0.1-0.4,0.5-0.4h1.2V189.6z"/>
<path id="XMLID_2_" class="st2" d="M132.2,190.7c0,0.3-0.3,0.4-0.5,0.5c-0.2-0.3-0.5-0.8-1.6-0.8c-1.7,0-2.3,1.7-2.3,3.1
	c0.4-0.6,1.3-1,2.2-1c1.8,0,2.5,1,2.5,2.3s-0.8,2.5-2.7,2.5c-2,0-2.9-1.4-2.9-3.4c0-1.9,0.8-4.2,3.3-4.2
	C131.5,189.5,132.2,190.2,132.2,190.7z M127.9,194.6c0,0.7,0.5,1.8,1.9,1.8s1.8-0.8,1.8-1.7s-0.5-1.6-1.8-1.6
	C128.7,193.1,127.9,193.8,127.9,194.6z"/>
</svg>
