<?xml version="1.0" encoding="UTF-8" standalone="no"?>
<!-- Created with Inkscape (http://www.inkscape.org/) -->

<svg
   xmlns:dc="http://purl.org/dc/elements/1.1/"
   xmlns:cc="http://creativecommons.org/ns#"
   xmlns:rdf="http://www.w3.org/1999/02/22-rdf-syntax-ns#"
   xmlns:svg="http://www.w3.org/2000/svg"
   xmlns="http://www.w3.org/2000/svg"
   xmlns:sodipodi="http://sodipodi.sourceforge.net/DTD/sodipodi-0.dtd"
   xmlns:inkscape="http://www.inkscape.org/namespaces/inkscape"
   width="159.42198mm"
   height="274.41098mm"
   viewBox="0 0 159.42198 274.41098"
   version="1.1"
   id="svg10736"
   inkscape:version="0.91 r13725"
   sodipodi:docname="sotm19-bright.svg">
  <defs
     id="defs10730">
    <inkscape:path-effect
       only_selected="false"
       apply_with_weight="true"
       apply_no_weight="true"
       helper_size="0"
       steps="2"
       weight="33.333333"
       is_visible="true"
       id="path-effect9108-9-9"
       effect="bspline" />
    <inkscape:path-effect
       effect="bspline"
       id="path-effect9032-3-8"
       is_visible="true"
       weight="33.333333"
       steps="2"
       helper_size="0"
       apply_no_weight="true"
       apply_with_weight="true"
       only_selected="false" />
    <inkscape:path-effect
       effect="bspline"
       id="path-effect9018-8-4"
       is_visible="true"
       weight="33.333333"
       steps="2"
       helper_size="0"
       apply_no_weight="true"
       apply_with_weight="true"
       only_selected="false" />
    <inkscape:path-effect
       effect="bspline"
       id="path-effect9112-6-5"
       is_visible="true"
       weight="33.333333"
       steps="2"
       helper_size="0"
       apply_no_weight="true"
       apply_with_weight="true"
       only_selected="false" />
    <inkscape:path-effect
       effect="bspline"
       id="path-effect9116-5-7"
       is_visible="true"
       weight="33.333333"
       steps="2"
       helper_size="0"
       apply_no_weight="true"
       apply_with_weight="true"
       only_selected="false" />
    <inkscape:path-effect
       effect="bspline"
       id="path-effect8590-4-9"
       is_visible="true"
       weight="33.333333"
       steps="2"
       helper_size="0"
       apply_no_weight="true"
       apply_with_weight="true"
       only_selected="false" />
    <inkscape:path-effect
       effect="bspline"
       id="path-effect9124-0-7"
       is_visible="true"
       weight="33.333333"
       steps="2"
       helper_size="0"
       apply_no_weight="true"
       apply_with_weight="true"
       only_selected="false" />
    <inkscape:path-effect
       only_selected="false"
       apply_with_weight="true"
       apply_no_weight="true"
       helper_size="0"
       steps="2"
       weight="33.333333"
       is_visible="true"
       id="path-effect9120-2-6"
       effect="bspline" />
    <inkscape:path-effect
       only_selected="false"
       apply_with_weight="true"
       apply_no_weight="true"
       helper_size="0"
       steps="2"
       weight="33.333333"
       is_visible="true"
       id="path-effect8684-9"
       effect="bspline" />
    <inkscape:path-effect
       only_selected="false"
       apply_with_weight="true"
       apply_no_weight="true"
       helper_size="0"
       steps="2"
       weight="33.333333"
       is_visible="true"
       id="path-effect8680-6"
       effect="bspline" />
    <inkscape:path-effect
       effect="bspline"
       id="path-effect8590-8"
       is_visible="true"
       weight="33.333333"
       steps="2"
       helper_size="0"
       apply_no_weight="true"
       apply_with_weight="true"
       only_selected="false" />
    <inkscape:path-effect
       only_selected="false"
       apply_with_weight="true"
       apply_no_weight="true"
       helper_size="0"
       steps="2"
       weight="33.333333"
       is_visible="true"
       id="path-effect8672-4"
       effect="bspline" />
    <inkscape:path-effect
       only_selected="false"
       apply_with_weight="true"
       apply_no_weight="true"
       helper_size="0"
       steps="2"
       weight="33.333333"
       is_visible="true"
       id="path-effect8668-4"
       effect="bspline" />
    <inkscape:path-effect
       only_selected="false"
       apply_with_weight="true"
       apply_no_weight="true"
       helper_size="0"
       steps="2"
       weight="33.333333"
       is_visible="true"
       id="path-effect8664-0"
       effect="bspline" />
    <inkscape:path-effect
       effect="bspline"
       id="path-effect8660-7"
       is_visible="true"
       weight="33.333333"
       steps="2"
       helper_size="0"
       apply_no_weight="true"
       apply_with_weight="true"
       only_selected="false" />
    <inkscape:path-effect
       effect="bspline"
       id="path-effect8197-9"
       is_visible="true"
       weight="33.333333"
       steps="2"
       helper_size="0"
       apply_no_weight="true"
       apply_with_weight="true"
       only_selected="false" />
    <inkscape:path-effect
       effect="bspline"
       id="path-effect10524"
       is_visible="true"
       weight="33.333333"
       steps="2"
       helper_size="0"
       apply_no_weight="true"
       apply_with_weight="true"
       only_selected="false" />
    <inkscape:path-effect
       effect="bspline"
       id="path-effect8550-7"
       is_visible="true"
       weight="33.333333"
       steps="2"
       helper_size="0"
       apply_no_weight="true"
       apply_with_weight="true"
       only_selected="false" />
    <inkscape:path-effect
       only_selected="false"
       apply_with_weight="true"
       apply_no_weight="true"
       helper_size="0"
       steps="2"
       weight="33.333333"
       is_visible="true"
       id="path-effect8201-4"
       effect="bspline" />
    <inkscape:path-effect
       only_selected="false"
       apply_with_weight="true"
       apply_no_weight="true"
       helper_size="0"
       steps="2"
       weight="33.333333"
       is_visible="true"
       id="path-effect8167-0"
       effect="bspline" />
    <inkscape:path-effect
       effect="bspline"
       id="path-effect8159-7"
       is_visible="true"
       weight="33.333333"
       steps="2"
       helper_size="0"
       apply_no_weight="true"
       apply_with_weight="true"
       only_selected="false" />
    <inkscape:path-effect
       effect="bspline"
       id="path-effect8155-7"
       is_visible="true"
       weight="33.333333"
       steps="2"
       helper_size="0"
       apply_no_weight="true"
       apply_with_weight="true"
       only_selected="false" />
    <inkscape:path-effect
       effect="bspline"
       id="path-effect8151-7"
       is_visible="true"
       weight="33.333333"
       steps="2"
       helper_size="0"
       apply_no_weight="true"
       apply_with_weight="true"
       only_selected="false" />
    <inkscape:path-effect
       only_selected="false"
       apply_with_weight="true"
       apply_no_weight="true"
       helper_size="0"
       steps="2"
       weight="33.333333"
       is_visible="true"
       id="path-effect8032-5"
       effect="bspline" />
    <inkscape:path-effect
       effect="bspline"
       id="path-effect10533"
       is_visible="true"
       weight="33.333333"
       steps="2"
       helper_size="0"
       apply_no_weight="true"
       apply_with_weight="true"
       only_selected="false" />
    <inkscape:path-effect
       effect="bspline"
       id="path-effect8134-1"
       is_visible="true"
       weight="33.333333"
       steps="2"
       helper_size="0"
       apply_no_weight="true"
       apply_with_weight="true"
       only_selected="false" />
    <inkscape:path-effect
       only_selected="false"
       apply_with_weight="true"
       apply_no_weight="true"
       helper_size="0"
       steps="2"
       weight="33.333333"
       is_visible="true"
       id="path-effect8008-2"
       effect="bspline" />
    <inkscape:path-effect
       only_selected="false"
       apply_with_weight="true"
       apply_no_weight="true"
       helper_size="0"
       steps="2"
       weight="33.333333"
       is_visible="true"
       id="path-effect8004-4"
       effect="bspline" />
    <inkscape:path-effect
       only_selected="false"
       apply_with_weight="true"
       apply_no_weight="true"
       helper_size="0"
       steps="2"
       weight="33.333333"
       is_visible="true"
       id="path-effect8143-8"
       effect="bspline" />
    <inkscape:path-effect
       only_selected="false"
       apply_with_weight="true"
       apply_no_weight="true"
       helper_size="0"
       steps="2"
       weight="33.333333"
       is_visible="true"
       id="path-effect9108"
       effect="bspline" />
    <inkscape:path-effect
       effect="bspline"
       id="path-effect9032"
       is_visible="true"
       weight="33.333333"
       steps="2"
       helper_size="0"
       apply_no_weight="true"
       apply_with_weight="true"
       only_selected="false" />
    <inkscape:path-effect
       effect="bspline"
       id="path-effect9018"
       is_visible="true"
       weight="33.333333"
       steps="2"
       helper_size="0"
       apply_no_weight="true"
       apply_with_weight="true"
       only_selected="false" />
    <inkscape:path-effect
       effect="bspline"
       id="path-effect9112"
       is_visible="true"
       weight="33.333333"
       steps="2"
       helper_size="0"
       apply_no_weight="true"
       apply_with_weight="true"
       only_selected="false" />
    <inkscape:path-effect
       effect="bspline"
       id="path-effect9116"
       is_visible="true"
       weight="33.333333"
       steps="2"
       helper_size="0"
       apply_no_weight="true"
       apply_with_weight="true"
       only_selected="false" />
    <inkscape:path-effect
       effect="bspline"
       id="path-effect8590"
       is_visible="true"
       weight="33.333333"
       steps="2"
       helper_size="0"
       apply_no_weight="true"
       apply_with_weight="true"
       only_selected="false" />
    <inkscape:path-effect
       effect="bspline"
       id="path-effect9124"
       is_visible="true"
       weight="33.333333"
       steps="2"
       helper_size="0"
       apply_no_weight="true"
       apply_with_weight="true"
       only_selected="false" />
    <inkscape:path-effect
       only_selected="false"
       apply_with_weight="true"
       apply_no_weight="true"
       helper_size="0"
       steps="2"
       weight="33.333333"
       is_visible="true"
       id="path-effect9120"
       effect="bspline" />
    <inkscape:path-effect
       only_selected="false"
       apply_with_weight="true"
       apply_no_weight="true"
       helper_size="0"
       steps="2"
       weight="33.333333"
       is_visible="true"
       id="path-effect10547"
       effect="bspline" />
    <inkscape:path-effect
       effect="bspline"
       id="path-effect10549"
       is_visible="true"
       weight="33.333333"
       steps="2"
       helper_size="0"
       apply_no_weight="true"
       apply_with_weight="true"
       only_selected="false" />
    <inkscape:path-effect
       effect="bspline"
       id="path-effect10551"
       is_visible="true"
       weight="33.333333"
       steps="2"
       helper_size="0"
       apply_no_weight="true"
       apply_with_weight="true"
       only_selected="false" />
    <inkscape:path-effect
       effect="bspline"
       id="path-effect10553"
       is_visible="true"
       weight="33.333333"
       steps="2"
       helper_size="0"
       apply_no_weight="true"
       apply_with_weight="true"
       only_selected="false" />
    <inkscape:path-effect
       effect="bspline"
       id="path-effect10555"
       is_visible="true"
       weight="33.333333"
       steps="2"
       helper_size="0"
       apply_no_weight="true"
       apply_with_weight="true"
       only_selected="false" />
    <inkscape:path-effect
       effect="bspline"
       id="path-effect10557"
       is_visible="true"
       weight="33.333333"
       steps="2"
       helper_size="0"
       apply_no_weight="true"
       apply_with_weight="true"
       only_selected="false" />
    <inkscape:path-effect
       effect="bspline"
       id="path-effect10559"
       is_visible="true"
       weight="33.333333"
       steps="2"
       helper_size="0"
       apply_no_weight="true"
       apply_with_weight="true"
       only_selected="false" />
    <inkscape:path-effect
       only_selected="false"
       apply_with_weight="true"
       apply_no_weight="true"
       helper_size="0"
       steps="2"
       weight="33.333333"
       is_visible="true"
       id="path-effect10561"
       effect="bspline" />
    <inkscape:path-effect
       only_selected="false"
       apply_with_weight="true"
       apply_no_weight="true"
       helper_size="0"
       steps="2"
       weight="33.333333"
       is_visible="true"
       id="path-effect9108-9"
       effect="bspline" />
    <inkscape:path-effect
       effect="bspline"
       id="path-effect9032-7"
       is_visible="true"
       weight="33.333333"
       steps="2"
       helper_size="0"
       apply_no_weight="true"
       apply_with_weight="true"
       only_selected="false" />
    <inkscape:path-effect
       effect="bspline"
       id="path-effect9018-3"
       is_visible="true"
       weight="33.333333"
       steps="2"
       helper_size="0"
       apply_no_weight="true"
       apply_with_weight="true"
       only_selected="false" />
    <inkscape:path-effect
       effect="bspline"
       id="path-effect9112-6"
       is_visible="true"
       weight="33.333333"
       steps="2"
       helper_size="0"
       apply_no_weight="true"
       apply_with_weight="true"
       only_selected="false" />
    <inkscape:path-effect
       effect="bspline"
       id="path-effect9116-1"
       is_visible="true"
       weight="33.333333"
       steps="2"
       helper_size="0"
       apply_no_weight="true"
       apply_with_weight="true"
       only_selected="false" />
    <inkscape:path-effect
       effect="bspline"
       id="path-effect8590-2"
       is_visible="true"
       weight="33.333333"
       steps="2"
       helper_size="0"
       apply_no_weight="true"
       apply_with_weight="true"
       only_selected="false" />
    <inkscape:path-effect
       effect="bspline"
       id="path-effect9124-9"
       is_visible="true"
       weight="33.333333"
       steps="2"
       helper_size="0"
       apply_no_weight="true"
       apply_with_weight="true"
       only_selected="false" />
    <inkscape:path-effect
       only_selected="false"
       apply_with_weight="true"
       apply_no_weight="true"
       helper_size="0"
       steps="2"
       weight="33.333333"
       is_visible="true"
       id="path-effect9120-3"
       effect="bspline" />
  </defs>
  <sodipodi:namedview
     id="base"
     pagecolor="#ffffff"
     bordercolor="#666666"
     borderopacity="1.0"
     inkscape:pageopacity="0.0"
     inkscape:pageshadow="2"
     inkscape:zoom="0.35"
     inkscape:cx="98.067722"
     inkscape:cy="424.52733"
     inkscape:document-units="mm"
     inkscape:current-layer="layer1"
     showgrid="false"
     fit-margin-top="0"
     fit-margin-left="0"
     fit-margin-right="0"
     fit-margin-bottom="0"
     inkscape:window-width="1920"
     inkscape:window-height="1031"
     inkscape:window-x="0"
     inkscape:window-y="25"
     inkscape:window-maximized="1"
     showguides="true" />
  <metadata
     id="metadata10733">
    <rdf:RDF>
      <cc:Work
         rdf:about="">
        <dc:format>image/svg+xml</dc:format>
        <dc:type
           rdf:resource="http://purl.org/dc/dcmitype/StillImage" />
        <dc:title></dc:title>
      </cc:Work>
    </rdf:RDF>
  </metadata>
  <g
     inkscape:label="Ebene 1"
     inkscape:groupmode="layer"
     id="layer1"
     transform="translate(125.81587,104.90176)">
    <rect
       ry="12.354167"
       y="-104.90176"
       x="-125.81589"
       height="274.41098"
       width="159.422"
       id="rect1974-3"
       style="display:inline;opacity:1;fill:#f5f0ea;fill-opacity:1;stroke:none;stroke-width:1;stroke-linecap:butt;stroke-linejoin:miter;stroke-miterlimit:4;stroke-dasharray:none;stroke-dashoffset:0;stroke-opacity:1"
       rx="15"
       inkscape:export-xdpi="90"
       inkscape:export-ydpi="90" />
    <g
       transform="matrix(0.26458333,0,0,0.26458333,458.87281,-361.08736)"
       style="font-style:normal;font-variant:normal;font-weight:600;font-stretch:normal;font-size:85.33333588px;line-height:1;font-family:Barlow;-inkscape-font-specification:'Barlow, Semi-Bold';text-align:center;letter-spacing:0px;word-spacing:0px;writing-mode:lr-tb;text-anchor:middle;fill:#9b2321;fill-opacity:1;stroke:none;stroke-width:1px;stroke-linecap:butt;stroke-linejoin:miter;stroke-opacity:1"
       id="flowRoot2036-2">
      <path
         d="m -2065.8505,1097.1707 q -6.8266,0 -11.9466,-2.1333 -5.12,-2.2187 -7.936,-6.2293 -2.7307,-4.096 -2.7307,-9.472 l 0,-1.8774 q 0,-0.4266 0.256,-0.6826 0.3413,-0.3414 0.768,-0.3414 l 9.728,0 q 0.4267,0 0.6827,0.3414 0.3413,0.256 0.3413,0.6826 l 0,1.28 q 0,3.4134 3.1573,5.8027 3.1574,2.304 8.5334,2.304 4.5226,0 6.7413,-1.8773 2.2187,-1.9627 2.2187,-4.7787 0,-2.048 -1.3654,-3.4133 -1.3653,-1.4507 -3.7546,-2.4747 -2.304,-1.1093 -7.424,-2.9867 -5.7174,-1.9626 -9.728,-4.0106 -3.9254,-2.048 -6.656,-5.5467 -2.6454,-3.584 -2.6454,-8.7893 0,-5.12 2.6454,-8.96 2.6453,-3.84 7.3386,-5.888 4.6934,-2.048 10.8374,-2.048 6.4853,0 11.52,2.304 5.12,2.304 7.936,6.4853 2.9013,4.096 2.9013,9.5573 l 0,1.28 q 0,0.4267 -0.3413,0.768 -0.256,0.256 -0.6827,0.256 l -9.8133,0 q -0.4267,0 -0.768,-0.256 -0.256,-0.3413 -0.256,-0.768 l 0,-0.6826 q 0,-3.584 -2.9867,-6.0587 -2.9013,-2.56 -8.0213,-2.56 -4.0107,0 -6.3147,1.7067 -2.2187,1.7066 -2.2187,4.6933 0,2.1333 1.28,3.584 1.3654,1.4507 3.9254,2.6453 2.6453,1.1094 8.1066,3.072 6.0587,2.2187 9.472,3.9254 3.4987,1.7066 6.2294,5.12 2.816,3.328 2.816,8.704 0,8.0213 -5.888,12.7146 -5.888,4.608 -15.9574,4.608 z"
         style="font-style:normal;font-variant:normal;font-weight:600;font-stretch:normal;font-size:85.33333588px;font-family:Barlow;-inkscape-font-specification:'Barlow, Semi-Bold';text-align:center;letter-spacing:0px;writing-mode:lr-tb;text-anchor:middle;fill:#9b2321;fill-opacity:1"
         id="path4257"
         inkscape:connector-curvature="0" />
      <path
         d="m -1994.9478,1036.7547 q 0.4267,0 0.6827,0.3414 0.3413,0.256 0.3413,0.6826 l 0,8.3627 q 0,0.4267 -0.3413,0.768 -0.256,0.256 -0.6827,0.256 l -15.2747,0 q -0.4266,0 -0.4266,0.4267 l 0,47.872 q 0,0.4266 -0.3414,0.768 -0.256,0.256 -0.6826,0.256 l -9.984,0 q -0.4267,0 -0.768,-0.256 -0.256,-0.3414 -0.256,-0.768 l 0,-47.872 q 0,-0.4267 -0.4267,-0.4267 l -14.848,0 q -0.4267,0 -0.768,-0.256 -0.256,-0.3413 -0.256,-0.768 l 0,-8.3627 q 0,-0.4266 0.256,-0.6826 0.3413,-0.3414 0.768,-0.3414 l 43.008,0 z"
         style="font-style:normal;font-variant:normal;font-weight:600;font-stretch:normal;font-size:85.33333588px;font-family:Barlow;-inkscape-font-specification:'Barlow, Semi-Bold';text-align:center;letter-spacing:0px;writing-mode:lr-tb;text-anchor:middle;fill:#9b2321;fill-opacity:1"
         id="path4259"
         inkscape:connector-curvature="0" />
      <path
         d="m -1953.6905,1096.4881 q -0.8533,0 -1.1093,-0.8534 l -2.56,-8.3626 q -0.1707,-0.3414 -0.4267,-0.3414 l -20.992,0 q -0.256,0 -0.4266,0.3414 l -2.4747,8.3626 q -0.256,0.8534 -1.1093,0.8534 l -10.8374,0 q -0.512,0 -0.768,-0.256 -0.256,-0.3414 -0.085,-0.9387 l 18.432,-57.6853 q 0.256,-0.8534 1.1093,-0.8534 l 13.3974,0 q 0.8533,0 1.1093,0.8534 l 18.432,57.6853 q 0.085,0.1707 0.085,0.4267 0,0.768 -0.9386,0.768 l -10.8374,0 z m -22.4426,-19.3707 q -0.085,0.512 0.3413,0.512 l 15.0187,0 q 0.512,0 0.3413,-0.512 l -7.68,-25.344 q -0.085,-0.3413 -0.256,-0.256 -0.1707,0 -0.256,0.256 l -7.5093,25.344 z"
         style="font-style:normal;font-variant:normal;font-weight:600;font-stretch:normal;font-size:85.33333588px;font-family:Barlow;-inkscape-font-specification:'Barlow, Semi-Bold';text-align:center;letter-spacing:0px;writing-mode:lr-tb;text-anchor:middle;fill:#9b2321;fill-opacity:1"
         id="path4261"
         inkscape:connector-curvature="0" />
      <path
         d="m -1900.4478,1036.7547 q 0.4267,0 0.6827,0.3414 0.3413,0.256 0.3413,0.6826 l 0,8.3627 q 0,0.4267 -0.3413,0.768 -0.256,0.256 -0.6827,0.256 l -15.2747,0 q -0.4266,0 -0.4266,0.4267 l 0,47.872 q 0,0.4266 -0.3414,0.768 -0.256,0.256 -0.6826,0.256 l -9.984,0 q -0.4267,0 -0.768,-0.256 -0.256,-0.3414 -0.256,-0.768 l 0,-47.872 q 0,-0.4267 -0.4267,-0.4267 l -14.848,0 q -0.4267,0 -0.768,-0.256 -0.256,-0.3413 -0.256,-0.768 l 0,-8.3627 q 0,-0.4266 0.256,-0.6826 0.3413,-0.3414 0.768,-0.3414 l 43.008,0 z"
         style="font-style:normal;font-variant:normal;font-weight:600;font-stretch:normal;font-size:85.33333588px;font-family:Barlow;-inkscape-font-specification:'Barlow, Semi-Bold';text-align:center;letter-spacing:0px;writing-mode:lr-tb;text-anchor:middle;fill:#9b2321;fill-opacity:1"
         id="path4263"
         inkscape:connector-curvature="0" />
      <path
         d="m -1850.1918,1046.0561 q 0,0.4266 -0.3413,0.768 -0.256,0.256 -0.6827,0.256 l -27.9893,0 q -0.4267,0 -0.4267,0.4266 l 0,13.2267 q 0,0.4267 0.4267,0.4267 l 18.3466,0 q 0.4267,0 0.6827,0.3413 0.3413,0.256 0.3413,0.6827 l 0,8.2773 q 0,0.4267 -0.3413,0.768 -0.256,0.256 -0.6827,0.256 l -18.3466,0 q -0.4267,0 -0.4267,0.4267 l 0,13.824 q 0,0.4266 0.4267,0.4266 l 27.9893,0 q 0.4267,0 0.6827,0.3414 0.3413,0.256 0.3413,0.6826 l 0,8.2774 q 0,0.4266 -0.3413,0.768 -0.256,0.256 -0.6827,0.256 l -39.424,0 q -0.4267,0 -0.768,-0.256 -0.256,-0.3414 -0.256,-0.768 l 0,-57.6854 q 0,-0.4266 0.256,-0.6826 0.3413,-0.3414 0.768,-0.3414 l 39.424,0 q 0.4267,0 0.6827,0.3414 0.3413,0.256 0.3413,0.6826 l 0,8.2774 z"
         style="font-style:normal;font-variant:normal;font-weight:600;font-stretch:normal;font-size:85.33333588px;font-family:Barlow;-inkscape-font-specification:'Barlow, Semi-Bold';text-align:center;letter-spacing:0px;writing-mode:lr-tb;text-anchor:middle;fill:#9b2321;fill-opacity:1"
         id="path4265"
         inkscape:connector-curvature="0" />
      <path
         d="m -1803.5825,1097.4267 q -6.656,0 -11.776,-2.7306 -5.0346,-2.7307 -7.8506,-7.5947 -2.816,-4.9493 -2.816,-11.3493 l 0,-18.2614 q 0,-6.3146 2.816,-11.1786 2.816,-4.864 7.8506,-7.5094 5.12,-2.7306 11.776,-2.7306 6.7414,0 11.776,2.7306 5.12,2.6454 7.936,7.5094 2.816,4.864 2.816,11.1786 l 0,18.2614 q 0,6.4 -2.816,11.3493 -2.816,4.9493 -7.936,7.68 -5.0346,2.6453 -11.776,2.6453 z m 0,-10.3253 q 4.6934,0 7.5947,-2.9867 2.9013,-2.9866 2.9013,-7.936 l 0,-18.7733 q 0,-4.9493 -2.9013,-7.936 -2.816,-3.072 -7.5947,-3.072 -4.6933,0 -7.5946,3.072 -2.816,2.9867 -2.816,7.936 l 0,18.7733 q 0,4.9494 2.816,7.936 2.9013,2.9867 7.5946,2.9867 z"
         style="font-style:normal;font-variant:normal;font-weight:600;font-stretch:normal;font-size:85.33333588px;font-family:Barlow;-inkscape-font-specification:'Barlow, Semi-Bold';text-align:center;letter-spacing:0px;writing-mode:lr-tb;text-anchor:middle;fill:#9b2321;fill-opacity:1"
         id="path4267"
         inkscape:connector-curvature="0" />
      <path
         d="m -1730.4438,1046.0561 q 0,0.4266 -0.3413,0.768 -0.256,0.256 -0.6827,0.256 l -27.904,0 q -0.4267,0 -0.4267,0.4266 l 0,13.2267 q 0,0.4267 0.4267,0.4267 l 18.3467,0 q 0.4266,0 0.6826,0.3413 0.3414,0.256 0.3414,0.6827 l 0,8.2773 q 0,0.4267 -0.3414,0.768 -0.256,0.256 -0.6826,0.256 l -18.3467,0 q -0.4267,0 -0.4267,0.4267 l 0,23.552 q 0,0.4266 -0.3413,0.768 -0.256,0.256 -0.6827,0.256 l -9.984,0 q -0.4266,0 -0.768,-0.256 -0.256,-0.3414 -0.256,-0.768 l 0,-57.6854 q 0,-0.4266 0.256,-0.6826 0.3414,-0.3414 0.768,-0.3414 l 39.3387,0 q 0.4267,0 0.6827,0.3414 0.3413,0.256 0.3413,0.6826 l 0,8.2774 z"
         style="font-style:normal;font-variant:normal;font-weight:600;font-stretch:normal;font-size:85.33333588px;font-family:Barlow;-inkscape-font-specification:'Barlow, Semi-Bold';text-align:center;letter-spacing:0px;writing-mode:lr-tb;text-anchor:middle;fill:#9b2321;fill-opacity:1"
         id="path4269"
         inkscape:connector-curvature="0" />
      <path
         d="m -2038.3345,1122.0881 q 0.4267,0 0.6827,0.3413 0.3413,0.256 0.3413,0.6827 l 0,8.3627 q 0,0.4266 -0.3413,0.768 -0.256,0.256 -0.6827,0.256 l -15.2746,0 q -0.4267,0 -0.4267,0.4266 l 0,47.872 q 0,0.4267 -0.3413,0.768 -0.256,0.256 -0.6827,0.256 l -9.984,0 q -0.4267,0 -0.768,-0.256 -0.256,-0.3413 -0.256,-0.768 l 0,-47.872 q 0,-0.4266 -0.4267,-0.4266 l -14.848,0 q -0.4266,0 -0.768,-0.256 -0.256,-0.3414 -0.256,-0.768 l 0,-8.3627 q 0,-0.4267 0.256,-0.6827 0.3414,-0.3413 0.768,-0.3413 l 43.008,0 z"
         style="letter-spacing:1.49000001px"
         id="path4271"
         inkscape:connector-curvature="0" />
      <path
         d="m -1996.3165,1123.1121 q 0,-0.4267 0.256,-0.6827 0.3414,-0.3413 0.768,-0.3413 l 9.984,0 q 0.4267,0 0.6827,0.3413 0.3413,0.256 0.3413,0.6827 l 0,57.6853 q 0,0.4267 -0.3413,0.768 -0.256,0.256 -0.6827,0.256 l -9.984,0 q -0.4266,0 -0.768,-0.256 -0.256,-0.3413 -0.256,-0.768 l 0,-23.552 q 0,-0.4266 -0.4266,-0.4266 l -18.8587,0 q -0.4267,0 -0.4267,0.4266 l 0,23.552 q 0,0.4267 -0.3413,0.768 -0.256,0.256 -0.6827,0.256 l -9.984,0 q -0.4266,0 -0.768,-0.256 -0.256,-0.3413 -0.256,-0.768 l 0,-57.6853 q 0,-0.4267 0.256,-0.6827 0.3414,-0.3413 0.768,-0.3413 l 9.984,0 q 0.4267,0 0.6827,0.3413 0.3413,0.256 0.3413,0.6827 l 0,22.9547 q 0,0.4266 0.4267,0.4266 l 18.8587,0 q 0.4266,0 0.4266,-0.4266 l 0,-22.9547 z"
         style="letter-spacing:1.49000001px"
         id="path4273"
         inkscape:connector-curvature="0" />
      <path
         d="m -1931.4318,1131.3894 q 0,0.4267 -0.3413,0.768 -0.256,0.256 -0.6827,0.256 l -27.9893,0 q -0.4267,0 -0.4267,0.4267 l 0,13.2267 q 0,0.4266 0.4267,0.4266 l 18.3466,0 q 0.4267,0 0.6827,0.3414 0.3413,0.256 0.3413,0.6826 l 0,8.2774 q 0,0.4266 -0.3413,0.768 -0.256,0.256 -0.6827,0.256 l -18.3466,0 q -0.4267,0 -0.4267,0.4266 l 0,13.824 q 0,0.4267 0.4267,0.4267 l 27.9893,0 q 0.4267,0 0.6827,0.3413 0.3413,0.256 0.3413,0.6827 l 0,8.2773 q 0,0.4267 -0.3413,0.768 -0.256,0.256 -0.6827,0.256 l -39.424,0 q -0.4267,0 -0.768,-0.256 -0.256,-0.3413 -0.256,-0.768 l 0,-57.6853 q 0,-0.4267 0.256,-0.6827 0.3413,-0.3413 0.768,-0.3413 l 39.424,0 q 0.4267,0 0.6827,0.3413 0.3413,0.256 0.3413,0.6827 l 0,8.2773 z"
         style="letter-spacing:1.49000001px"
         id="path4275"
         inkscape:connector-curvature="0" />
      <path
         d="m -1864.6905,1122.7708 q 0.4267,-0.6827 1.1947,-0.6827 l 9.984,0 q 0.4267,0 0.6827,0.3413 0.3413,0.256 0.3413,0.6827 l 0,57.6853 q 0,0.4267 -0.3413,0.768 -0.256,0.256 -0.6827,0.256 l -9.984,0 q -0.4267,0 -0.768,-0.256 -0.256,-0.3413 -0.256,-0.768 l 0,-37.632 q 0,-0.3413 -0.1707,-0.3413 -0.1706,0 -0.3413,0.256 l -9.0453,14.1653 q -0.4267,0.6827 -1.1947,0.6827 l -5.0347,0 q -0.768,0 -1.1946,-0.6827 l -9.0454,-14.1653 q -0.1706,-0.256 -0.3413,-0.1707 -0.1707,0 -0.1707,0.3414 l 0,37.5466 q 0,0.4267 -0.3413,0.768 -0.256,0.256 -0.6827,0.256 l -9.984,0 q -0.4266,0 -0.768,-0.256 -0.256,-0.3413 -0.256,-0.768 l 0,-57.6853 q 0,-0.4267 0.256,-0.6827 0.3414,-0.3413 0.768,-0.3413 l 9.984,0 q 0.768,0 1.1947,0.6827 l 12.8,19.8826 q 0.256,0.512 0.512,0 l 12.8853,-19.8826 z"
         style="letter-spacing:1.49000001px"
         id="path4277"
         inkscape:connector-curvature="0" />
      <path
         d="m -1802.6271,1181.8214 q -0.8534,0 -1.1094,-0.8533 l -2.56,-8.3627 q -0.1706,-0.3413 -0.4266,-0.3413 l -20.992,0 q -0.256,0 -0.4267,0.3413 l -2.4747,8.3627 q -0.256,0.8533 -1.1093,0.8533 l -10.8373,0 q -0.512,0 -0.768,-0.256 -0.256,-0.3413 -0.085,-0.9386 l 18.432,-57.6854 q 0.256,-0.8533 1.1094,-0.8533 l 13.3973,0 q 0.8533,0 1.1093,0.8533 l 18.432,57.6854 q 0.085,0.1706 0.085,0.4266 0,0.768 -0.9387,0.768 l -10.8373,0 z m -22.4427,-19.3706 q -0.085,0.512 0.3413,0.512 l 15.0187,0 q 0.512,0 0.3413,-0.512 l -7.68,-25.344 q -0.085,-0.3414 -0.256,-0.256 -0.1706,0 -0.256,0.256 l -7.5093,25.344 z"
         style="letter-spacing:1.49000001px"
         id="path4279"
         inkscape:connector-curvature="0" />
      <path
         d="m -1757.1158,1122.0028 q 5.632,0 9.8987,2.304 4.2666,2.304 6.5706,6.5706 2.3894,4.1814 2.3894,9.6427 0,5.376 -2.4747,9.472 -2.3893,4.096 -6.8267,6.4 -4.352,2.2187 -10.0693,2.2187 l -12.1173,0 q -0.4267,0 -0.4267,0.4266 l 0,21.76 q 0,0.4267 -0.3413,0.768 -0.256,0.256 -0.6827,0.256 l -9.984,0 q -0.4267,0 -0.768,-0.256 -0.256,-0.3413 -0.256,-0.768 l 0,-57.7706 q 0,-0.4267 0.256,-0.6827 0.3413,-0.3413 0.768,-0.3413 l 24.064,0 z m -1.792,26.9653 q 3.9253,0 6.3147,-2.2187 2.3893,-2.304 2.3893,-5.9733 0,-3.7547 -2.3893,-6.0587 -2.3894,-2.304 -6.3147,-2.304 l -10.8373,0 q -0.4267,0 -0.4267,0.4267 l 0,15.7013 q 0,0.4267 0.4267,0.4267 l 10.8373,0 z"
         style="letter-spacing:1.49000001px"
         id="path4281"
         inkscape:connector-curvature="0" />
    </g>
    <g
       id="g13015"
       transform="translate(0,-20.692392)"
       inkscape:export-xdpi="90"
       inkscape:export-ydpi="90">
      <path
         inkscape:transform-center-y="-1.1226847e-06"
         sodipodi:type="star"
         style="opacity:1;fill:#9b2321;fill-opacity:1;stroke:none;stroke-width:0.1;stroke-linecap:butt;stroke-linejoin:miter;stroke-miterlimit:4;stroke-dasharray:none;stroke-dashoffset:0;stroke-opacity:1"
         id="path8760"
         sodipodi:sides="6"
         sodipodi:cx="-46.104919"
         sodipodi:cy="57.758629"
         sodipodi:r1="70.384811"
         sodipodi:r2="60.955032"
         sodipodi:arg1="0.52359878"
         sodipodi:arg2="1.0471976"
         inkscape:flatsided="true"
         inkscape:rounded="0"
         inkscape:randomized="0"
         d="m 14.850115,92.951035 -60.955035,35.192405 -60.95503,-35.192406 0,-70.384811 60.955031,-35.192406 60.955034,35.192406 z"
         inkscape:export-filename="D:\heiBOX\unlocked collection\projects\SotM2019_Heidelberg\outreach\Logo\simplified_v1.png"
         inkscape:export-xdpi="90"
         inkscape:export-ydpi="90" />
      <path
         d="m 164.5205,180.24598 -60.95503,35.19241 -60.955037,-35.19241 0,-70.38481 60.955037,-35.192408 60.95503,35.192408 z"
         inkscape:randomized="0"
         inkscape:rounded="0"
         inkscape:flatsided="true"
         sodipodi:arg2="1.0471976"
         sodipodi:arg1="0.52359878"
         sodipodi:r2="60.955032"
         sodipodi:r1="70.384811"
         sodipodi:cy="145.05357"
         sodipodi:cx="103.56547"
         sodipodi:sides="6"
         id="path8762"
         style="opacity:1;fill:#59191f;fill-opacity:1;stroke:#f5f0ea;stroke-width:3.47394705;stroke-linecap:butt;stroke-linejoin:miter;stroke-miterlimit:4;stroke-dasharray:none;stroke-dashoffset:0;stroke-opacity:1"
         sodipodi:type="star"
         transform="matrix(0.86332936,0,0,0.86381273,-135.516,-67.540465)"
         inkscape:export-filename="D:\heiBOX\unlocked collection\projects\SotM2019_Heidelberg\outreach\Logo\simplified_v1.png"
         inkscape:export-xdpi="90"
         inkscape:export-ydpi="90" />
      <g
         transform="matrix(1.0916096,0,0,1.0916096,-1571.6748,-75.815772)"
         id="g9198">
        <path
           inkscape:original-d="m 1372.7228,142.39114 0.6087,-10.82467 c 0,0 11.8101,1.30223 17.7146,1.95373 4.1125,-1.94296 12.3376,-5.82842 12.3376,-5.82842 l 14.554,-4.60954 1.4811,6.35009 -6.4303,11.68725 c 0,0 -12.2897,3.63275 -18.4349,5.44952 -7.2771,-1.393 -21.8308,-4.17796 -21.8308,-4.17796 z"
           inkscape:connector-curvature="0"
           id="path9106"
           d="m 1372.7228,142.39114 c 0,0 0.6087,-10.82467 0.6087,-10.82467 5.9049,0.65124 11.8101,1.30252 16.8186,0.65672 5.0086,-0.64581 9.1211,-2.5886 13.2336,-4.53141 0,0 14.554,-4.60954 14.554,-4.60954 0,0 1.4811,6.35009 1.4811,6.35009 0,0 -6.4303,11.68725 -6.4303,11.68725 -6.145,1.81651 -12.2896,3.63293 -19.0009,3.84488 -6.7112,0.21194 -13.9879,-1.18067 -21.2648,-2.57332 z"
           style="opacity:1;fill:#f5f0ea;fill-opacity:1;fill-rule:evenodd;stroke:#59191f;stroke-width:1;stroke-linecap:butt;stroke-linejoin:miter;stroke-miterlimit:4;stroke-dasharray:none;stroke-dashoffset:0;stroke-opacity:1"
           sodipodi:nodetypes="ccccccccc" />
        <path
           id="path8904"
           style="opacity:1;fill:#f5f0ea;fill-opacity:1;fill-rule:evenodd;stroke:#59191f;stroke-width:1.00035763;stroke-linecap:butt;stroke-linejoin:bevel;stroke-miterlimit:4;stroke-dasharray:none;stroke-dashoffset:0;stroke-opacity:1"
           inkscape:original-d="m 1417.1214,108.20881 c 7.0481,4.7097 14.0959,9.41979 21.1432,14.13025 -3.4616,9.22041 -7.5558,20.12516 -10.3859,27.66278 3.0948,0.18198 7.5719,0.44561 11.3575,0.66878 -1.2886,0.41166 -3.8666,1.23572 -3.8666,1.23572 0,0 -8.1425,0.25706 -12.216,0.38601 1.6446,-0.8281 4.9316,-2.48284 4.9316,-2.48284 0,0 -1.1615,-12.92157 -1.8128,-19.3827 -0.6038,-0.88354 -1.8127,-2.64944 -1.8127,-2.64944 0,0 0.7984,1.5568 1.197,2.33579 0.1799,0.88254 0.5384,2.64878 0.5384,2.64878 0,0 -1.7146,2.62666 -2.5721,3.93984 -1.467,0.71885 -4.4023,2.15774 -4.4023,2.15774 l -2.0739,-12.21755"
           d="m 1417.1214,108.20881 c 7.0478,4.71013 14.0956,9.42025 15.8885,16.38543 1.7929,6.96517 -2.3012,17.86994 -2.1688,21.72989 0.1324,3.85994 4.6095,4.12358 5.858,4.44094 1.2485,0.31736 -0.041,0.72936 -1.3295,1.14127 -4.072,0.12867 -8.1425,0.25729 -9.3569,-0.0924 -1.2145,-0.34965 0.4286,-1.17687 2.0725,-2.00448 -0.6043,-6.4609 -1.2081,-12.91721 -1.8126,-16.59156 -0.6045,-3.67435 -1.2087,-4.55743 -1.8129,-5.44058 0.399,0.7786 0.7979,1.55704 1.0872,2.38774 0.2892,0.83069 0.4687,1.7139 0.6482,2.59683 -0.8574,1.31328 -1.7147,2.62657 -2.8769,3.6427 -1.1621,1.01614 -2.6301,1.73563 -4.0975,2.45488 0,0 -2.0739,-12.21755 -2.0739,-12.21755"
           inkscape:connector-curvature="0"
           sodipodi:nodetypes="cccccccccccccc" />
        <path
           sodipodi:nodetypes="cccccccccccccccccccccccc"
           inkscape:connector-curvature="0"
           d="m 1437.9857,97.51804 c 0.1566,0.311652 0.3132,0.623327 0.6013,0.832852 0.2881,0.209525 0.7065,0.316172 1.0478,0.229745 0.3414,-0.08643 0.6042,-0.365651 0.6862,-0.80116 0.082,-0.435509 -0.016,-1.027035 -0.2302,-2.045967 -0.2136,-1.018932 -0.5423,-2.464878 -0.8381,-4.371313 -0.2958,-1.906436 -0.5587,-4.272704 -1.2489,-6.869231 -0.6903,-2.596526 -1.8078,-5.423159 -3.1224,-7.493657 -1.3147,-2.070499 -2.8269,-3.385441 -4.6671,-4.009813 -1.8402,-0.624373 -4.0099,-0.558622 -6.1789,0.262888 -2.169,0.821509 -4.3385,2.399333 -5.3575,4.634193 -1.019,2.234859 -0.8875,5.127305 0.099,9.334323 0.986,4.207019 2.8267,9.729227 4.036,14.40511 1.2092,4.67589 1.7873,8.50688 2.3654,12.33756 0.675,0.59105 1.3027,1.1407 2.023,1.83181 0.7203,0.6911 1.3445,1.34264 2.0157,2.04329 -0.3771,-4.31003 -0.7542,-8.62042 -2.007,-12.88067 -1.2528,-4.26025 -3.4006,-8.509193 -5.0042,-12.971381 -1.6036,-4.462189 -2.6727,-9.156977 -1.9986,-12.178184 0.6742,-3.021207 3.0914,-4.369254 5.3919,-4.624835 2.3004,-0.255581 4.4855,0.58127 6.2516,2.30083 1.7661,1.719561 3.1141,4.322764 3.8114,7.088376 0.6973,2.765613 0.7437,5.693765 1.0252,7.885897 0.2815,2.192132 0.7875,3.618197 1.2989,5.059337"
           inkscape:original-d="m 1437.9857,97.51804 c 0.157,0.31144 0.3137,0.62306 0.47,0.93548 0.4195,0.10643 0.8379,0.21308 1.2572,0.32045 0.2633,-0.27976 0.5261,-0.55898 0.7888,-0.83811 -0.098,-0.592 -0.1968,-1.18349 -0.2958,-1.77483 -0.3283,-1.44655 -0.6569,-2.8925 -0.986,-4.33848 -0.2626,-2.36683 -0.5255,-4.7331 -0.7888,-7.09932 -1.1171,-2.82698 -2.2346,-5.65362 -3.3525,-8.47976 -1.5115,-1.31508 -3.0237,-2.63001 -4.5357,-3.94407 -2.1688,0.0654 -4.3385,0.1311 -6.5077,0.19721 -2.1688,1.57723 -4.3383,3.15506 -6.5077,4.73288 0.1318,2.89193 0.2634,5.78437 0.3944,8.67695 1.841,5.52131 3.6817,11.04353 5.5217,16.5651 0.5785,3.83029 1.7342,11.49203 1.7342,11.49203 0,0 1.3031,1.14027 2.025,1.77314 0.7187,0.74938 2.0137,2.10196 2.0137,2.10196 0,0 -0.7538,-8.62046 -1.1313,-12.9301 -2.091,-4.2298 -4.2759,-8.45999 -6.4144,-12.6894 -1.0687,-4.69483 -2.1378,-9.38962 -3.2072,-14.08384 2.4172,-1.34827 4.8344,-2.69631 7.2511,-4.04387 2.1845,0.83611 4.3696,1.67293 6.5538,2.50999 1.3482,2.60231 2.6963,5.20551 4.0439,7.80886 0.047,2.9281 0.093,5.85626 0.1394,8.78497 0.5583,1.44072 1.023,2.88145 1.5339,4.32276"
           style="opacity:1;fill:#f5f0ea;fill-opacity:1;fill-rule:evenodd;stroke:#59191f;stroke-width:1;stroke-linecap:butt;stroke-linejoin:miter;stroke-miterlimit:4;stroke-dasharray:none;stroke-dashoffset:0;stroke-opacity:1"
           id="path8928" />
        <g
           id="g9173">
          <path
             sodipodi:nodetypes="cccsccsccc"
             inkscape:original-d="m 1368.4988,147.73564 c 0.6453,-0.39711 1.2905,-0.794 1.9353,-1.19055 0.9044,-0.82182 2.7127,-2.46492 2.7127,-2.46492 0,0 0.4069,-4.58348 0.6099,-6.87482 -0.1984,-2.38715 -0.5959,-7.16065 -0.5959,-7.16065 l -10.4028,2.26041 c 0,0 1.4537,3.47311 2.1801,5.21005 0.7372,1.55525 2.2107,4.66652 2.2107,4.66652 0,0 -2.629,1.47348 -3.9545,2.21656 1.3719,0.0784 2.7289,0.15626 4.093,0.23479"
             inkscape:connector-curvature="0"
             id="path9110"
             d="m 1368.4988,147.73564 c 0.6454,-0.39701 1.2906,-0.79392 2.0651,-1.40314 0.7746,-0.60921 1.6787,-1.43069 2.5829,-2.25233 0.2033,-2.29161 0.4066,-4.5835 0.4089,-6.92273 0,-2.33922 -0.1963,-4.72586 -0.3949,-7.11274 0,0 -10.4028,2.26041 -10.4028,2.26041 0.7267,1.73668 1.4534,3.47326 2.1852,5.11936 0.7318,1.6461 1.4687,3.2017 2.2056,4.75721 -1.3182,0.73885 -2.629,1.47357 -2.6058,1.88441 0.023,0.41085 1.3802,0.48869 2.7443,0.56694"
             style="opacity:1;fill:#f5f0ea;fill-opacity:1;fill-rule:evenodd;stroke:#59191f;stroke-width:1;stroke-linecap:butt;stroke-linejoin:miter;stroke-miterlimit:4;stroke-dasharray:none;stroke-dashoffset:0;stroke-opacity:1" />
          <path
             inkscape:original-d="m 1366.352,150.3553 c -2.7963,-0.0596 -5.593,-0.11871 -8.39,-0.17745 0.7579,-1.83419 1.5152,-3.66759 2.2723,-5.50081 2.738,-0.53259 5.4771,-1.06504 8.2151,-1.59702 0.1163,2.36525 0.2334,4.73153 0.3496,7.09783 -0.8154,0.0588 -1.631,0.11791 -2.447,0.17745 z"
             inkscape:connector-curvature="0"
             id="path9114"
             d="m 1365.3619,150.29614 c -1.8062,2e-5 -4.6029,-0.0591 -5.6226,-1.00585 -1.0196,-0.94671 -0.2622,-2.78009 1.4854,-3.96281 1.7477,-1.18272 4.4868,-1.7152 5.914,-0.79871 1.4272,0.91649 1.5437,3.2828 1.1943,4.4955 -0.3494,1.21271 -1.165,1.27185 -2.9711,1.27187 z"
             style="opacity:1;fill:#f5f0ea;fill-opacity:1;fill-rule:evenodd;stroke:#59191f;stroke-width:0.99999994;stroke-linecap:butt;stroke-linejoin:miter;stroke-miterlimit:4;stroke-dasharray:none;stroke-dashoffset:0;stroke-opacity:1" />
        </g>
        <g
           id="g9090"
           transform="matrix(0.68698008,0,0,0.68698008,404.79033,289.66017)"
           style="fill:none;stroke:#f5f0ea;stroke-width:1.45564628;stroke-opacity:1">
          <circle
             r="22.118679"
             cy="-206.91469"
             cx="1433.6777"
             id="circle9070"
             style="opacity:1;fill:#59191f;fill-opacity:1;stroke:#f5f0ea;stroke-width:1.45564628;stroke-linecap:butt;stroke-linejoin:miter;stroke-miterlimit:4;stroke-dasharray:none;stroke-dashoffset:0;stroke-opacity:1" />
          <g
             id="g9088"
             style="fill:none;stroke:#f5f0ea;stroke-width:1.45564628;stroke-opacity:1">
            <path
               sodipodi:nodetypes="ccccccccccc"
               inkscape:connector-curvature="0"
               id="path9072"
               transform="scale(0.26458333,0.26458333)"
               d="m 5418.625,-866.19141 c 0,0 -19.4189,2.83994 -33.2988,27.24219 -4.9709,8.73884 -7.3282,18.8476 -9.1934,28.72656 -1.6983,8.99618 -1.764,27.11009 -1.7656,27.63282 l 0,-0.004 0,0.0898 0,0.0899 0,-0.004 c 0,0.52273 0.067,18.63859 1.7656,27.63477 1.8652,9.87896 4.2225,19.98577 9.1934,28.72461 13.8799,24.40225 33.2988,27.24218 33.2988,27.24218"
               style="fill:none;fill-rule:evenodd;stroke:#f5f0ea;stroke-width:5.50165558;stroke-linecap:butt;stroke-linejoin:miter;stroke-opacity:1" />
            <path
               style="fill:none;fill-rule:evenodd;stroke:#f5f0ea;stroke-width:1.45564628;stroke-linecap:butt;stroke-linejoin:miter;stroke-miterlimit:4;stroke-dasharray:none;stroke-opacity:1"
               d="m 1433.6777,-229.13252 c 0,14.74552 0,29.49131 0,44.23736"
               id="path9074"
               inkscape:connector-curvature="0"
               inkscape:original-d="m 1433.6777,-229.13252 c 3e-4,14.74552 3e-4,29.49131 0,44.23736" />
            <path
               style="fill:none;fill-rule:evenodd;stroke:#f5f0ea;stroke-width:1.45564628;stroke-linecap:butt;stroke-linejoin:miter;stroke-miterlimit:4;stroke-dasharray:none;stroke-opacity:1"
               d="m 1411.5591,-207.01384 44.2373,0"
               id="path9076"
               inkscape:connector-curvature="0" />
            <path
               style="fill:none;fill-rule:evenodd;stroke:#f5f0ea;stroke-width:1.45564628;stroke-linecap:butt;stroke-linejoin:miter;stroke-opacity:1"
               d="m 1433.6777,-229.13252 c 0,0 5.1379,0.7514 8.8103,7.20783 1.3152,2.31215 1.939,4.98676 2.4325,7.60057 0.4493,2.38024 0.4667,7.17288 0.4671,7.31118 l 0,-0.001 0,0.0238 0,0.0238 0,-0.001 c 0,0.13831 -0.018,4.93146 -0.4671,7.3117 -0.4935,2.61381 -1.1173,5.2879 -2.4325,7.60006 -3.6724,6.45642 -8.8103,7.20782 -8.8103,7.20782"
               id="path9086"
               inkscape:connector-curvature="0"
               sodipodi:nodetypes="ccccccccccc" />
            <path
               inkscape:connector-curvature="0"
               id="path9131"
               d="m 1414.6683,-218.22302 38.0188,0"
               style="fill:none;fill-rule:evenodd;stroke:#f5f0ea;stroke-width:1.45564628;stroke-linecap:butt;stroke-linejoin:miter;stroke-miterlimit:4;stroke-dasharray:none;stroke-opacity:1"
               sodipodi:nodetypes="cc" />
            <path
               sodipodi:nodetypes="cc"
               style="fill:none;fill-rule:evenodd;stroke:#f5f0ea;stroke-width:1.45564628;stroke-linecap:butt;stroke-linejoin:miter;stroke-miterlimit:4;stroke-dasharray:none;stroke-opacity:1"
               d="m 1414.5054,-195.88491 38.3447,0"
               id="path9133"
               inkscape:connector-curvature="0" />
          </g>
        </g>
        <g
           id="g9177">
          <path
             sodipodi:nodetypes="cccccccc"
             inkscape:original-d="m 1407.5814,150.50245 c 5.3808,-1.12991 10.7616,-2.2596 16.1415,-3.38891 -1.5004,-2.75144 -3.0012,-5.50295 -4.5022,-8.25402 -0.691,-4.07262 -2.0739,-12.21755 -2.0739,-12.21755 l -9.1933,5.31764 c 0,0 3.3569,6.10637 5.035,9.15997 0.7562,0.36614 1.5121,0.73252 2.2677,1.09917 -2.4284,0.78728 -4.8571,1.57484 -7.286,2.36264"
             inkscape:connector-curvature="0"
             id="path9122"
             d="m 1407.5814,150.50245 c 5.3808,-1.12971 10.7616,-2.25941 12.7012,-4.1998 1.9396,-1.94039 0.4388,-4.69189 -0.6572,-8.10379 -1.096,-3.41191 -1.7873,-7.48437 -2.4786,-11.55689 0,0 -9.1933,5.31764 -9.1933,5.31764 1.6783,3.05332 3.3566,6.10653 4.5738,7.81648 1.2172,1.70995 1.9731,2.07634 1.1368,2.65322 -0.8362,0.57688 -3.2649,1.36444 -5.6939,2.15208"
             style="opacity:1;fill:#f5f0ea;fill-opacity:1;fill-rule:evenodd;stroke:#59191f;stroke-width:1;stroke-linecap:butt;stroke-linejoin:miter;stroke-miterlimit:4;stroke-dasharray:none;stroke-dashoffset:0;stroke-opacity:1" />
          <path
             style="opacity:1;fill:#f5f0ea;fill-opacity:1;fill-rule:evenodd;stroke:#59191f;stroke-width:0.99999994;stroke-linecap:butt;stroke-linejoin:miter;stroke-miterlimit:4;stroke-dasharray:none;stroke-dashoffset:0;stroke-opacity:1"
             d="m 1408.018,145.97477 c 0,1.80618 -0.059,4.60287 -1.0059,5.62251 -0.9467,1.01964 -2.7801,0.26229 -3.9628,-1.48536 -1.1827,-1.74765 -1.7151,-4.48674 -0.7986,-5.91397 0.9165,-1.42722 3.2827,-1.54377 4.4954,-1.19435 1.2127,0.34942 1.2719,1.165 1.2719,2.97117 z"
             id="path9118"
             inkscape:connector-curvature="0"
             inkscape:original-d="m 1408.0772,144.98463 c -0.06,2.7963 -0.1187,5.593 -0.1775,8.39 -1.8342,-0.7579 -3.6676,-1.5152 -5.5008,-2.2723 -0.5326,-2.738 -1.065,-5.4771 -1.597,-8.2151 2.3653,-0.1163 4.7315,-0.2334 7.0978,-0.3496 0.059,0.8154 0.1179,1.631 0.1775,2.447 z" />
        </g>
        <path
           style="opacity:1;fill:#f5f0ea;fill-opacity:1;fill-rule:evenodd;stroke:#59191f;stroke-width:1;stroke-linecap:butt;stroke-linejoin:miter;stroke-miterlimit:4;stroke-dasharray:none;stroke-dashoffset:0;stroke-opacity:1"
           d="m 1384.4155,93.962483 c -2.0244,0.0465 -4.0483,0.093 -6.1988,0.37185 -2.1506,0.27887 -4.4286,0.79025 -6.7991,0.6275 -2.3705,-0.16274 -4.8338,-0.99935 -7.2973,-1.83601 -0.7902,1.255 -1.5803,2.50989 -3.9046,4.99684 -2.3242,2.486937 -6.1818,6.205137 -8.5059,10.086167 -2.324,3.88104 -3.1141,7.92479 -2.5564,11.755 0.5577,3.83021 2.4634,7.44644 5.1595,9.5568 2.696,2.11036 6.1823,2.71465 10.1912,2.50542 4.0089,-0.20924 8.475,-1.21697 11.0921,-2.86301 2.6172,-1.64605 3.8629,-6.05677 3.8629,-6.05677 l -1.3355,-0.64859 c 0,0 0.8796,-1.59279 1.34,-2.90697 0.4604,-1.31419 0.6928,-4.49776 0.6928,-4.49776 l -3.1624,0.27465 c 0,0 1.9475,-0.59308 2.865,-1.99487 0.9175,-1.4018 0.9101,-3.74184 0.9028,-6.0823 -1.2709,0.49768 -2.542,0.99543 -4.4465,1.08836 -1.9045,0.0929 -4.4431,-0.21888 -6.4651,-0.91622 -2.0219,-0.69733 -3.5271,-1.77973 -5.0328,-2.86241 1.0226,-1.20851 2.0452,-2.41706 3.4054,-3.19356 1.3602,-0.77651 3.0581,-1.12107 4.7782,-1.28384 1.7202,-0.162767 3.4612,-0.143537 5.1687,0.54003 1.7076,0.68356 3.3806,2.03125 4.3104,3.65829 0.9298,1.62705 0.816,3.53229 0.816,6.71678 0,3.1845 -0.1859,7.64573 -0.4647,10.50444 -0.2789,2.8587 -0.3511,4.11385 -0.723,5.36884 -0.6972,-0.13944 -1.3949,-0.27898 -1.9522,-3.2e-4 -0.5574,0.27867 -0.976,0.97633 -0.8512,1.51876 0.1248,0.54243 0.7932,0.93012 1.4071,1.03375 0.6139,0.10364 1.1722,-0.077 1.5092,0.0625 0.337,0.1395 0.452,0.59947 0.6491,0.92829 0.1972,0.32883 0.4763,0.52585 0.7477,0.6164 0.2714,0.0906 0.5339,0.0741 0.7972,0.0577 m 0,-37.125787 c 2.0244,0.0465 4.0483,0.093 6.1988,0.37185 2.1506,0.27888 4.4286,0.79026 6.7991,0.62751 2.3705,-0.16275 4.8338,-0.99935 7.2973,-1.83601 0.7902,1.25499 1.5803,2.50989 3.9046,4.99683 2.3242,2.486947 6.1818,6.205137 8.5059,10.086177 2.324,3.88104 3.1142,7.92492 2.5565,11.7549 -0.5576,3.82997 -2.4629,7.44542 -5.1593,9.55634 -2.6963,2.11092 -6.1813,2.71499 -10.1909,2.50586 -4.0095,-0.20913 -8.4739,-1.21648 -11.0919,-2.86282 -2.6181,-1.64634 -3.8637,-6.05684 -3.8637,-6.05684 l 1.2726,-0.64858 c 0,0 -0.8479,-1.59279 -1.3083,-2.907 -0.4604,-1.31421 -0.7551,-4.49769 -0.7551,-4.49769 l 3.0764,0.39934 c 0,0 -1.8767,-0.65527 -2.7554,-2.08831 -0.8787,-1.43305 -0.8557,-3.77313 -0.8327,-6.1136 1.2709,0.49768 2.5421,0.99546 4.4466,1.08837 1.9044,0.0929 4.443,-0.21889 6.465,-0.91625 2.0219,-0.69736 3.5271,-1.77971 5.0328,-2.86239 -1.0226,-1.20851 -2.0451,-2.41704 -3.4054,-3.19357 -1.3602,-0.77652 -3.0581,-1.12108 -4.7782,-1.28384 -1.7201,-0.162767 -3.4612,-0.143537 -5.1687,0.54003 -1.7076,0.68357 -3.3805,2.03121 -4.3103,3.65827 -0.9299,1.62706 -0.8157,3.53232 -0.8157,6.71681 0,3.18449 0.1859,7.64572 0.4648,10.50443 0.2788,2.85871 0.3506,4.11385 0.7225,5.36885 0.6972,-0.13944 1.3949,-0.27897 1.9523,-3.3e-4 0.5574,0.27863 0.976,0.97629 0.8511,1.51877 -0.1248,0.54247 -0.7931,0.93017 -1.407,1.03377 -0.6139,0.1036 -1.1723,-0.077 -1.5093,0.0625 -0.337,0.1395 -0.4519,0.59944 -0.6491,0.92829 -0.1972,0.32884 -0.4763,0.52586 -0.7476,0.61641 -0.2714,0.0906 -0.534,0.0741 -0.7973,0.0577"
           id="path8780"
           inkscape:connector-curvature="0"
           sodipodi:nodetypes="ccccccscccccccccccccccccscccscscccccscccccccccscccccccccccsccccssccc" />
      </g>
    </g>
    <g
       style="font-style:normal;font-variant:normal;font-weight:normal;font-stretch:normal;font-size:22.57777786px;line-height:14.39333344px;font-family:Barlow;-inkscape-font-specification:Barlow;text-indent:0;text-align:start;text-decoration:none;text-decoration-line:none;text-decoration-style:solid;text-decoration-color:#000000;letter-spacing:0px;word-spacing:0px;text-transform:none;direction:ltr;writing-mode:lr-tb;baseline-shift:baseline;text-anchor:start;white-space:normal;opacity:1;fill:#9b2321;fill-opacity:1;stroke:none;stroke-width:0.26458332px;stroke-linecap:butt;stroke-linejoin:miter;stroke-miterlimit:4;stroke-dasharray:none;stroke-dashoffset:0;stroke-opacity:1"
       id="text2044-2">
      <path
         d="m -86.661101,146.92537 q 0,-0.14111 0.141111,-0.14111 l 0.719667,0 q 0.141111,0 0.141111,0.14111 l 0,9.59555 q 0,0.14111 -0.141111,0.14111 l -0.719667,0 q -0.141111,0 -0.141111,-0.14111 l 0,-4.33211 q 0,-0.0564 -0.05644,-0.0564 l -4.501445,0 q -0.05644,0 -0.05644,0.0564 l 0,4.33211 q 0,0.14111 -0.141111,0.14111 l -0.719667,0 q -0.141111,0 -0.141111,-0.14111 l 0,-9.59555 q 0,-0.14111 0.141111,-0.14111 l 0.719667,0 q 0.141111,0 0.141111,0.14111 l 0,4.27566 q 0,0.0564 0.05644,0.0564 l 4.501445,0 q 0.05644,0 0.05644,-0.0564 l 0,-4.27566 z"
         style="font-style:normal;font-variant:normal;font-weight:normal;font-stretch:normal;font-size:14.11111069px;font-family:Barlow;-inkscape-font-specification:Barlow;text-indent:0;text-align:start;text-decoration:none;text-decoration-line:none;text-decoration-style:solid;text-decoration-color:#000000;letter-spacing:0px;word-spacing:0px;text-transform:none;direction:ltr;writing-mode:lr-tb;text-anchor:start;white-space:normal;fill:#9b2321;fill-opacity:1;stroke:none;stroke-width:0.26458332px;stroke-linecap:butt;stroke-linejoin:miter;stroke-miterlimit:4;stroke-dasharray:none;stroke-dashoffset:0;stroke-opacity:1"
         id="path4369"
         inkscape:connector-curvature="0" />
      <path
         d="m -77.766912,151.89248 q 0.05645,0.39511 0.05645,0.98778 l 0,0.45155 q 0,0.14111 -0.141111,0.14111 l -4.557889,0 q -0.05644,0 -0.05644,0.0565 0.02822,0.77611 0.08467,1.00189 0.155222,0.635 0.663222,1.00188 0.508,0.36689 1.298222,0.36689 0.592667,0 1.044223,-0.26811 0.451555,-0.26811 0.705555,-0.762 0.08467,-0.127 0.197556,-0.0564 l 0.550333,0.32455 q 0.112889,0.0706 0.05644,0.19756 -0.352777,0.67733 -1.058333,1.07244 -0.705555,0.381 -1.622778,0.381 -1.001888,-0.0141 -1.679222,-0.47977 -0.677333,-0.46567 -0.973666,-1.29823 -0.254,-0.67733 -0.254,-1.94733 0,-0.59267 0.01411,-0.95956 0.02822,-0.381 0.112889,-0.67733 0.239888,-0.91722 0.959555,-1.46755 0.733778,-0.55034 1.763889,-0.55034 1.284111,0 1.975555,0.64911 0.691445,0.64911 0.860778,1.83445 z m -2.836333,-1.60867 q -0.691444,0 -1.157111,0.36689 -0.451556,0.35278 -0.592667,0.95956 -0.08467,0.29633 -0.112889,0.95955 0,0.0565 0.05644,0.0565 l 3.654777,0 q 0.05644,0 0.05644,-0.0565 -0.02822,-0.635 -0.08467,-0.90311 -0.155222,-0.635 -0.635,-1.00189 -0.465666,-0.381 -1.185333,-0.381 z"
         style="font-style:normal;font-variant:normal;font-weight:normal;font-stretch:normal;font-size:14.11111069px;font-family:Barlow;-inkscape-font-specification:Barlow;text-indent:0;text-align:start;text-decoration:none;text-decoration-line:none;text-decoration-style:solid;text-decoration-color:#000000;letter-spacing:0px;word-spacing:0px;text-transform:none;direction:ltr;writing-mode:lr-tb;text-anchor:start;white-space:normal;fill:#9b2321;fill-opacity:1;stroke:none;stroke-width:0.26458332px;stroke-linecap:butt;stroke-linejoin:miter;stroke-miterlimit:4;stroke-dasharray:none;stroke-dashoffset:0;stroke-opacity:1"
         id="path4371"
         inkscape:connector-curvature="0" />
      <path
         d="m -75.040601,148.22359 q -0.338666,0 -0.564444,-0.22578 -0.225778,-0.22578 -0.225778,-0.56444 0,-0.35278 0.225778,-0.56445 0.225778,-0.22578 0.564444,-0.22578 0.338667,0 0.564445,0.22578 0.225778,0.21167 0.225778,0.56445 0,0.33866 -0.225778,0.56444 -0.225778,0.22578 -0.564445,0.22578 z m -0.395111,8.42433 q -0.141111,0 -0.141111,-0.14111 l 0,-6.858 q 0,-0.14111 0.141111,-0.14111 l 0.719667,0 q 0.141111,0 0.141111,0.14111 l 0,6.858 q 0,0.14111 -0.141111,0.14111 l -0.719667,0 z"
         style="font-style:normal;font-variant:normal;font-weight:normal;font-stretch:normal;font-size:14.11111069px;font-family:Barlow;-inkscape-font-specification:Barlow;text-indent:0;text-align:start;text-decoration:none;text-decoration-line:none;text-decoration-style:solid;text-decoration-color:#000000;letter-spacing:0px;word-spacing:0px;text-transform:none;direction:ltr;writing-mode:lr-tb;text-anchor:start;white-space:normal;fill:#9b2321;fill-opacity:1;stroke:none;stroke-width:0.26458332px;stroke-linecap:butt;stroke-linejoin:miter;stroke-miterlimit:4;stroke-dasharray:none;stroke-dashoffset:0;stroke-opacity:1"
         id="path4373"
         inkscape:connector-curvature="0" />
      <path
         d="m -67.676585,146.92537 q 0,-0.14111 0.141111,-0.14111 l 0.719667,0 q 0.141111,0 0.141111,0.14111 l 0,9.59555 q 0,0.14111 -0.141111,0.14111 l -0.719667,0 q -0.141111,0 -0.141111,-0.14111 l 0,-0.59266 q 0,-0.0282 -0.02822,-0.0282 -0.01411,-0.0141 -0.04233,0.0141 -0.310445,0.40923 -0.776111,0.635 -0.451556,0.22578 -1.016,0.22578 -0.987778,0 -1.665112,-0.508 -0.663222,-0.508 -0.917222,-1.38289 -0.197555,-0.635 -0.197555,-1.79211 0,-1.17122 0.169333,-1.74978 0.254,-0.90311 0.931333,-1.41111 0.677334,-0.52211 1.679223,-0.52211 0.550333,0 1.016,0.22578 0.465666,0.21167 0.776111,0.62089 0.02822,0.0282 0.04233,0.0282 0.02822,-0.0141 0.02822,-0.0423 l 0,-3.31611 z m -0.254,7.88811 q 0.127,-0.28222 0.183445,-0.66322 0.05644,-0.381 0.05644,-1.05834 0,-0.67733 -0.05644,-1.05833 -0.05644,-0.39511 -0.197556,-0.69145 -0.169333,-0.47977 -0.564444,-0.762 -0.381,-0.29633 -0.917223,-0.29633 -0.564444,0 -0.973666,0.28222 -0.409222,0.28223 -0.592667,0.74789 -0.169333,0.31045 -0.254,0.70556 -0.07055,0.381 -0.07055,1.07244 0,0.66322 0.05644,1.04422 0.05644,0.36689 0.197556,0.66323 0.169333,0.508 0.592666,0.80433 0.437445,0.29633 1.030111,0.29633 0.564445,0 0.945445,-0.29633 0.381,-0.29633 0.564444,-0.79022 z"
         style="font-style:normal;font-variant:normal;font-weight:normal;font-stretch:normal;font-size:14.11111069px;font-family:Barlow;-inkscape-font-specification:Barlow;text-indent:0;text-align:start;text-decoration:none;text-decoration-line:none;text-decoration-style:solid;text-decoration-color:#000000;letter-spacing:0px;word-spacing:0px;text-transform:none;direction:ltr;writing-mode:lr-tb;text-anchor:start;white-space:normal;fill:#9b2321;fill-opacity:1;stroke:none;stroke-width:0.26458332px;stroke-linecap:butt;stroke-linejoin:miter;stroke-miterlimit:4;stroke-dasharray:none;stroke-dashoffset:0;stroke-opacity:1"
         id="path4375"
         inkscape:connector-curvature="0" />
      <path
         d="m -58.91535,151.89248 q 0.05644,0.39511 0.05644,0.98778 l 0,0.45155 q 0,0.14111 -0.141111,0.14111 l -4.557889,0 q -0.05644,0 -0.05644,0.0565 0.02822,0.77611 0.08467,1.00189 0.155222,0.635 0.663222,1.00188 0.508,0.36689 1.298222,0.36689 0.592667,0 1.044222,-0.26811 0.451556,-0.26811 0.705556,-0.762 0.08467,-0.127 0.197555,-0.0564 l 0.550334,0.32455 q 0.112888,0.0706 0.05644,0.19756 -0.352778,0.67733 -1.058333,1.07244 -0.705556,0.381 -1.622778,0.381 -1.001889,-0.0141 -1.679222,-0.47977 -0.677334,-0.46567 -0.973667,-1.29823 -0.254,-0.67733 -0.254,-1.94733 0,-0.59267 0.01411,-0.95956 0.02822,-0.381 0.112889,-0.67733 0.239889,-0.91722 0.959556,-1.46755 0.733777,-0.55034 1.763889,-0.55034 1.284111,0 1.975555,0.64911 0.691444,0.64911 0.860778,1.83445 z m -2.836333,-1.60867 q -0.691445,0 -1.157112,0.36689 -0.451555,0.35278 -0.592666,0.95956 -0.08467,0.29633 -0.112889,0.95955 0,0.0565 0.05644,0.0565 l 3.654778,0 q 0.05644,0 0.05644,-0.0565 -0.02822,-0.635 -0.08467,-0.90311 -0.155222,-0.635 -0.635,-1.00189 -0.465667,-0.381 -1.185333,-0.381 z"
         style="font-style:normal;font-variant:normal;font-weight:normal;font-stretch:normal;font-size:14.11111069px;font-family:Barlow;-inkscape-font-specification:Barlow;text-indent:0;text-align:start;text-decoration:none;text-decoration-line:none;text-decoration-style:solid;text-decoration-color:#000000;letter-spacing:0px;word-spacing:0px;text-transform:none;direction:ltr;writing-mode:lr-tb;text-anchor:start;white-space:normal;fill:#9b2321;fill-opacity:1;stroke:none;stroke-width:0.26458332px;stroke-linecap:butt;stroke-linejoin:miter;stroke-miterlimit:4;stroke-dasharray:none;stroke-dashoffset:0;stroke-opacity:1"
         id="path4377"
         inkscape:connector-curvature="0" />
      <path
         d="m -56.725262,156.66203 q -0.141111,0 -0.141111,-0.14111 l 0,-9.59555 q 0,-0.14111 0.141111,-0.14111 l 0.719666,0 q 0.141112,0 0.141112,0.14111 l 0,9.59555 q 0,0.14111 -0.141112,0.14111 l -0.719666,0 z"
         style="font-style:normal;font-variant:normal;font-weight:normal;font-stretch:normal;font-size:14.11111069px;font-family:Barlow;-inkscape-font-specification:Barlow;text-indent:0;text-align:start;text-decoration:none;text-decoration-line:none;text-decoration-style:solid;text-decoration-color:#000000;letter-spacing:0px;word-spacing:0px;text-transform:none;direction:ltr;writing-mode:lr-tb;text-anchor:start;white-space:normal;fill:#9b2321;fill-opacity:1;stroke:none;stroke-width:0.26458332px;stroke-linecap:butt;stroke-linejoin:miter;stroke-miterlimit:4;stroke-dasharray:none;stroke-dashoffset:0;stroke-opacity:1"
         id="path4379"
         inkscape:connector-curvature="0" />
      <path
         d="m -48.097419,151.34214 q 0.169333,0.635 0.169333,1.74978 0,1.15711 -0.197556,1.79211 -0.268111,0.87489 -0.931333,1.38289 -0.663222,0.508 -1.651,0.508 -0.564444,0 -1.030111,-0.22578 -0.465667,-0.22577 -0.776111,-0.64911 -0.01411,-0.0282 -0.04233,-0.0141 -0.02822,0 -0.02822,0.0282 l 0,0.60678 q 0,0.14111 -0.141111,0.14111 l -0.719666,0 q -0.141112,0 -0.141112,-0.14111 l 0,-9.59555 q 0,-0.14111 0.141112,-0.14111 l 0.719666,0 q 0.141111,0 0.141111,0.14111 l 0,3.33022 q 0,0.0282 0.01411,0.0423 0.02822,0 0.05644,-0.0282 0.310444,-0.40922 0.776111,-0.635 0.465667,-0.22578 1.030111,-0.22578 1.001889,0 1.679222,0.52211 0.677334,0.508 0.931334,1.41111 z m -1.086556,3.45723 q 0.141111,-0.29634 0.197556,-0.66323 0.05644,-0.381 0.05644,-1.04422 0,-0.69144 -0.08467,-1.07244 -0.07055,-0.39511 -0.239889,-0.70556 -0.183444,-0.46566 -0.592666,-0.74789 -0.409222,-0.28222 -0.973667,-0.28222 -0.536222,0 -0.931333,0.29633 -0.381,0.28223 -0.550333,0.762 -0.141112,0.29634 -0.211667,0.67734 -0.05644,0.381 -0.05644,1.07244 0,0.67734 0.05644,1.05834 0.07056,0.36688 0.197555,0.66322 0.183445,0.49389 0.564445,0.79022 0.381,0.29633 0.945444,0.29633 0.592667,0 1.016,-0.29633 0.437445,-0.29633 0.606778,-0.80433 z"
         style="font-style:normal;font-variant:normal;font-weight:normal;font-stretch:normal;font-size:14.11111069px;font-family:Barlow;-inkscape-font-specification:Barlow;text-indent:0;text-align:start;text-decoration:none;text-decoration-line:none;text-decoration-style:solid;text-decoration-color:#000000;letter-spacing:0px;word-spacing:0px;text-transform:none;direction:ltr;writing-mode:lr-tb;text-anchor:start;white-space:normal;fill:#9b2321;fill-opacity:1;stroke:none;stroke-width:0.26458332px;stroke-linecap:butt;stroke-linejoin:miter;stroke-miterlimit:4;stroke-dasharray:none;stroke-dashoffset:0;stroke-opacity:1"
         id="path4381"
         inkscape:connector-curvature="0" />
      <path
         d="m -40.504761,151.89248 q 0.05644,0.39511 0.05644,0.98778 l 0,0.45155 q 0,0.14111 -0.141111,0.14111 l -4.557888,0 q -0.05645,0 -0.05645,0.0565 0.02822,0.77611 0.08467,1.00189 0.155222,0.635 0.663222,1.00188 0.508,0.36689 1.298222,0.36689 0.592667,0 1.044222,-0.26811 0.451556,-0.26811 0.705556,-0.762 0.08467,-0.127 0.197555,-0.0564 l 0.550334,0.32455 q 0.112889,0.0706 0.05644,0.19756 -0.352778,0.67733 -1.058333,1.07244 -0.705556,0.381 -1.622778,0.381 -1.001889,-0.0141 -1.679222,-0.47977 -0.677333,-0.46567 -0.973667,-1.29823 -0.254,-0.67733 -0.254,-1.94733 0,-0.59267 0.01411,-0.95956 0.02822,-0.381 0.112889,-0.67733 0.239889,-0.91722 0.959556,-1.46755 0.733778,-0.55034 1.763889,-0.55034 1.284111,0 1.975555,0.64911 0.691445,0.64911 0.860778,1.83445 z m -2.836333,-1.60867 q -0.691445,0 -1.157111,0.36689 -0.451556,0.35278 -0.592667,0.95956 -0.08467,0.29633 -0.112889,0.95955 0,0.0565 0.05645,0.0565 l 3.654777,0 q 0.05645,0 0.05645,-0.0565 -0.02822,-0.635 -0.08467,-0.90311 -0.155222,-0.635 -0.635,-1.00189 -0.465667,-0.381 -1.185333,-0.381 z"
         style="font-style:normal;font-variant:normal;font-weight:normal;font-stretch:normal;font-size:14.11111069px;font-family:Barlow;-inkscape-font-specification:Barlow;text-indent:0;text-align:start;text-decoration:none;text-decoration-line:none;text-decoration-style:solid;text-decoration-color:#000000;letter-spacing:0px;word-spacing:0px;text-transform:none;direction:ltr;writing-mode:lr-tb;text-anchor:start;white-space:normal;fill:#9b2321;fill-opacity:1;stroke:none;stroke-width:0.26458332px;stroke-linecap:butt;stroke-linejoin:miter;stroke-miterlimit:4;stroke-dasharray:none;stroke-dashoffset:0;stroke-opacity:1"
         id="path4383"
         inkscape:connector-curvature="0" />
      <path
         d="m -35.577116,149.45126 q 0.465667,0 0.804334,0.18344 0.112889,0.0564 0.08467,0.18344 l -0.155222,0.69145 q -0.04233,0.14111 -0.183444,0.0847 -0.239889,-0.0988 -0.550334,-0.0988 l -0.183444,0.0141 q -0.733778,0.0282 -1.213556,0.55033 -0.479777,0.508 -0.479777,1.29822 l 0,4.16278 q 0,0.14111 -0.141111,0.14111 l -0.719667,0 q -0.141111,0 -0.141111,-0.14111 l 0,-6.858 q 0,-0.14111 0.141111,-0.14111 l 0.719667,0 q 0.141111,0 0.141111,0.14111 l 0,0.86078 q 0,0.0423 0.01411,0.0564 0.02822,0 0.04233,-0.0282 0.296333,-0.52211 0.747889,-0.80433 0.465667,-0.29633 1.072444,-0.29633 z"
         style="font-style:normal;font-variant:normal;font-weight:normal;font-stretch:normal;font-size:14.11111069px;font-family:Barlow;-inkscape-font-specification:Barlow;text-indent:0;text-align:start;text-decoration:none;text-decoration-line:none;text-decoration-style:solid;text-decoration-color:#000000;letter-spacing:0px;word-spacing:0px;text-transform:none;direction:ltr;writing-mode:lr-tb;text-anchor:start;white-space:normal;fill:#9b2321;fill-opacity:1;stroke:none;stroke-width:0.26458332px;stroke-linecap:butt;stroke-linejoin:miter;stroke-miterlimit:4;stroke-dasharray:none;stroke-dashoffset:0;stroke-opacity:1"
         id="path4385"
         inkscape:connector-curvature="0" />
      <path
         d="m -29.092178,149.66292 q 0,-0.14111 0.141111,-0.14111 l 0.719667,0 q 0.141111,0 0.141111,0.14111 l 0,6.75922 q 0,1.58045 -0.917222,2.31423 -0.903112,0.73377 -2.497667,0.73377 -0.324556,0 -0.493889,-0.0141 -0.141111,-0.0141 -0.141111,-0.15522 l 0.02822,-0.64911 q 0,-0.0706 0.04233,-0.11289 0.04233,-0.0282 0.09878,-0.0141 l 0.381,0.0141 q 1.312334,0 1.905,-0.52211 0.592667,-0.508 0.592667,-1.62278 l 0,-0.52211 q 0,-0.0282 -0.02822,-0.0282 -0.01411,-0.0141 -0.04233,0.0141 -0.649111,0.84667 -1.848555,0.84667 -0.917222,0 -1.636889,-0.49389 -0.705556,-0.49389 -0.945444,-1.397 -0.169334,-0.57856 -0.169334,-1.72156 0,-0.62089 0.02822,-1.04422 0.04233,-0.42333 0.155223,-0.762 0.254,-0.84667 0.917222,-1.35467 0.663222,-0.52211 1.594555,-0.52211 1.255889,0 1.905,0.83256 0.02822,0.0282 0.04233,0.0141 0.02822,-0.0141 0.02822,-0.0423 l 0,-0.55034 z m -0.07056,4.84011 q 0.04233,-0.21166 0.05645,-0.52211 0.01411,-0.31044 0.01411,-0.90311 0,-0.71967 -0.01411,-0.95955 -0.01411,-0.254 -0.07056,-0.46567 -0.112889,-0.59267 -0.564444,-0.97367 -0.437445,-0.39511 -1.114778,-0.39511 -0.663222,0 -1.128889,0.381 -0.451555,0.381 -0.635,0.98778 -0.141111,0.45155 -0.141111,1.41111 0,1.03011 0.141111,1.42522 0.141111,0.59267 0.606778,0.98778 0.479778,0.381 1.157111,0.381 0.691444,0 1.128889,-0.381 0.451555,-0.381 0.564444,-0.97367 z"
         style="font-style:normal;font-variant:normal;font-weight:normal;font-stretch:normal;font-size:14.11111069px;font-family:Barlow;-inkscape-font-specification:Barlow;text-indent:0;text-align:start;text-decoration:none;text-decoration-line:none;text-decoration-style:solid;text-decoration-color:#000000;letter-spacing:0px;word-spacing:0px;text-transform:none;direction:ltr;writing-mode:lr-tb;text-anchor:start;white-space:normal;fill:#9b2321;fill-opacity:1;stroke:none;stroke-width:0.26458332px;stroke-linecap:butt;stroke-linejoin:miter;stroke-miterlimit:4;stroke-dasharray:none;stroke-dashoffset:0;stroke-opacity:1"
         id="path4387"
         inkscape:connector-curvature="0" />
      <path
         d="m -21.553042,155.4907 4.857584,0 0,1.17133 -6.531901,0 0,-1.17133 q 0.792372,-0.81993 2.15663,-2.19797 1.371148,-1.38493 1.722548,-1.78456 0.668348,-0.75103 0.930176,-1.26779 0.268717,-0.52366 0.268717,-1.02664 0,-0.81994 -0.578776,-1.3367 -0.571886,-0.51676 -1.495171,-0.51676 -0.654568,0 -1.384929,0.22737 -0.72347,0.22738 -1.550293,0.68902 l 0,-1.4056 q 0.840604,-0.33762 1.570964,-0.50987 0.73036,-0.17226 1.336697,-0.17226 1.598524,0 2.54937,0.79927 0.950847,0.79926 0.950847,2.13595 0,0.6339 -0.241157,1.20579 -0.234266,0.56499 -0.861274,1.33669 -0.172255,0.19982 -1.09554,1.15756 -0.923286,0.95084 -2.604492,2.6665 z"
         style="font-style:normal;font-variant:normal;font-weight:normal;font-stretch:normal;font-family:D-DIN;-inkscape-font-specification:D-DIN"
         id="path4389"
         inkscape:connector-curvature="0" />
      <path
         d="m -10.790563,147.29137 q -1.07487,0 -1.619195,1.06109 -0.537435,1.0542 -0.537435,3.17638 0,2.11529 0.537435,3.17638 0.544325,1.0542 1.619195,1.0542 1.0817599,0 1.6191947,-1.0542 0.5443251,-1.06109 0.5443251,-3.17638 0,-2.12218 -0.5443251,-3.17638 -0.5374348,-1.06109 -1.6191947,-1.06109 z m 0,-1.10243 q 1.7294378,0 2.638943,1.37115 0.9163954,1.36426 0.9163954,3.96875 0,2.5976 -0.9163954,3.96875 -0.9095052,1.36426 -2.638943,1.36426 -1.729438,0 -2.645833,-1.36426 -0.909506,-1.37115 -0.909506,-3.96875 0,-2.60449 0.909506,-3.96875 0.916395,-1.37115 2.645833,-1.37115 z"
         style="font-style:normal;font-variant:normal;font-weight:normal;font-stretch:normal;font-family:D-DIN;-inkscape-font-specification:D-DIN"
         id="path4391"
         inkscape:connector-curvature="0" />
      <path
         d="m -4.5411589,155.4907 2.2737629,0 0,-7.84793 -2.4735785,0.4961 0,-1.2678 2.4597981,-0.49609 1.39181856,0 0,9.11572 2.27376294,0 0,1.17133 -5.925564,0 0,-1.17133 z"
         style="font-style:normal;font-variant:normal;font-weight:normal;font-stretch:normal;font-family:D-DIN;-inkscape-font-specification:D-DIN"
         id="path4393"
         inkscape:connector-curvature="0" />
      <path
         d="m 4.2438354,156.44844 0,-1.2678 q 0.5236545,0.24805 1.0610894,0.37896 0.5374349,0.13092 1.0541992,0.13092 1.3780381,0 2.1015082,-0.92329 0.7303602,-0.93018 0.833713,-2.81809 -0.399631,0.59256 -1.012858,0.90951 -0.613227,0.31695 -1.3573676,0.31695 -1.5434027,0 -2.4460177,-0.93018 -0.8957248,-0.93707 -0.8957248,-2.55626 0,-1.58474 0.9370659,-2.54248 0.937066,-0.95774 2.4942491,-0.95774 1.7845594,0 2.7216253,1.37115 0.9439566,1.36426 0.9439566,3.96875 0,2.43224 -1.1575525,3.88607 -1.1506618,1.44694 -3.1005858,1.44694 -0.5236545,0 -1.0610894,-0.10335 -0.5374349,-0.10336 -1.1162109,-0.31006 z m 2.7698567,-4.36149 q 0.9370659,0 1.481391,-0.64079 0.5512153,-0.64079 0.5512153,-1.757 0,-1.10932 -0.5512153,-1.75011 -0.5443251,-0.64768 -1.481391,-0.64768 -0.937066,0 -1.4882812,0.64768 -0.5443251,0.64079 -0.5443251,1.75011 0,1.11621 0.5443251,1.757 0.5512152,0.64079 1.4882812,0.64079 z"
         style="font-style:normal;font-variant:normal;font-weight:normal;font-stretch:normal;font-family:D-DIN;-inkscape-font-specification:D-DIN"
         id="path4395"
         inkscape:connector-curvature="0" />
    </g>
    <g
       style="font-style:normal;font-variant:normal;font-weight:500;font-stretch:normal;font-size:16.93333244px;line-height:6.61458302px;font-family:Barlow;-inkscape-font-specification:'Barlow Medium';text-align:start;letter-spacing:0px;word-spacing:0px;writing-mode:lr-tb;text-anchor:start;fill:#9b2321;fill-opacity:1;stroke:none;stroke-width:0.26458332px;stroke-linecap:butt;stroke-linejoin:miter;stroke-opacity:1"
       id="text12965">
      <path
         d="m -100.74676,126.14111 q -0.0847,0.0508 0,0.1016 0.914396,0.37253 1.388529,1.10067 0.474134,0.72813 0.474134,1.76106 0,1.524 -0.982134,2.37067 -0.965199,0.84667 -2.556929,0.84667 l -4.09787,0 q -0.16933,0 -0.16933,-0.16934 l 0,-11.51466 q 0,-0.16934 0.16933,-0.16934 l 3.97933,0 q 1.64254,0 2.573869,0.8128 0.948267,0.8128 0.948267,2.286 0,0.93134 -0.4572,1.59174 -0.440267,0.64346 -1.269996,0.98213 z m -4.6736,-4.6228 q -0.0677,0 -0.0677,0.0677 l 0,4.064 q 0,0.0677 0.0677,0.0677 l 2.87866,0 q 1.0668,0 1.69334,-0.5588 0.64346,-0.5588 0.64346,-1.49014 0,-0.98213 -0.64346,-1.55786 -0.62654,-0.59267 -1.69334,-0.59267 l -2.87866,0 z m 2.9972,9.73667 q 1.0668,0 1.69333,-0.6096 0.64347,-0.6096 0.64347,-1.64254 0,-1.03293 -0.6604,-1.64253 -0.64347,-0.62653 -1.74414,-0.62653 l -2.92946,0 q -0.0677,0 -0.0677,0.0677 l 0,4.38573 q 0,0.0677 0.0677,0.0677 l 2.9972,0 z"
         style="font-style:normal;font-variant:normal;font-weight:500;font-stretch:normal;font-size:16.93333244px;font-family:Barlow;-inkscape-font-specification:'Barlow Medium';fill:#9b2321;fill-opacity:1;stroke-width:0.26458332px"
         id="path4398"
         inkscape:connector-curvature="0" />
      <path
         d="m -92.856625,123.66884 q 0.5588,0 0.9652,0.22014 0.135467,0.0677 0.1016,0.22013 l -0.186267,0.82973 q -0.0508,0.16934 -0.220133,0.1016 -0.287867,-0.11853 -0.6604,-0.11853 l -0.220133,0.0169 q -0.880534,0.0339 -1.456267,0.6604 -0.575733,0.6096 -0.575733,1.55787 l 0,4.99533 q 0,0.16934 -0.169334,0.16934 l -0.863599,0 q -0.169334,0 -0.169334,-0.16934 l 0,-8.2296 q 0,-0.16933 0.169334,-0.16933 l 0.863599,0 q 0.169334,0 0.169334,0.16933 l 0,1.03294 q 0,0.0508 0.01693,0.0677 0.03387,0 0.0508,-0.0339 0.3556,-0.62653 0.897467,-0.9652 0.5588,-0.3556 1.286933,-0.3556 z"
         style="font-style:normal;font-variant:normal;font-weight:500;font-stretch:normal;font-size:16.93333244px;font-family:Barlow;-inkscape-font-specification:'Barlow Medium';fill:#9b2321;fill-opacity:1;stroke-width:0.26458332px"
         id="path4400"
         inkscape:connector-curvature="0" />
      <path
         d="m -89.346663,122.19564 q -0.4064,0 -0.677333,-0.27093 -0.270934,-0.27093 -0.270934,-0.67733 0,-0.42334 0.270934,-0.67734 0.270933,-0.27093 0.677333,-0.27093 0.4064,0 0.677333,0.27093 0.270934,0.254 0.270934,0.67734 0,0.4064 -0.270934,0.67733 -0.270933,0.27093 -0.677333,0.27093 z m -0.474133,10.1092 q -0.169334,0 -0.169334,-0.16933 l 0,-8.2296 q 0,-0.16933 0.169334,-0.16933 l 0.8636,0 q 0.169333,0 0.169333,0.16933 l 0,8.2296 q 0,0.16933 -0.169333,0.16933 l -0.8636,0 z"
         style="font-style:normal;font-variant:normal;font-weight:500;font-stretch:normal;font-size:16.93333244px;font-family:Barlow;-inkscape-font-specification:'Barlow Medium';fill:#9b2321;fill-opacity:1;stroke-width:0.26458332px"
         id="path4402"
         inkscape:connector-curvature="0" />
      <path
         d="m -80.509845,120.63778 q 0,-0.16934 0.169334,-0.16934 l 0.8636,0 q 0.169333,0 0.169333,0.16934 l 0,11.51466 q 0,0.16934 -0.169333,0.16934 l -0.8636,0 q -0.169334,0 -0.169334,-0.16934 l 0,-0.7112 q 0,-0.0339 -0.03387,-0.0339 -0.01693,-0.0169 -0.0508,0.0169 -0.372534,0.49107 -0.931334,0.762 -0.541866,0.27093 -1.2192,0.27093 -1.185333,0 -1.998133,-0.6096 -0.795866,-0.6096 -1.100666,-1.65946 -0.237067,-0.762 -0.237067,-2.15054 0,-1.40546 0.2032,-2.09973 0.3048,-1.08373 1.1176,-1.69333 0.8128,-0.62654 2.015066,-0.62654 0.6604,0 1.2192,0.27094 0.5588,0.254 0.931334,0.74506 0.03387,0.0339 0.0508,0.0339 0.03387,-0.0169 0.03387,-0.0508 l 0,-3.97933 z m -0.3048,9.46573 q 0.1524,-0.33867 0.220134,-0.79587 0.06773,-0.4572 0.06773,-1.27 0,-0.8128 -0.06773,-1.27 -0.06773,-0.47413 -0.237067,-0.82973 -0.2032,-0.57573 -0.677333,-0.9144 -0.4572,-0.3556 -1.100667,-0.3556 -0.677333,0 -1.1684,0.33867 -0.491067,0.33866 -0.7112,0.89746 -0.2032,0.37254 -0.3048,0.84667 -0.08467,0.4572 -0.08467,1.28693 0,0.79587 0.06773,1.25307 0.06773,0.44027 0.237067,0.79587 0.2032,0.6096 0.711199,0.9652 0.524934,0.3556 1.236134,0.3556 0.677333,0 1.134533,-0.3556 0.4572,-0.3556 0.677333,-0.94827 z"
         style="font-style:normal;font-variant:normal;font-weight:500;font-stretch:normal;font-size:16.93333244px;font-family:Barlow;-inkscape-font-specification:'Barlow Medium';fill:#9b2321;fill-opacity:1;stroke-width:0.26458332px"
         id="path4404"
         inkscape:connector-curvature="0" />
      <path
         d="m -71.283295,123.92284 q 0,-0.16933 0.169333,-0.16933 l 0.8636,0 q 0.169333,0 0.169333,0.16933 l 0,8.11107 q 0,1.89653 -1.100666,2.77707 -1.083734,0.88053 -2.9972,0.88053 -0.389467,0 -0.592667,-0.0169 -0.169333,-0.0169 -0.169333,-0.18627 l 0.03387,-0.77893 q 0,-0.0847 0.0508,-0.13547 0.0508,-0.0339 0.118533,-0.0169 l 0.4572,0.0169 q 1.5748,0 2.286,-0.62653 0.7112,-0.6096 0.7112,-1.94734 l 0,-0.62653 q 0,-0.0339 -0.03387,-0.0339 -0.01693,-0.0169 -0.0508,0.0169 -0.778933,1.016 -2.218267,1.016 -1.100666,0 -1.964266,-0.59267 -0.846667,-0.59267 -1.134533,-1.6764 -0.2032,-0.69427 -0.2032,-2.06587 0,-0.74506 0.03387,-1.25306 0.0508,-0.508 0.186267,-0.9144 0.3048,-1.016 1.100667,-1.6256 0.795866,-0.62654 1.913466,-0.62654 1.507067,0 2.286,0.99907 0.03387,0.0339 0.0508,0.0169 0.03387,-0.0169 0.03387,-0.0508 l 0,-0.6604 z m -0.08467,5.80814 q 0.0508,-0.254 0.06773,-0.62654 0.01693,-0.37253 0.01693,-1.08373 0,-0.8636 -0.01693,-1.15147 -0.01693,-0.3048 -0.08467,-0.5588 -0.135467,-0.7112 -0.677334,-1.1684 -0.524933,-0.47413 -1.337733,-0.47413 -0.795867,0 -1.354666,0.4572 -0.541867,0.4572 -0.762,1.18533 -0.169334,0.54187 -0.169334,1.69334 0,1.23613 0.169334,1.71026 0.169333,0.7112 0.728133,1.18534 0.575733,0.4572 1.388533,0.4572 0.829733,0 1.354667,-0.4572 0.541866,-0.4572 0.677333,-1.1684 z"
         style="font-style:normal;font-variant:normal;font-weight:500;font-stretch:normal;font-size:16.93333244px;font-family:Barlow;-inkscape-font-specification:'Barlow Medium';fill:#9b2321;fill-opacity:1;stroke-width:0.26458332px"
         id="path4406"
         inkscape:connector-curvature="0" />
      <path
         d="m -66.691718,122.19564 q -0.4064,0 -0.677333,-0.27093 -0.270933,-0.27093 -0.270933,-0.67733 0,-0.42334 0.270933,-0.67734 0.270933,-0.27093 0.677333,-0.27093 0.4064,0 0.677334,0.27093 0.270933,0.254 0.270933,0.67734 0,0.4064 -0.270933,0.67733 -0.270934,0.27093 -0.677334,0.27093 z m -0.474133,10.1092 q -0.169333,0 -0.169333,-0.16933 l 0,-8.2296 q 0,-0.16933 0.169333,-0.16933 l 0.8636,0 q 0.169333,0 0.169333,0.16933 l 0,8.2296 q 0,0.16933 -0.169333,0.16933 l -0.8636,0 z"
         style="font-style:normal;font-variant:normal;font-weight:500;font-stretch:normal;font-size:16.93333244px;font-family:Barlow;-inkscape-font-specification:'Barlow Medium';fill:#9b2321;fill-opacity:1;stroke-width:0.26458332px"
         id="path4408"
         inkscape:connector-curvature="0" />
      <path
         d="m -59.615964,123.63498 q 1.354667,0 2.150533,0.79586 0.8128,0.79587 0.8128,2.1336 l 0,5.588 q 0,0.16934 -0.169333,0.16934 l -0.8636,0 q -0.169333,0 -0.169333,-0.16934 l 0,-5.35093 q 0,-0.93133 -0.575734,-1.524 -0.5588,-0.59267 -1.456266,-0.59267 -0.931334,0 -1.507067,0.57574 -0.575733,0.57573 -0.575733,1.50706 l 0,5.3848 q 0,0.16934 -0.169334,0.16934 l -0.863599,0 q -0.169334,0 -0.169334,-0.16934 l 0,-8.2296 q 0,-0.16933 0.169334,-0.16933 l 0.863599,0 q 0.169334,0 0.169334,0.16933 l 0,0.72814 q 0,0.0339 0.01693,0.0508 0.03387,0.0169 0.0508,-0.0169 0.745067,-1.04986 2.286,-1.04986 z"
         style="font-style:normal;font-variant:normal;font-weight:500;font-stretch:normal;font-size:16.93333244px;font-family:Barlow;-inkscape-font-specification:'Barlow Medium';fill:#9b2321;fill-opacity:1;stroke-width:0.26458332px"
         id="path4410"
         inkscape:connector-curvature="0" />
      <path
         d="m -48.76064,123.92284 q 0,-0.16933 0.169333,-0.16933 l 0.8636,0 q 0.169334,0 0.169334,0.16933 l 0,8.11107 q 0,1.89653 -1.100667,2.77707 -1.083733,0.88053 -2.9972,0.88053 -0.389466,0 -0.592666,-0.0169 -0.169334,-0.0169 -0.169334,-0.18627 l 0.03387,-0.77893 q 0,-0.0847 0.0508,-0.13547 0.0508,-0.0339 0.118533,-0.0169 l 0.4572,0.0169 q 1.5748,0 2.286,-0.62653 0.7112,-0.6096 0.7112,-1.94734 l 0,-0.62653 q 0,-0.0339 -0.03387,-0.0339 -0.01693,-0.0169 -0.0508,0.0169 -0.778933,1.016 -2.218266,1.016 -1.100667,0 -1.964267,-0.59267 -0.846666,-0.59267 -1.134533,-1.6764 -0.2032,-0.69427 -0.2032,-2.06587 0,-0.74506 0.03387,-1.25306 0.0508,-0.508 0.186266,-0.9144 0.3048,-1.016 1.100667,-1.6256 0.795867,-0.62654 1.913467,-0.62654 1.507066,0 2.285999,0.99907 0.03387,0.0339 0.0508,0.0169 0.03387,-0.0169 0.03387,-0.0508 l 0,-0.6604 z m -0.08467,5.80814 q 0.0508,-0.254 0.06773,-0.62654 0.01693,-0.37253 0.01693,-1.08373 0,-0.8636 -0.01693,-1.15147 -0.01693,-0.3048 -0.08467,-0.5588 -0.135467,-0.7112 -0.677333,-1.1684 -0.524933,-0.47413 -1.337733,-0.47413 -0.795867,0 -1.354667,0.4572 -0.541867,0.4572 -0.762,1.18533 -0.169333,0.54187 -0.169333,1.69334 0,1.23613 0.169333,1.71026 0.169333,0.7112 0.728133,1.18534 0.575734,0.4572 1.388534,0.4572 0.829733,0 1.354666,-0.4572 0.541867,-0.4572 0.677333,-1.1684 z"
         style="font-style:normal;font-variant:normal;font-weight:500;font-stretch:normal;font-size:16.93333244px;font-family:Barlow;-inkscape-font-specification:'Barlow Medium';fill:#9b2321;fill-opacity:1;stroke-width:0.26458332px"
         id="path4412"
         inkscape:connector-curvature="0" />
      <path
         d="m -37.764556,124.58324 q 0,0.16934 -0.169333,0.16934 l -1.913467,0 q -0.06773,0 -0.06773,0.0677 l 0,4.99533 q 0,0.8128 0.3556,1.15147 0.372533,0.32173 1.151466,0.32173 l 0.423334,0 q 0.169333,0 0.169333,0.16934 l 0,0.69426 q 0,0.16934 -0.169333,0.16934 -0.2032,0.0169 -0.626534,0.0169 -1.219199,0 -1.845733,-0.4572 -0.626533,-0.4572 -0.626533,-1.69333 l 0,-5.36787 q 0,-0.0677 -0.06773,-0.0677 l -1.032934,0 q -0.169333,0 -0.169333,-0.16934 l 0,-0.6604 q 0,-0.16933 0.169333,-0.16933 l 1.032934,0 q 0.06773,0 0.06773,-0.0677 l 0,-1.96427 q 0,-0.16933 0.169333,-0.16933 l 0.829734,0 q 0.169333,0 0.169333,0.16933 l 0,1.96427 q 0,0.0677 0.06773,0.0677 l 1.913467,0 q 0.169333,0 0.169333,0.16933 l 0,0.6604 z"
         style="font-style:normal;font-variant:normal;font-weight:500;font-stretch:normal;font-size:16.93333244px;font-family:Barlow;-inkscape-font-specification:'Barlow Medium';fill:#9b2321;fill-opacity:1;stroke-width:0.26458332px"
         id="path4414"
         inkscape:connector-curvature="0" />
      <path
         d="m -31.900865,123.63498 q 1.354667,0 2.150534,0.79586 0.8128,0.79587 0.8128,2.1336 l 0,5.588 q 0,0.16934 -0.169334,0.16934 l -0.8636,0 q -0.169333,0 -0.169333,-0.16934 l 0,-5.35093 q 0,-0.93133 -0.575733,-1.524 -0.5588,-0.59267 -1.456267,-0.59267 -0.931333,0 -1.507067,0.57574 -0.575733,0.57573 -0.575733,1.50706 l 0,5.3848 q 0,0.16934 -0.169333,0.16934 l -0.8636,0 q -0.169333,0 -0.169333,-0.16934 l 0,-11.51466 q 0,-0.16934 0.169333,-0.16934 l 0.8636,0 q 0.169333,0 0.169333,0.16934 l 0,4.0132 q 0,0.0339 0.01693,0.0508 0.03387,0.0169 0.0508,-0.0169 0.745067,-1.04986 2.286,-1.04986 z"
         style="font-style:normal;font-variant:normal;font-weight:500;font-stretch:normal;font-size:16.93333244px;font-family:Barlow;-inkscape-font-specification:'Barlow Medium';fill:#9b2321;fill-opacity:1;stroke-width:0.26458332px"
         id="path4416"
         inkscape:connector-curvature="0" />
      <path
         d="m -19.890897,126.59831 q 0.06773,0.47413 0.06773,1.18533 l 0,0.54187 q 0,0.16933 -0.169333,0.16933 l -5.469467,0 q -0.06773,0 -0.06773,0.0677 0.03387,0.93133 0.1016,1.20226 0.186267,0.762 0.795867,1.20227 0.6096,0.44027 1.557866,0.44027 0.7112,0 1.253067,-0.32174 0.541867,-0.32173 0.846667,-0.9144 0.1016,-0.1524 0.237066,-0.0677 l 0.6604,0.38947 q 0.135467,0.0847 0.06773,0.23706 -0.423334,0.8128 -1.27,1.28694 -0.846667,0.4572 -1.947334,0.4572 -1.202266,-0.0169 -2.015066,-0.57574 -0.8128,-0.5588 -1.1684,-1.55786 -0.3048,-0.8128 -0.3048,-2.3368 0,-0.7112 0.01693,-1.15147 0.03387,-0.4572 0.135467,-0.8128 0.287867,-1.10067 1.151466,-1.76107 0.880534,-0.6604 2.116667,-0.6604 1.540933,0 2.370667,0.77894 0.829733,0.77893 1.032933,2.20133 z m -3.4036,-1.9304 q -0.829733,0 -1.388533,0.44027 -0.541867,0.42333 -0.7112,1.15146 -0.1016,0.3556 -0.135467,1.15147 0,0.0677 0.06773,0.0677 l 4.385734,0 q 0.06773,0 0.06773,-0.0677 -0.03387,-0.762 -0.1016,-1.08373 -0.186267,-0.762 -0.762,-1.20227 -0.5588,-0.4572 -1.4224,-0.4572 z"
         style="font-style:normal;font-variant:normal;font-weight:500;font-stretch:normal;font-size:16.93333244px;font-family:Barlow;-inkscape-font-specification:'Barlow Medium';fill:#9b2321;fill-opacity:1;stroke-width:0.26458332px"
         id="path4418"
         inkscape:connector-curvature="0" />
      <path
         d="m -6.1338868,120.58698 q 0.084667,-0.11854 0.2032,-0.11854 l 0.8805333,0 q 0.1693333,0 0.1693333,0.16934 l 0,11.51466 q 0,0.16934 -0.1693333,0.16934 l -0.8636,0 q -0.1693333,0 -0.1693333,-0.16934 l 0,-9.41493 q 0,-0.0508 -0.033867,-0.0677 -0.033867,-0.0169 -0.0508,0.0339 l -2.7601331,4.23334 q -0.084667,0.11853 -0.2032,0.11853 l -0.4402667,0 q -0.1185333,0 -0.2032,-0.1016 l -2.7601324,-4.19947 q -0.01693,-0.0508 -0.0508,-0.0339 -0.03387,0.0169 -0.03387,0.0677 l 0,9.36413 q 0,0.16934 -0.169333,0.16934 l -0.8636,0 q -0.169334,0 -0.169334,-0.16934 l 0,-11.51466 q 0,-0.16934 0.169334,-0.16934 l 0.880533,0 q 0.135467,0 0.2032,0.1016 l 3.1834661,4.826 q 0.016933,0.0169 0.0508,0.0169 0.033867,0 0.0508,-0.0169 l 3.1495998,-4.80906 z"
         style="font-style:normal;font-variant:normal;font-weight:500;font-stretch:normal;font-size:16.93333244px;font-family:Barlow;-inkscape-font-specification:'Barlow Medium';fill:#9b2321;fill-opacity:1;stroke-width:0.26458332px"
         id="path4420"
         inkscape:connector-curvature="0" />
      <path
         d="m 1.0093374,123.61804 q 1.5239999,0 2.3537332,0.77894 0.8297333,0.77893 0.8297333,2.06586 l 0,5.6896 q 0,0.16934 -0.1693334,0.16934 l -0.8635999,0 q -0.1693333,0 -0.1693333,-0.16934 l 0,-0.69426 q 0,-0.0339 -0.033867,-0.0508 -0.016933,-0.0169 -0.0508,0.0169 -0.4233333,0.508 -1.1006666,0.77893 -0.6773333,0.254 -1.5070666,0.254 -1.20226661,0 -2.0150666,-0.6096 -0.8127999,-0.6096 -0.8127999,-1.86266 0,-1.27 0.9143999,-1.99814 0.93133331,-0.74506 2.57386656,-0.74506 l 1.96426654,0 q 0.067733,0 0.067733,-0.0677 l 0,-0.64346 q 0,-0.8636 -0.4910667,-1.35467 -0.4741333,-0.508 -1.4901332,-0.508 -0.8128,0 -1.32079997,0.32173 -0.50799998,0.3048 -0.6265333,0.8636 -0.0508,0.16934 -0.20320003,0.1524 l -0.9143999,-0.11853 q -0.1862667,-0.0339 -0.1524,-0.13547 0.1354667,-0.94826 1.0159999,-1.54093 0.88053333,-0.59267 2.2013333,-0.59267 z m -0.47413335,7.80627 q 0.99906665,0 1.72719995,-0.49107 0.7281333,-0.508 0.7281333,-1.35466 l 0,-1.3208 q 0,-0.0677 -0.067733,-0.0677 l -1.7779999,0 q -1.11759992,0 -1.79493322,0.4572 -0.67733328,0.4572 -0.67733328,1.27 0,0.74507 0.50799995,1.13454 0.52493331,0.37253 1.3546666,0.37253 z"
         style="font-style:normal;font-variant:normal;font-weight:500;font-stretch:normal;font-size:16.93333244px;font-family:Barlow;-inkscape-font-specification:'Barlow Medium';fill:#9b2321;fill-opacity:1;stroke-width:0.26458332px"
         id="path4422"
         inkscape:connector-curvature="0" />
      <path
         d="m 13.365904,125.88711 q 0.254,0.8128 0.254,2.15053 0,1.35467 -0.220133,2.09974 -0.3048,1.08373 -1.1176,1.71026 -0.795867,0.6096 -2.015067,0.6096 -0.6603999,0 -1.2191998,-0.254 -0.5588,-0.27093 -0.9313333,-0.762 -0.033867,-0.0339 -0.067733,-0.0169 -0.016933,0 -0.016933,0.0339 l 0,3.97933 q 0,0.16933 -0.1693333,0.16933 l -0.8636,0 q -0.1693333,0 -0.1693333,-0.16933 l 0,-11.51467 q 0,-0.16933 0.1693333,-0.16933 l 0.8636,0 q 0.1693333,0 0.1693333,0.16933 l 0,0.7112 q 0,0.0339 0.016933,0.0508 0.033867,0 0.067733,-0.0339 0.3725333,-0.49107 0.9143999,-0.762 0.5588,-0.27094 1.2361332,-0.27094 1.185333,0 1.9812,0.6096 0.8128,0.6096 1.1176,1.65947 z m -1.337733,4.28413 q 0.186266,-0.37253 0.270933,-0.82973 0.1016,-0.47413 0.1016,-1.30387 0,-0.79586 -0.06773,-1.23613 -0.06773,-0.4572 -0.237067,-0.8128 -0.2032,-0.6096 -0.728133,-0.9652 -0.508,-0.3556 -1.2192,-0.3556 -0.6773335,0 -1.1345335,0.3556 -0.4572,0.3556 -0.6773333,0.94827 -0.1524,0.33866 -0.2201333,0.79586 -0.067733,0.4572 -0.067733,1.27 0,0.8128 0.067733,1.28694 0.067733,0.4572 0.2370666,0.8128 0.2032,0.57573 0.6604,0.93133 0.4741333,0.33867 1.1175995,0.33867 0.677334,0 1.1684,-0.33867 0.508,-0.33867 0.728134,-0.89747 z"
         style="font-style:normal;font-variant:normal;font-weight:500;font-stretch:normal;font-size:16.93333244px;font-family:Barlow;-inkscape-font-specification:'Barlow Medium';fill:#9b2321;fill-opacity:1;stroke-width:0.26458332px"
         id="path4424"
         inkscape:connector-curvature="0" />
    </g>
  </g>
</svg>
